<svg width="163" height="184" viewBox="0 0 163 184" fill="none" xmlns="http://www.w3.org/2000/svg">
<path d="M58.5 47V182.5M31 68L54 178.5M76.5 100.5L64 182.5M100 77.5L71 178.5M129.5 71L76.5 172.5" stroke="#AABF7D" stroke-width="2" stroke-linecap="round" stroke-linejoin="round"/>
<path d="M58.5 47V182.5M31 68L54 178.5M76.5 100.5L64 182.5M100 77.5L71 178.5M129.5 71L76.5 172.5" stroke="url(#paint0_linear_6_7620)" stroke-width="2" stroke-linecap="round" stroke-linejoin="round"/>
<path d="M133.9 32.417C151.317 23.8914 158.993 41.5984 158.959 48.1735C158.388 47.0772 157.095 46.006 154.956 45.84C151.409 47.2564 144.944 53.2453 141.12 64.4058C139.605 68.8267 133.781 79.7942 125.311 73.7759C123.585 72.5625 124.429 70.2955 125.067 69.3137C125.067 69.3137 125.951 67.4878 127.756 65.2801C129.806 60.4154 127.949 53.0052 127.647 50.6255C126.486 43.0437 129.31 34.6637 133.9 32.417Z" fill="#FFFAED"/>
<path d="M132.855 60.6159C134.97 59.2231 136.408 56.7573 138.833 54.5102C146.468 47.4379 151.696 45.5871 154.956 45.84M132.855 60.6159C130.406 58.1385 128.183 54.1232 127.647 50.6255M132.855 60.6159C127.602 64.0752 125.067 69.3137 125.067 69.3137C124.429 70.2955 123.585 72.5625 125.311 73.7759C133.781 79.7942 139.605 68.8267 141.12 64.4058C144.944 53.2453 151.409 47.2564 154.956 45.84M154.956 45.84C157.095 46.006 158.388 47.0772 158.959 48.1735C158.993 41.5984 151.317 23.8914 133.9 32.417C129.31 34.6637 126.486 43.0437 127.647 50.6255M127.647 50.6255C127.949 53.0052 129.806 60.4154 127.756 65.2801" stroke="#758672" stroke-width="0.5" stroke-linecap="round" stroke-linejoin="round"/>
<path d="M139.405 48.8552C138.63 52.7245 134.158 62.9347 132.018 67.5561C130.022 71.1692 126.632 76.051 129.037 66.6738C131.441 57.2966 134.963 50.2994 136.423 47.9729C137.759 45.846 140.179 44.9858 139.405 48.8552Z" fill="#F5CF6C" stroke="#EEB648" stroke-linecap="round" stroke-linejoin="round"/>
<path fill-rule="evenodd" clip-rule="evenodd" d="M132.855 60.6159C130.406 58.1385 128.183 54.1232 127.647 50.6255C127.697 51.016 127.788 51.5419 127.897 52.1697C128.453 55.3684 129.469 61.2135 127.756 65.2801C125.951 67.4878 125.067 69.3137 125.067 69.3137C124.429 70.2955 123.585 72.5625 125.311 73.7759C133.781 79.7942 139.605 68.8267 141.12 64.4058C144.944 53.2453 151.409 47.2564 154.956 45.84C151.696 45.5871 146.468 47.4379 138.833 54.5102C137.805 55.4628 136.954 56.4548 136.154 57.3877C135.067 58.6552 134.074 59.8136 132.855 60.6159Z" fill="#EDF5D7"/>
<path d="M132.855 60.6159C130.406 58.1385 128.183 54.1232 127.647 50.6255M132.855 60.6159C127.602 64.0752 125.067 69.3137 125.067 69.3137M132.855 60.6159C134.074 59.8136 135.067 58.6552 136.154 57.3877C136.954 56.4548 137.805 55.4628 138.833 54.5102C146.468 47.4379 151.696 45.5871 154.956 45.84M154.956 45.84C157.095 46.006 158.388 47.0772 158.959 48.1735C158.993 41.5984 151.317 23.8914 133.9 32.417C129.31 34.6637 126.486 43.0437 127.647 50.6255M154.956 45.84C151.409 47.2564 144.944 53.2453 141.12 64.4058C139.605 68.8267 133.781 79.7942 125.311 73.7759C123.585 72.5625 124.429 70.2955 125.067 69.3137M127.647 50.6255C127.697 51.016 127.788 51.5419 127.897 52.1697C128.453 55.3684 129.469 61.2135 127.756 65.2801C125.951 67.4878 125.067 69.3137 125.067 69.3137" stroke="#758672" stroke-width="0.5" stroke-linecap="round" stroke-linejoin="round"/>
<path d="M42.0752 10.957C53.3824 -4.79693 68.5249 7.16802 71.6073 12.9759C70.5857 12.2803 68.9399 11.9485 66.9771 12.8148C64.5227 15.7415 61.6623 24.0771 63.5761 35.7184C64.3342 40.3297 64.3948 52.7476 54.0856 51.4549C51.9902 51.2033 51.6613 48.8065 51.7587 47.6396C51.7587 47.6396 51.6727 45.613 52.2176 42.8141C51.7208 37.5584 46.5783 31.9095 45.1858 29.9562C40.5745 23.827 39.0954 15.1086 42.0752 10.957Z" fill="#FFFAED"/>
<path d="M54.5021 36.2916C55.7059 34.0637 55.8051 31.2112 56.8783 28.0835C60.2562 18.24 63.9851 14.1354 66.9771 12.8148M54.5021 36.2916C51.1719 35.2686 47.3131 32.7838 45.1858 29.9562M54.5021 36.2916C51.512 41.8253 51.7587 47.6396 51.7587 47.6396C51.6613 48.8065 51.9902 51.2033 54.0856 51.4549C64.3948 52.7476 64.3342 40.3297 63.5761 35.7184C61.6623 24.0771 64.5227 15.7415 66.9771 12.8148M66.9771 12.8148C68.9399 11.9485 70.5857 12.2803 71.6073 12.9759C68.5249 7.16802 53.3824 -4.79693 42.0752 10.957C39.0954 15.1086 40.5745 23.827 45.1858 29.9562M45.1858 29.9562C46.5783 31.9095 51.7208 37.5584 52.2176 42.8141" stroke="#758672" stroke-width="0.5" stroke-linecap="round" stroke-linejoin="round"/>
<path d="M54.7051 22.8316C55.8544 26.6066 56.747 37.7177 57.0496 42.8014C57.0018 46.9287 56.3262 52.8337 54.0057 43.4354C51.6853 34.037 51.4759 26.2062 51.6612 23.4656C51.8307 20.96 53.5559 19.0565 54.7051 22.8316Z" fill="#F5CF6C" stroke="#EEB648" stroke-linecap="round" stroke-linejoin="round"/>
<path fill-rule="evenodd" clip-rule="evenodd" d="M54.5021 36.2916C51.1719 35.2686 47.3131 32.7838 45.1858 29.9562C45.4143 30.2767 45.7437 30.6967 46.137 31.1981C48.1407 33.7526 51.8023 38.4207 52.2176 42.8141C51.6727 45.613 51.7587 47.6396 51.7587 47.6396C51.6613 48.8065 51.9902 51.2033 54.0856 51.4549C64.3948 52.7476 64.3342 40.3297 63.5761 35.7184C61.6623 24.0771 64.5227 15.7415 66.9771 12.8148C63.9851 14.1354 60.2562 18.24 56.8783 28.0835C56.4233 29.4095 56.1434 30.686 55.8802 31.8864C55.5225 33.5175 55.1956 35.0082 54.5021 36.2916Z" fill="#EDF5D7"/>
<path d="M54.5021 36.2916C51.1719 35.2686 47.3131 32.7838 45.1858 29.9562M54.5021 36.2916C51.512 41.8253 51.7587 47.6396 51.7587 47.6396M54.5021 36.2916C55.1956 35.0082 55.5225 33.5175 55.8802 31.8864C56.1434 30.686 56.4233 29.4095 56.8783 28.0835C60.2562 18.24 63.9851 14.1354 66.9771 12.8148M66.9771 12.8148C68.9399 11.9485 70.5857 12.2803 71.6073 12.9759C68.5249 7.16802 53.3824 -4.79693 42.0752 10.957C39.0954 15.1086 40.5745 23.827 45.1858 29.9562M66.9771 12.8148C64.5227 15.7415 61.6623 24.0771 63.5761 35.7184C64.3342 40.3297 64.3948 52.7476 54.0856 51.4549C51.9902 51.2033 51.6613 48.8065 51.7587 47.6396M45.1858 29.9562C45.4143 30.2767 45.7437 30.6967 46.137 31.1981C48.1407 33.7526 51.8023 38.4207 52.2176 42.8141C51.6727 45.613 51.7587 47.6396 51.7587 47.6396" stroke="#758672" stroke-width="0.5" stroke-linecap="round" stroke-linejoin="round"/>
<path d="M37.5 31.2562C23.218 18.1388 10.8333 32.94 9 39.2544C9.85829 38.365 11.4018 37.7047 13.5 38.1525C16.4996 40.5173 20.9996 48.0946 21.4997 59.8814C21.6978 64.5505 24.1706 76.7198 33.9996 73.3522C35.9996 72.6786 35.833 70.2651 35.4996 69.1426C35.4996 69.1426 35.1706 67.141 34.0665 64.512C33.4812 59.2655 37.3638 52.6867 38.3287 50.4905C41.5933 43.5497 41.2637 34.713 37.5 31.2562Z" fill="#FFFAED"/>
<path d="M30.5 58.5924C28.8672 56.6567 28.1885 53.8844 26.5 51.0413C21.186 42.0933 16.6985 38.8353 13.5 38.1525M30.5 58.5924C33.5517 56.9118 36.8227 53.6925 38.3287 50.4905M30.5 58.5924C34.5556 63.4002 35.4996 69.1426 35.4996 69.1426C35.833 70.2651 35.9996 72.6786 33.9996 73.3522C24.1706 76.7198 21.6978 64.5505 21.4997 59.8814C20.9996 48.0946 16.4996 40.5173 13.5 38.1525M13.5 38.1525C11.4018 37.7047 9.85829 38.365 9 39.2544C10.8333 32.94 23.218 18.1388 37.5 31.2562C41.2637 34.713 41.5933 43.5497 38.3287 50.4905M38.3287 50.4905C37.3638 52.6867 33.4812 59.2655 34.0665 64.512" stroke="#758672" stroke-width="0.5" stroke-linecap="round" stroke-linejoin="round"/>
<path d="M27.5567 45.4566C27.2013 49.3866 28.5931 60.4463 29.3334 65.4848C30.2217 69.5157 32.0873 75.1589 32.4426 65.4848C32.7979 55.8108 31.4062 48.1018 30.6659 45.4566C29.9891 43.0381 27.912 41.5265 27.5567 45.4566Z" fill="#F5CF6C" stroke="#EEB648" stroke-linecap="round" stroke-linejoin="round"/>
<path fill-rule="evenodd" clip-rule="evenodd" d="M30.5 58.5924C33.5517 56.9118 36.8227 53.6924 38.3287 50.4905C38.1704 50.8508 37.9335 51.3292 37.6507 51.9002C36.21 54.8097 33.5772 60.1263 34.0665 64.512C35.1706 67.141 35.4996 69.1426 35.4996 69.1426C35.833 70.2651 35.9996 72.6786 33.9996 73.3522C24.1706 76.7198 21.6978 64.5505 21.4997 59.8814C20.9996 48.0946 16.4996 40.5173 13.5 38.1525C16.6985 38.8353 21.186 42.0933 26.5 51.0413C27.2158 52.2466 27.7502 53.4392 28.2526 54.5608C28.9354 56.0847 29.5594 57.4774 30.5 58.5924Z" fill="#EDF5D7"/>
<path d="M30.5 58.5924C33.5517 56.9118 36.8227 53.6925 38.3287 50.4905M30.5 58.5924C34.5556 63.4002 35.4996 69.1426 35.4996 69.1426M30.5 58.5924C29.5594 57.4774 28.9354 56.0847 28.2526 54.5608C27.7502 53.4392 27.2158 52.2466 26.5 51.0413C21.186 42.0933 16.6985 38.8353 13.5 38.1525M13.5 38.1525C11.4018 37.7047 9.85829 38.365 9 39.2544C10.8333 32.94 23.218 18.1388 37.5 31.2562C41.2637 34.713 41.5933 43.5497 38.3287 50.4905M13.5 38.1525C16.4996 40.5173 20.9996 48.0946 21.4997 59.8814C21.6978 64.5505 24.1706 76.7198 33.9996 73.3522C35.9996 72.6786 35.833 70.2651 35.4996 69.1426M38.3287 50.4905C38.1704 50.8508 37.9335 51.3292 37.6507 51.9002C36.21 54.8097 33.5772 60.1263 34.0665 64.512C35.1706 67.141 35.4996 69.1426 35.4996 69.1426" stroke="#758672" stroke-width="0.5" stroke-linecap="round" stroke-linejoin="round"/>
<path d="M107.5 39.2562C93.218 26.1388 80.8333 40.94 79 47.2544C79.8583 46.365 81.4018 45.7047 83.5 46.1525C86.4996 48.5173 90.9996 56.0946 91.4997 67.8814C91.6978 72.5505 94.1706 84.7198 104 81.3522C106 80.6786 105.833 78.2651 105.5 77.1426C105.5 77.1426 105.171 75.141 104.066 72.512C103.481 67.2655 107.364 60.6867 108.329 58.4905C111.593 51.5497 111.264 42.713 107.5 39.2562Z" fill="#FFFAED"/>
<path d="M100.5 66.5924C98.8672 64.6567 98.1885 61.8844 96.5 59.0413C91.186 50.0933 86.6985 46.8353 83.5 46.1525M100.5 66.5924C103.552 64.9118 106.823 61.6925 108.329 58.4905M100.5 66.5924C104.556 71.4002 105.5 77.1426 105.5 77.1426C105.833 78.2651 106 80.6786 104 81.3522C94.1706 84.7198 91.6978 72.5505 91.4997 67.8814C90.9996 56.0946 86.4996 48.5173 83.5 46.1525M83.5 46.1525C81.4018 45.7047 79.8583 46.365 79 47.2544C80.8333 40.94 93.218 26.1388 107.5 39.2562C111.264 42.713 111.593 51.5497 108.329 58.4905M108.329 58.4905C107.364 60.6867 103.481 67.2655 104.066 72.512" stroke="#758672" stroke-width="0.5" stroke-linecap="round" stroke-linejoin="round"/>
<path d="M97.5567 53.4566C97.2013 57.3866 98.5931 68.4463 99.3334 73.4848C100.222 77.5157 102.087 83.1589 102.443 73.4848C102.798 63.8108 101.406 56.1018 100.666 53.4566C99.9891 51.0381 97.912 49.5265 97.5567 53.4566Z" fill="#F5CF6C" stroke="#EEB648" stroke-linecap="round" stroke-linejoin="round"/>
<path fill-rule="evenodd" clip-rule="evenodd" d="M100.5 66.5924C103.552 64.9118 106.823 61.6924 108.329 58.4905C108.17 58.8508 107.934 59.3292 107.651 59.9002C106.21 62.8097 103.577 68.1263 104.066 72.512C105.171 75.141 105.5 77.1426 105.5 77.1426C105.833 78.2651 106 80.6786 104 81.3522C94.1706 84.7198 91.6978 72.5505 91.4997 67.8814C90.9996 56.0946 86.4996 48.5173 83.5 46.1525C86.6985 46.8353 91.186 50.0933 96.5 59.0413C97.2158 60.2466 97.7502 61.4392 98.2526 62.5608C98.9354 64.0847 99.5594 65.4774 100.5 66.5924Z" fill="#EDF5D7"/>
<path d="M100.5 66.5924C103.552 64.9118 106.823 61.6925 108.329 58.4905M100.5 66.5924C104.556 71.4002 105.5 77.1426 105.5 77.1426M100.5 66.5924C99.5594 65.4774 98.9354 64.0847 98.2526 62.5608C97.7502 61.4392 97.2158 60.2466 96.5 59.0413C91.186 50.0933 86.6985 46.8353 83.5 46.1525M83.5 46.1525C81.4018 45.7047 79.8583 46.365 79 47.2544C80.8333 40.94 93.218 26.1388 107.5 39.2562C111.264 42.713 111.593 51.5497 108.329 58.4905M83.5 46.1525C86.4996 48.5173 90.9996 56.0946 91.4997 67.8814C91.6978 72.5505 94.1706 84.7198 104 81.3522C106 80.6786 105.833 78.2651 105.5 77.1426M108.329 58.4905C108.17 58.8508 107.934 59.3292 107.651 59.9002C106.21 62.8097 103.577 68.1263 104.066 72.512C105.171 75.141 105.5 77.1426 105.5 77.1426" stroke="#758672" stroke-width="0.5" stroke-linecap="round" stroke-linejoin="round"/>
<path d="M94.6019 69.0275C85.0027 52.1784 68.6928 62.4957 65.0205 67.9497C66.1092 67.3646 67.7806 67.2066 69.6421 68.2732C71.7773 71.4404 73.7511 80.0293 70.6314 91.4068C69.3957 95.9137 68.038 108.257 78.4258 108.049C80.536 108.018 81.1136 105.668 81.1386 104.498C81.1386 104.498 81.4358 102.491 81.1864 99.6505C82.2296 94.4755 87.9342 89.3949 89.5232 87.5977C94.7496 81.9838 97.1316 73.4678 94.6019 69.0275Z" fill="#FFFAED"/>
<path d="M79.5959 92.925C78.6315 90.5835 78.8309 87.7363 78.0903 84.5136C75.7594 74.371 72.4799 69.8992 69.6421 68.2732M79.5959 92.925C83.0148 92.2556 87.112 90.1876 89.5231 87.5977M79.5959 92.925C81.9914 98.7409 81.1386 104.498 81.1386 104.498C81.1136 105.668 80.536 108.018 78.4258 108.049C68.038 108.257 69.3957 95.9137 70.6314 91.4068C73.7511 80.0293 71.7773 71.4404 69.6421 68.2732M69.6421 68.2732C67.7806 67.2066 66.1092 67.3646 65.0205 67.9497C68.6928 62.4957 85.0027 52.1784 94.6019 69.0275C97.1316 73.4678 94.7496 81.9838 89.5231 87.5977M89.5231 87.5977C87.9342 89.3949 82.2296 94.4755 81.1864 99.6505" stroke="#758672" stroke-width="0.5" stroke-linecap="round" stroke-linejoin="round"/>
<path d="M80.8004 79.5175C79.263 83.1518 77.2143 94.1088 76.3822 99.133C75.9985 103.243 76.0534 109.186 79.3432 100.082C82.6329 90.9771 83.6594 83.211 83.7614 80.466C83.8546 77.9564 82.3378 75.8832 80.8004 79.5175Z" fill="#F5CF6C" stroke="#EEB648" stroke-linecap="round" stroke-linejoin="round"/>
<path fill-rule="evenodd" clip-rule="evenodd" d="M79.5959 92.925C83.0148 92.2556 87.112 90.1876 89.5232 87.5977C89.2624 87.8926 88.8909 88.2759 88.4474 88.7334C86.1878 91.0646 82.0585 95.3246 81.1864 99.6505C81.4358 102.491 81.1386 104.498 81.1386 104.498C81.1136 105.668 80.536 108.018 78.4258 108.049C68.038 108.257 69.3957 95.9137 70.6314 91.4068C73.7511 80.0293 71.7773 71.4404 69.6421 68.2732C72.4799 69.8992 75.7594 74.371 78.0903 84.5136C78.4043 85.8798 78.5493 87.1786 78.6857 88.4C78.871 90.0595 79.0403 91.5762 79.5959 92.925Z" fill="#EDF5D7"/>
<path d="M79.5959 92.925C83.0148 92.2556 87.112 90.1876 89.5231 87.5977M79.5959 92.925C81.9914 98.7409 81.1386 104.498 81.1386 104.498M79.5959 92.925C79.0403 91.5762 78.871 90.0595 78.6857 88.4C78.5493 87.1786 78.4043 85.8798 78.0903 84.5136C75.7594 74.371 72.4799 69.8992 69.6421 68.2732M69.6421 68.2732C67.7806 67.2066 66.1092 67.3646 65.0205 67.9497C68.6928 62.4957 85.0027 52.1784 94.6019 69.0275C97.1316 73.4678 94.7496 81.9838 89.5231 87.5977M69.6421 68.2732C71.7773 71.4404 73.7511 80.0293 70.6314 91.4068C69.3957 95.9137 68.038 108.257 78.4258 108.049C80.536 108.018 81.1136 105.668 81.1386 104.498M89.5231 87.5977C89.2624 87.8926 88.8909 88.2759 88.4474 88.7334C86.1878 91.0646 82.0585 95.3246 81.1864 99.6505C81.4358 102.491 81.1386 104.498 81.1386 104.498" stroke="#758672" stroke-width="0.5" stroke-linecap="round" stroke-linejoin="round"/>
<defs>
<linearGradient id="paint0_linear_6_7620" x1="80.25" y1="47" x2="80.25" y2="182.5" gradientUnits="userSpaceOnUse">
<stop stop-color="#FCDC8A"/>
<stop offset="0.296875" stop-color="#B0C17E"/>
<stop offset="0.979167" stop-color="#AABF7D"/>
</linearGradient>
</defs>
</svg>
