<svg width="170" height="190" viewBox="0 0 170 190" fill="none" xmlns="http://www.w3.org/2000/svg">
<path d="M25 61L53.5 169.5M73.5 79.5L60 177.5M137 70L75 185.5M109.5 38L79.5 169.5M66.5 36L75 166M93 96.5L67.5 185.5" stroke="#55794F" stroke-linecap="round" stroke-linejoin="round"/>
<path d="M29.097 45.5216C27.7119 43.065 26.2114 44.498 25.6343 45.5216C24.2492 47.9781 25.0572 53.7102 25.6343 56.2691H29.097C29.6741 53.7102 30.4821 47.9781 29.097 45.5216Z" fill="#DEC585" stroke="#76563F" stroke-width="0.5" stroke-linecap="round" stroke-linejoin="round"/>
<path d="M15.0518 49.4088C12.1136 48.5402 12.1952 50.4944 12.6033 51.5801C13.5827 54.1857 18.7246 57.7322 21.1731 59.1797L23.6216 57.0084C21.9893 54.8371 17.99 50.2773 15.0518 49.4088Z" fill="#DEC585" stroke="#76563F" stroke-width="0.5" stroke-linecap="round" stroke-linejoin="round"/>
<path d="M8.21975 60.9646C5.44956 62.1929 7.0655 63.5236 8.21975 64.0354C10.9899 65.2637 17.4537 64.5471 20.3393 64.0353L20.3393 60.9646C17.4537 60.4529 10.9899 59.7364 8.21975 60.9646Z" fill="#DEC585" stroke="#76563F" stroke-width="0.5" stroke-linecap="round" stroke-linejoin="round"/>
<path d="M12.6033 73.4199C11.6238 76.0255 13.8275 75.9531 15.0518 75.5913C17.99 74.7227 21.9892 70.1629 23.6216 67.9916L21.1731 65.8203C18.7246 67.2678 13.5827 70.8143 12.6033 73.4199Z" fill="#DEC585" stroke="#76563F" stroke-width="0.5" stroke-linecap="round" stroke-linejoin="round"/>
<path d="M29.097 79.4785C27.7119 81.935 26.2114 80.502 25.6343 79.4785C24.2492 77.0219 25.0572 71.2899 25.6343 68.7309H29.097C29.6741 71.2899 30.4821 77.0219 29.097 79.4785Z" fill="#DEC585" stroke="#76563F" stroke-width="0.5" stroke-linecap="round" stroke-linejoin="round"/>
<path d="M42.1281 73.4199C43.1075 76.0255 40.9038 75.9531 39.6796 75.5913C36.7413 74.7227 32.7421 70.1629 31.1097 67.9916L33.5583 65.8203C36.0068 67.2678 41.1487 70.8143 42.1281 73.4199Z" fill="#DEC585" stroke="#76563F" stroke-width="0.5" stroke-linecap="round" stroke-linejoin="round"/>
<path d="M46.5116 60.9646C49.2818 62.1929 47.6658 63.5236 46.5116 64.0354C43.7414 65.2637 37.2776 64.5471 34.392 64.0354L34.392 60.9646C37.2776 60.4529 43.7414 59.7364 46.5116 60.9646Z" fill="#DEC585" stroke="#76563F" stroke-width="0.5" stroke-linecap="round" stroke-linejoin="round"/>
<path d="M39.6796 49.4088C42.6179 48.5402 42.5362 50.4944 42.1281 51.5801C41.1487 54.1857 36.0068 57.7322 33.5583 59.1797L31.1098 57.0084C32.7422 54.8371 36.7414 50.2773 39.6796 49.4088Z" fill="#DEC585" stroke="#76563F" stroke-width="0.5" stroke-linecap="round" stroke-linejoin="round"/>
<path d="M21.4209 46.0155C19.1879 44.0703 18.4205 45.8504 18.316 46.9836C18.0651 49.7033 21.102 54.9198 22.6518 57.1881L25.7567 56.2201C25.2419 53.6291 23.6539 47.9608 21.4209 46.0155Z" fill="#E8CD88" stroke="#76563F" stroke-width="0.5" stroke-linecap="round" stroke-linejoin="round"/>
<path d="M9.77422 53.9264C6.68891 53.9233 7.57942 55.7052 8.41035 56.5966C10.4046 58.7359 16.6489 60.6123 19.5218 61.2831L20.8857 58.613C18.4674 57.0521 12.8595 53.9296 9.77422 53.9264Z" fill="#E8CD88" stroke="#76563F" stroke-width="0.5" stroke-linecap="round" stroke-linejoin="round"/>
<path d="M7.92258 66.7243C5.86205 68.7329 7.91986 69.573 9.20633 69.7419C12.2939 70.1474 18.0004 67.573 20.4677 66.2351L19.184 63.2175C16.2887 63.5495 9.98311 64.7157 7.92258 66.7243Z" fill="#E8CD88" stroke="#76563F" stroke-width="0.5" stroke-linecap="round" stroke-linejoin="round"/>
<path d="M16.8481 77.1512C17.033 79.9056 19.1139 79.2192 20.1312 78.5317C22.5728 76.8816 24.4396 71.421 25.0677 68.8969L21.7847 67.5165C20.0621 69.5804 16.6632 74.3968 16.8481 77.1512Z" fill="#E8CD88" stroke="#76563F" stroke-width="0.5" stroke-linecap="round" stroke-linejoin="round"/>
<path d="M34.6841 78.0165C34.4332 80.7362 32.5096 79.795 31.5792 78.9845C29.3462 77.0393 27.7582 71.3709 27.2434 68.7799L30.3483 67.8119C31.8981 70.0802 34.935 75.2968 34.6841 78.0165Z" fill="#E8CD88" stroke="#76563F" stroke-width="0.5" stroke-linecap="round" stroke-linejoin="round"/>
<path d="M44.5897 68.4034C46.5839 70.5427 44.5113 71.0749 43.2258 71.0736C40.1405 71.0705 34.5326 67.9479 32.1143 66.3871L33.4782 63.7169C36.3511 64.3877 42.5955 66.2642 44.5897 68.4034Z" fill="#E8CD88" stroke="#76563F" stroke-width="0.5" stroke-linecap="round" stroke-linejoin="round"/>
<path d="M43.7938 55.2581C46.8813 55.6636 45.9361 57.4388 45.0776 58.2757C43.017 60.2843 36.7114 61.4505 33.8162 61.7825L32.5324 58.7649C34.9998 57.427 40.7063 54.8526 43.7938 55.2581Z" fill="#E8CD88" stroke="#76563F" stroke-width="0.5" stroke-linecap="round" stroke-linejoin="round"/>
<path d="M32.8689 46.4684C35.3105 44.8183 36.075 46.7011 36.152 47.8488C36.3369 50.6032 32.938 55.4196 31.2154 57.4835L27.9323 56.1031C28.5605 53.579 30.4273 48.1184 32.8689 46.4684Z" fill="#E8CD88" stroke="#76563F" stroke-width="0.5" stroke-linecap="round" stroke-linejoin="round"/>
<path d="M35.1809 62.2824C35.1809 66.3567 31.4462 69.7092 26.7741 69.7092C22.1021 69.7092 18.3673 66.3567 18.3673 62.2824C18.3673 58.2081 22.1021 54.8556 26.7741 54.8556C31.4462 54.8556 35.1809 58.2081 35.1809 62.2824Z" fill="#76563F" stroke="#76563F" stroke-width="0.5"/>
<path d="M32.9314 62.2005C32.9314 65.1602 30.2155 67.6092 26.8004 67.6092C23.3852 67.6092 20.6693 65.1602 20.6693 62.2005C20.6693 59.2408 23.3852 56.7918 26.8004 56.7918C30.2155 56.7918 32.9314 59.2408 32.9314 62.2005Z" fill="#A78268" stroke="#76563F" stroke-width="0.5"/>
<path d="M66.985 61.4614C64.6573 59.8693 63.944 61.8177 63.8784 62.991C63.7209 65.8067 66.9777 70.5923 68.6257 72.6332L71.7323 71.1036C71.1198 68.553 69.3128 63.0536 66.985 61.4614Z" fill="#DEC585" stroke="#76563F" stroke-width="0.5" stroke-linecap="round" stroke-linejoin="round"/>
<path d="M56.1012 71.1529C53.0815 71.6715 54.0179 73.3887 54.8636 74.1824C56.8932 76.0874 63.0728 76.9979 65.9089 77.2151L67.1465 74.1855C64.723 72.9585 59.1209 70.6342 56.1012 71.1529Z" fill="#DEC585" stroke="#76563F" stroke-width="0.5" stroke-linecap="round" stroke-linejoin="round"/>
<path d="M55.0763 84.5381C53.1336 86.8637 55.1711 87.3437 56.4327 87.293C59.4605 87.1713 64.943 83.6734 67.3058 81.9396L65.9494 79.1847C63.1345 80.0002 57.019 82.2125 55.0763 84.5381Z" fill="#DEC585" stroke="#76563F" stroke-width="0.5" stroke-linecap="round" stroke-linejoin="round"/>
<path d="M64.5105 93.7762C64.7828 96.5464 66.7278 95.5081 67.6663 94.6426C69.9187 92.5656 71.4926 86.7082 71.9979 84.0392L68.8421 83.1727C67.2848 85.5529 64.2383 91.0059 64.5105 93.7762Z" fill="#DEC585" stroke="#76563F" stroke-width="0.5" stroke-linecap="round" stroke-linejoin="round"/>
<path d="M81.9842 91.9261C81.8267 94.7418 79.8475 94.119 78.8776 93.4556C76.5499 91.8635 74.7429 86.3641 74.1303 83.8134L77.2369 82.2839C78.885 84.3247 82.1418 89.1103 81.9842 91.9261Z" fill="#DEC585" stroke="#76563F" stroke-width="0.5" stroke-linecap="round" stroke-linejoin="round"/>
<path d="M90.999 80.7346C93.0286 82.6396 91.0196 83.5481 89.7614 83.7642C86.7417 84.2828 81.1397 81.9585 78.7161 80.7315L79.9537 77.702C82.7898 77.9191 88.9694 78.8296 90.999 80.7346Z" fill="#DEC585" stroke="#76563F" stroke-width="0.5" stroke-linecap="round" stroke-linejoin="round"/>
<path d="M89.4301 67.6241C92.4579 67.5024 91.5959 69.41 90.7864 70.379C88.8437 72.7046 82.7282 74.9169 79.9133 75.7323L78.5569 72.9774C80.9197 71.2437 86.4022 67.7457 89.4301 67.6241Z" fill="#DEC585" stroke="#76563F" stroke-width="0.5" stroke-linecap="round" stroke-linejoin="round"/>
<path d="M78.1962 60.2744C80.4486 58.1974 81.2386 59.9866 81.352 61.1409C81.6243 63.9111 78.5777 69.3641 77.0204 71.7444L73.8646 70.8779C74.37 68.2089 75.9438 62.3515 78.1962 60.2744Z" fill="#DEC585" stroke="#76563F" stroke-width="0.5" stroke-linecap="round" stroke-linejoin="round"/>
<path d="M60.3164 65.2953C57.4538 64.5364 57.5516 66.4724 57.9584 67.5352C58.9346 70.0861 63.9635 73.4247 66.3559 74.7751L68.7138 72.5352C67.1074 70.438 63.179 66.0541 60.3164 65.2953Z" fill="#E8CD88" stroke="#76563F" stroke-width="0.5" stroke-linecap="round" stroke-linejoin="round"/>
<path d="M53.3619 77.5371C50.5925 78.8971 52.1785 80.1024 53.3177 80.5351C56.0518 81.5735 62.4828 80.4987 65.3565 79.8316L65.4007 76.8336C62.5417 76.5014 56.1313 76.1771 53.3619 77.5371Z" fill="#E8CD88" stroke="#76563F" stroke-width="0.5" stroke-linecap="round" stroke-linejoin="round"/>
<path d="M57.3537 89.8367C56.3923 92.5488 58.6095 92.3936 59.8383 91.9769C62.7874 90.9769 66.7699 86.1466 68.3925 83.8565L65.9079 81.7162C63.4571 83.293 58.3151 87.1245 57.3537 89.8367Z" fill="#E8CD88" stroke="#76563F" stroke-width="0.5" stroke-linecap="round" stroke-linejoin="round"/>
<path d="M69.967 95.2487C71.3495 97.6382 72.9131 96.1032 73.5222 95.037C74.9838 92.4782 74.2466 86.7546 73.6952 84.2126L70.14 84.4244C69.5063 87.0369 68.5844 92.8593 69.967 95.2487Z" fill="#E8CD88" stroke="#76563F" stroke-width="0.5" stroke-linecap="round" stroke-linejoin="round"/>
<path d="M86.3508 88.1466C87.327 90.6974 85.1856 90.7027 83.9928 90.3865C81.1302 89.6277 77.2018 85.2437 75.5954 83.1466L77.9534 80.9067C80.3458 82.2571 85.3746 85.5957 86.3508 88.1466Z" fill="#E8CD88" stroke="#76563F" stroke-width="0.5" stroke-linecap="round" stroke-linejoin="round"/>
<path d="M90.9916 75.1468C93.7256 76.1852 92.1013 77.5781 90.9474 78.1448C88.178 79.5048 81.7676 79.1804 78.9086 78.8483L78.9527 75.8503C81.8265 75.1831 88.2575 74.1084 90.9916 75.1468Z" fill="#E8CD88" stroke="#76563F" stroke-width="0.5" stroke-linecap="round" stroke-linejoin="round"/>
<path d="M84.471 63.7049C87.4201 62.7049 87.3562 64.715 86.9556 65.8451C85.9942 68.5573 80.8522 72.3888 78.4014 73.9655L75.9168 71.8253C77.5394 69.5352 81.5219 64.7049 84.471 63.7049Z" fill="#E8CD88" stroke="#76563F" stroke-width="0.5" stroke-linecap="round" stroke-linejoin="round"/>
<path d="M70.787 60.6448C72.2487 58.086 73.7662 59.4375 74.3422 60.4331C75.7248 62.8226 74.8029 68.645 74.1691 71.2575L70.6139 71.4692C70.0626 68.9273 69.3254 63.2037 70.787 60.6448Z" fill="#E8CD88" stroke="#76563F" stroke-width="0.5" stroke-linecap="round" stroke-linejoin="round"/>
<path d="M79.8467 73.8112C81.6463 77.4665 79.7765 82.1239 75.585 84.1876C71.3934 86.2513 66.5619 84.8933 64.7622 81.238C62.9625 77.5827 64.8324 72.9253 69.0239 70.8616C73.2155 68.7979 78.047 70.1559 79.8467 73.8112Z" fill="#76563F" stroke="#76563F" stroke-width="0.5"/>
<path d="M77.7923 74.7314C79.0997 77.3867 77.7448 80.7834 74.6809 82.2919C71.6169 83.8005 68.0987 82.803 66.7913 80.1477C65.4839 77.4924 66.8388 74.0956 69.9027 72.5871C72.9667 71.0786 76.4849 72.076 77.7923 74.7314Z" fill="#A78268" stroke="#76563F" stroke-width="0.5"/>
<path d="M85.9853 78.4616C83.6575 76.8695 82.9443 78.8179 82.8786 79.9912C82.7211 82.8069 85.9779 87.5925 87.626 89.6334L90.7326 88.1038C90.12 85.5531 88.313 80.0537 85.9853 78.4616Z" fill="#DEC585" stroke="#76563F" stroke-width="0.5" stroke-linecap="round" stroke-linejoin="round"/>
<path d="M75.1015 88.153C72.0818 88.6717 73.0182 90.3888 73.8639 91.1826C75.8935 93.0876 82.0731 93.9981 84.9092 94.2153L86.1468 91.1857C83.7232 89.9587 78.1211 87.6344 75.1015 88.153Z" fill="#DEC585" stroke="#76563F" stroke-width="0.5" stroke-linecap="round" stroke-linejoin="round"/>
<path d="M74.0765 101.538C72.1338 103.864 74.1713 104.344 75.4329 104.293C78.4608 104.172 83.9433 100.674 86.306 98.9398L84.9497 96.1849C82.1348 97.0003 76.0193 99.2127 74.0765 101.538Z" fill="#DEC585" stroke="#76563F" stroke-width="0.5" stroke-linecap="round" stroke-linejoin="round"/>
<path d="M83.5108 110.776C83.783 113.547 85.7281 112.508 86.6666 111.643C88.919 109.566 90.4928 103.708 90.9982 101.039L87.8424 100.173C86.2851 102.553 83.2385 108.006 83.5108 110.776Z" fill="#DEC585" stroke="#76563F" stroke-width="0.5" stroke-linecap="round" stroke-linejoin="round"/>
<path d="M100.984 108.926C100.827 111.742 98.8478 111.119 97.8779 110.456C95.5501 108.864 93.7431 103.364 93.1306 100.814L96.2372 99.284C97.8852 101.325 101.142 106.111 100.984 108.926Z" fill="#DEC585" stroke="#76563F" stroke-width="0.5" stroke-linecap="round" stroke-linejoin="round"/>
<path d="M109.999 97.7348C112.029 99.6398 110.02 100.548 108.762 100.764C105.742 101.283 100.14 98.9587 97.7163 97.7317L98.9539 94.7021C101.79 94.9193 107.97 95.8298 109.999 97.7348Z" fill="#DEC585" stroke="#76563F" stroke-width="0.5" stroke-linecap="round" stroke-linejoin="round"/>
<path d="M108.43 84.6242C111.458 84.5026 110.596 86.4102 109.787 87.3792C107.844 89.7048 101.728 91.9171 98.9135 92.7325L97.5572 89.9776C99.9199 88.2438 105.402 84.7459 108.43 84.6242Z" fill="#DEC585" stroke="#76563F" stroke-width="0.5" stroke-linecap="round" stroke-linejoin="round"/>
<path d="M97.1965 77.2746C99.4489 75.1976 100.239 76.9868 100.352 78.1411C100.625 80.9113 97.578 86.3643 96.0207 88.7446L92.8649 87.8781C93.3702 85.209 94.9441 79.3517 97.1965 77.2746Z" fill="#DEC585" stroke="#76563F" stroke-width="0.5" stroke-linecap="round" stroke-linejoin="round"/>
<path d="M79.3166 82.2954C76.454 81.5366 76.5519 83.4726 76.9586 84.5354C77.9349 87.0863 82.9637 90.4249 85.3561 91.7753L87.7141 89.5353C86.1077 87.4382 82.1792 83.0543 79.3166 82.2954Z" fill="#E8CD88" stroke="#76563F" stroke-width="0.5" stroke-linecap="round" stroke-linejoin="round"/>
<path d="M72.3621 94.5373C69.5927 95.8973 71.1787 97.1026 72.3179 97.5353C75.052 98.5737 81.483 97.4989 84.3568 96.8317L84.4009 93.8337C81.5419 93.5016 75.1315 93.1773 72.3621 94.5373Z" fill="#E8CD88" stroke="#76563F" stroke-width="0.5" stroke-linecap="round" stroke-linejoin="round"/>
<path d="M76.3539 106.837C75.3925 109.549 77.6098 109.394 78.8386 108.977C81.7877 107.977 85.7702 103.147 87.3928 100.857L84.9081 98.7164C82.4573 100.293 77.3153 104.125 76.3539 106.837Z" fill="#E8CD88" stroke="#76563F" stroke-width="0.5" stroke-linecap="round" stroke-linejoin="round"/>
<path d="M88.9672 112.249C90.3497 114.638 91.9134 113.103 92.5224 112.037C93.9841 109.478 93.2468 103.755 92.6955 101.213L89.1403 101.425C88.5065 104.037 87.5847 109.859 88.9672 112.249Z" fill="#E8CD88" stroke="#76563F" stroke-width="0.5" stroke-linecap="round" stroke-linejoin="round"/>
<path d="M105.351 105.147C106.327 107.698 104.186 107.703 102.993 107.387C100.13 106.628 96.202 102.244 94.5956 100.147L96.9536 97.9068C99.346 99.2573 104.375 102.596 105.351 105.147Z" fill="#E8CD88" stroke="#76563F" stroke-width="0.5" stroke-linecap="round" stroke-linejoin="round"/>
<path d="M109.992 92.1469C112.726 93.1853 111.102 94.5783 109.948 95.1449C107.178 96.5049 100.768 96.1806 97.9088 95.8484L97.953 92.8504C100.827 92.1833 107.258 91.1085 109.992 92.1469Z" fill="#E8CD88" stroke="#76563F" stroke-width="0.5" stroke-linecap="round" stroke-linejoin="round"/>
<path d="M103.471 80.7051C106.42 79.7051 106.356 81.7152 105.956 82.8453C104.994 85.5575 99.8525 89.389 97.4016 90.9657L94.917 88.8255C96.5396 86.5354 100.522 81.7051 103.471 80.7051Z" fill="#E8CD88" stroke="#76563F" stroke-width="0.5" stroke-linecap="round" stroke-linejoin="round"/>
<path d="M89.7873 77.645C91.2489 75.0862 92.7664 76.4377 93.3425 77.4333C94.725 79.8227 93.8031 85.6451 93.1694 88.2577L89.6142 88.4694C89.0629 85.9274 88.3256 80.2038 89.7873 77.645Z" fill="#E8CD88" stroke="#76563F" stroke-width="0.5" stroke-linecap="round" stroke-linejoin="round"/>
<path d="M98.8469 90.8114C100.647 94.4667 98.7767 99.1241 94.5852 101.188C90.3936 103.251 85.5621 101.893 83.7625 98.2382C81.9628 94.5829 83.8326 89.9255 88.0242 87.8618C92.2157 85.7981 97.0472 87.1561 98.8469 90.8114Z" fill="#76563F" stroke="#76563F" stroke-width="0.5"/>
<path d="M96.7925 91.7316C98.0999 94.3869 96.7451 97.7836 93.6811 99.2921C90.6172 100.801 87.0989 99.8032 85.7915 97.1479C84.4842 94.4925 85.839 91.0958 88.903 89.5873C91.9669 88.0788 95.4852 89.0762 96.7925 91.7316Z" fill="#A78268" stroke="#76563F" stroke-width="0.5"/>
<path d="M129.985 52.4616C127.658 50.8695 126.944 52.8179 126.879 53.9912C126.721 56.8069 129.978 61.5925 131.626 63.6334L134.733 62.1038C134.12 59.5531 132.313 54.0537 129.985 52.4616Z" fill="#DEC585" stroke="#76563F" stroke-width="0.5" stroke-linecap="round" stroke-linejoin="round"/>
<path d="M119.101 62.153C116.082 62.6717 117.018 64.3888 117.864 65.1826C119.893 67.0876 126.073 67.9981 128.909 68.2153L130.147 65.1857C127.723 63.9587 122.121 61.6344 119.101 62.153Z" fill="#DEC585" stroke="#76563F" stroke-width="0.5" stroke-linecap="round" stroke-linejoin="round"/>
<path d="M118.077 75.5382C116.134 77.8638 118.171 78.3439 119.433 78.2932C122.461 78.1715 127.943 74.6735 130.306 72.9398L128.95 70.1849C126.135 71.0003 120.019 73.2127 118.077 75.5382Z" fill="#DEC585" stroke="#76563F" stroke-width="0.5" stroke-linecap="round" stroke-linejoin="round"/>
<path d="M127.511 84.7764C127.783 87.5466 129.728 86.5083 130.667 85.6428C132.919 83.5658 134.493 77.7084 134.998 75.0394L131.842 74.1729C130.285 76.5531 127.239 82.0061 127.511 84.7764Z" fill="#DEC585" stroke="#76563F" stroke-width="0.5" stroke-linecap="round" stroke-linejoin="round"/>
<path d="M144.984 82.9263C144.827 85.742 142.848 85.1192 141.878 84.4558C139.55 82.8637 137.743 77.3643 137.13 74.8136L140.237 73.284C141.885 75.3249 145.142 80.1105 144.984 82.9263Z" fill="#DEC585" stroke="#76563F" stroke-width="0.5" stroke-linecap="round" stroke-linejoin="round"/>
<path d="M153.999 71.7348C156.029 73.6398 154.02 74.5483 152.762 74.7644C149.742 75.283 144.14 72.9587 141.716 71.7317L142.954 68.7021C145.79 68.9193 151.97 69.8298 153.999 71.7348Z" fill="#DEC585" stroke="#76563F" stroke-width="0.5" stroke-linecap="round" stroke-linejoin="round"/>
<path d="M152.43 58.6242C155.458 58.5026 154.596 60.4102 153.787 61.3792C151.844 63.7048 145.728 65.9171 142.914 66.7325L141.557 63.9776C143.92 62.2438 149.402 58.7459 152.43 58.6242Z" fill="#DEC585" stroke="#76563F" stroke-width="0.5" stroke-linecap="round" stroke-linejoin="round"/>
<path d="M141.196 51.2746C143.449 49.1976 144.239 50.9868 144.352 52.1411C144.625 54.9113 141.578 60.3643 140.021 62.7446L136.865 61.8781C137.37 59.209 138.944 53.3517 141.196 51.2746Z" fill="#DEC585" stroke="#76563F" stroke-width="0.5" stroke-linecap="round" stroke-linejoin="round"/>
<path d="M123.317 56.2954C120.454 55.5366 120.552 57.4726 120.959 58.5354C121.935 61.0863 126.964 64.4249 129.356 65.7753L131.714 63.5353C130.108 61.4382 126.179 57.0543 123.317 56.2954Z" fill="#E8CD88" stroke="#76563F" stroke-width="0.5" stroke-linecap="round" stroke-linejoin="round"/>
<path d="M116.362 68.5373C113.593 69.8973 115.179 71.1026 116.318 71.5353C119.052 72.5737 125.483 71.4989 128.357 70.8317L128.401 67.8337C125.542 67.5016 119.131 67.1773 116.362 68.5373Z" fill="#E8CD88" stroke="#76563F" stroke-width="0.5" stroke-linecap="round" stroke-linejoin="round"/>
<path d="M120.354 80.8368C119.392 83.549 121.61 83.3937 122.838 82.9771C125.788 81.9771 129.77 77.1468 131.393 74.8566L128.908 72.7164C126.457 74.2931 121.315 78.1247 120.354 80.8368Z" fill="#E8CD88" stroke="#76563F" stroke-width="0.5" stroke-linecap="round" stroke-linejoin="round"/>
<path d="M132.967 86.2489C134.35 88.6384 135.914 87.1034 136.523 86.0372C137.984 83.4784 137.247 77.7548 136.696 75.2128L133.14 75.4245C132.507 78.0371 131.585 83.8595 132.967 86.2489Z" fill="#E8CD88" stroke="#76563F" stroke-width="0.5" stroke-linecap="round" stroke-linejoin="round"/>
<path d="M149.351 79.1467C150.327 81.6976 148.186 81.7029 146.993 81.3867C144.131 80.6279 140.202 76.2439 138.596 74.1468L140.954 71.9068C143.346 73.2573 148.375 76.5959 149.351 79.1467Z" fill="#E8CD88" stroke="#76563F" stroke-width="0.5" stroke-linecap="round" stroke-linejoin="round"/>
<path d="M153.992 66.1469C156.726 67.1853 155.102 68.5783 153.948 69.1449C151.178 70.5049 144.768 70.1806 141.909 69.8484L141.953 66.8504C144.827 66.1833 151.258 65.1085 153.992 66.1469Z" fill="#E8CD88" stroke="#76563F" stroke-width="0.5" stroke-linecap="round" stroke-linejoin="round"/>
<path d="M147.471 54.7051C150.42 53.7051 150.356 55.7152 149.956 56.8453C148.994 59.5575 143.852 63.389 141.402 64.9657L138.917 62.8255C140.54 60.5354 144.522 55.7051 147.471 54.7051Z" fill="#E8CD88" stroke="#76563F" stroke-width="0.5" stroke-linecap="round" stroke-linejoin="round"/>
<path d="M133.787 51.645C135.249 49.0862 136.767 50.4377 137.343 51.4333C138.725 53.8227 137.803 59.6451 137.17 62.2577L133.614 62.4694C133.063 59.9274 132.326 54.2038 133.787 51.645Z" fill="#E8CD88" stroke="#76563F" stroke-width="0.5" stroke-linecap="round" stroke-linejoin="round"/>
<path d="M142.847 64.8114C144.647 68.4667 142.777 73.1241 138.585 75.1878C134.394 77.2515 129.562 75.8935 127.762 72.2382C125.963 68.5829 127.833 63.9255 132.024 61.8618C136.216 59.7981 141.047 61.1561 142.847 64.8114Z" fill="#76563F" stroke="#76563F" stroke-width="0.5"/>
<path d="M140.793 65.7316C142.1 68.3869 140.745 71.7836 137.681 73.2921C134.617 74.8007 131.099 73.8032 129.792 71.1479C128.484 68.4925 129.839 65.0958 132.903 63.5873C135.967 62.0788 139.485 63.0762 140.793 65.7316Z" fill="#A78268" stroke="#76563F" stroke-width="0.5"/>
<path d="M97.7133 23.2005C95.0231 22.3545 94.9076 24.4261 95.1861 25.5677C95.8546 28.3075 100.363 31.9385 102.533 33.4116L105.061 31.0444C103.732 28.7823 100.404 24.0465 97.7133 23.2005Z" fill="#DEC585" stroke="#76563F" stroke-width="0.5" stroke-linecap="round" stroke-linejoin="round"/>
<path d="M90.1199 35.6392C87.3818 37.0139 88.7773 38.3844 89.8173 38.8977C92.3134 40.1298 98.4906 39.2031 101.267 38.5857L101.57 35.3271C98.8941 34.8583 92.8581 34.2644 90.1199 35.6392Z" fill="#DEC585" stroke="#76563F" stroke-width="0.5" stroke-linecap="round" stroke-linejoin="round"/>
<path d="M93.0336 48.7435C91.8515 51.5337 93.9405 51.4002 95.1328 50.9847C97.9943 49.9873 102.222 45.0456 103.978 42.6994L101.879 40.4583C99.423 42.0575 94.2157 45.9533 93.0336 48.7435Z" fill="#DEC585" stroke="#76563F" stroke-width="0.5" stroke-linecap="round" stroke-linejoin="round"/>
<path d="M104.748 54.8372C105.814 57.4084 107.373 55.8491 108.019 54.7481C109.57 52.1055 109.371 46.0437 109.078 43.343L105.807 43.4322C105.009 46.1625 103.681 52.266 104.748 54.8372Z" fill="#DEC585" stroke="#76563F" stroke-width="0.5" stroke-linecap="round" stroke-linejoin="round"/>
<path d="M120.927 47.9834C121.596 50.7231 119.521 50.7031 118.4 50.3506C115.71 49.5046 112.381 44.7688 111.053 42.5067L113.58 40.1395C115.75 41.6125 120.259 45.2436 120.927 47.9834Z" fill="#DEC585" stroke="#76563F" stroke-width="0.5" stroke-linecap="round" stroke-linejoin="round"/>
<path d="M126.296 34.6533C128.792 35.8854 127.134 37.339 125.993 37.9119C123.255 39.2866 117.219 38.6927 114.543 38.2239L114.846 34.9653C117.623 34.3479 123.8 33.4212 126.296 34.6533Z" fill="#DEC585" stroke="#76563F" stroke-width="0.5" stroke-linecap="round" stroke-linejoin="round"/>
<path d="M120.98 22.5663C123.842 21.569 123.572 23.6449 123.079 24.8074C121.897 27.5977 116.69 31.4935 114.234 33.0927L112.135 30.8516C113.891 28.5054 118.119 23.5636 120.98 22.5663Z" fill="#DEC585" stroke="#76563F" stroke-width="0.5" stroke-linecap="round" stroke-linejoin="round"/>
<path d="M108.094 18.803C109.645 16.1605 110.921 17.6425 111.366 18.7138C112.432 21.285 111.104 27.3885 110.306 30.1189L107.035 30.208C106.742 27.5074 106.544 21.4455 108.094 18.803Z" fill="#DEC585" stroke="#76563F" stroke-width="0.5" stroke-linecap="round" stroke-linejoin="round"/>
<path d="M92.4485 28.8086C89.4889 28.9155 90.1458 30.7392 90.8442 31.6378C92.5203 33.7942 98.303 35.5253 100.985 36.1213L102.589 33.2922C100.442 31.7532 95.408 28.7018 92.4485 28.8086Z" fill="#E8CD88" stroke="#76563F" stroke-width="0.5" stroke-linecap="round" stroke-linejoin="round"/>
<path d="M89.3564 42.5442C87.1025 44.6511 88.9706 45.3429 90.1864 45.4254C93.1043 45.6234 98.9444 42.7241 101.5 41.2497L100.67 38.3686C97.8378 38.8826 91.6103 40.4373 89.3564 42.5442Z" fill="#E8CD88" stroke="#76563F" stroke-width="0.5" stroke-linecap="round" stroke-linejoin="round"/>
<path d="M96.754 53.1504C96.6233 56.025 98.6994 55.2313 99.7538 54.4752C102.284 52.6604 104.689 46.8804 105.575 44.2172L102.576 42.8925C100.69 45.114 96.8847 50.2758 96.754 53.1504Z" fill="#E8CD88" stroke="#76563F" stroke-width="0.5" stroke-linecap="round" stroke-linejoin="round"/>
<path d="M110.396 54.6586C112.414 56.5425 113.464 54.619 113.736 53.4217C114.39 50.5483 112.019 45.2868 110.752 43.0152L107.413 44.2521C107.566 46.936 108.378 52.7748 110.396 54.6586Z" fill="#E8CD88" stroke="#76563F" stroke-width="0.5" stroke-linecap="round" stroke-linejoin="round"/>
<path d="M124.005 43.097C125.681 45.2534 123.634 45.8816 122.401 45.9261C119.441 46.0329 114.407 42.9815 112.26 41.4425L113.865 38.6134C116.546 39.2094 122.329 40.9405 124.005 43.097Z" fill="#E8CD88" stroke="#76563F" stroke-width="0.5" stroke-linecap="round" stroke-linejoin="round"/>
<path d="M124.663 29.3093C127.581 29.5073 126.432 31.3126 125.493 32.1905C123.239 34.2974 117.011 35.8521 114.18 36.3661L113.35 33.485C115.905 32.0106 121.745 29.1113 124.663 29.3093Z" fill="#E8CD88" stroke="#76563F" stroke-width="0.5" stroke-linecap="round" stroke-linejoin="round"/>
<path d="M115.096 20.2595C117.626 18.4447 118.15 20.3865 118.095 21.5843C117.965 24.4588 114.16 29.6206 112.274 31.8422L109.274 30.5174C110.16 27.8543 112.565 22.0743 115.096 20.2595Z" fill="#E8CD88" stroke="#76563F" stroke-width="0.5" stroke-linecap="round" stroke-linejoin="round"/>
<path d="M101.113 21.313C101.767 18.4396 103.612 19.2911 104.453 20.0761C106.471 21.9599 107.283 27.7987 107.437 30.4826L104.097 31.7195C102.83 29.4479 100.459 24.1864 101.113 21.313Z" fill="#E8CD88" stroke="#76563F" stroke-width="0.5" stroke-linecap="round" stroke-linejoin="round"/>
<path d="M113.612 31.274C116.397 34.2476 115.963 39.2476 112.553 42.4415C109.143 45.6354 104.126 45.7418 101.34 42.7682C98.5551 39.7947 98.989 34.7947 102.399 31.6008C105.809 28.4069 110.826 28.3005 113.612 31.274Z" fill="#76563F" stroke="#76563F" stroke-width="0.5"/>
<path d="M111.914 32.7521C113.937 34.9122 113.629 38.5562 111.137 40.8909C108.644 43.2255 104.988 43.2949 102.965 41.1348C100.941 38.9746 101.249 35.3307 103.742 32.996C106.234 30.6613 109.89 30.592 111.914 32.7521Z" fill="#A78268" stroke="#76563F" stroke-width="0.5"/>
<path d="M50.6736 23.9186C47.8549 23.8278 48.3013 25.8541 48.8768 26.8786C50.258 29.3374 55.5771 31.6211 58.0641 32.4556L59.8609 29.4956C57.9729 27.6744 53.4923 24.0093 50.6736 23.9186Z" fill="#DEC585" stroke="#76563F" stroke-width="0.5" stroke-linecap="round" stroke-linejoin="round"/>
<path d="M46.7083 37.942C44.4411 40.0029 46.154 40.9472 47.2938 41.1617C50.0293 41.6766 55.7292 39.1215 58.2372 37.7796L57.6516 34.5598C54.9485 34.8284 48.9754 35.881 46.7083 37.942Z" fill="#DEC585" stroke="#76563F" stroke-width="0.5" stroke-linecap="round" stroke-linejoin="round"/>
<path d="M53.0413 49.7786C52.6538 52.784 54.6298 52.0932 55.6662 51.3721C58.1537 49.6414 60.8953 43.7442 61.9552 41.0119L59.3303 39.4185C57.3954 41.6196 53.4288 46.7732 53.0413 49.7786Z" fill="#DEC585" stroke="#76563F" stroke-width="0.5" stroke-linecap="round" stroke-linejoin="round"/>
<path d="M65.9631 52.4947C67.6822 54.684 68.7638 52.7627 69.0897 51.5284C69.872 48.5661 68.0494 42.7813 67.0403 40.2592L63.9137 41.2255C63.8805 44.0697 64.244 50.3054 65.9631 52.4947Z" fill="#DEC585" stroke="#76563F" stroke-width="0.5" stroke-linecap="round" stroke-linejoin="round"/>
<path d="M79.701 41.5393C81.0822 43.998 79.0786 44.5371 77.9041 44.4993C75.0854 44.4086 70.6048 40.7435 68.7168 38.9222L70.5137 35.9622C73.0006 36.7968 78.3198 39.0805 79.701 41.5393Z" fill="#DEC585" stroke="#76563F" stroke-width="0.5" stroke-linecap="round" stroke-linejoin="round"/>
<path d="M81.2839 27.2561C84.0195 27.7709 82.8141 29.6171 81.8694 30.4759C79.6023 32.5368 73.6292 33.5894 70.9261 33.858L70.3405 30.6382C72.8485 29.2963 78.5483 26.7412 81.2839 27.2561Z" fill="#DEC585" stroke="#76563F" stroke-width="0.5" stroke-linecap="round" stroke-linejoin="round"/>
<path d="M72.9115 17.0458C75.399 15.3151 75.6979 17.3869 75.5365 18.6392C75.149 21.6446 71.1823 26.7982 69.2475 28.9993L66.6225 27.4059C67.6824 24.6736 70.4241 18.7764 72.9115 17.0458Z" fill="#DEC585" stroke="#76563F" stroke-width="0.5" stroke-linecap="round" stroke-linejoin="round"/>
<path d="M59.4879 16.8894C60.2702 13.9271 61.8983 15.0109 62.6146 15.9231C64.3337 18.1124 64.6971 24.3482 64.664 27.1924L61.5373 28.1587C60.5283 25.6366 58.7057 19.8518 59.4879 16.8894Z" fill="#DEC585" stroke="#76563F" stroke-width="0.5" stroke-linecap="round" stroke-linejoin="round"/>
<path d="M47.1126 30.7368C44.291 31.6362 45.4145 33.2159 46.3289 33.8933C48.5236 35.5191 54.5588 35.6299 57.302 35.4822L58.0857 32.3257C55.6037 31.4213 49.9342 29.8374 47.1126 30.7368Z" fill="#E8CD88" stroke="#76563F" stroke-width="0.5" stroke-linecap="round" stroke-linejoin="round"/>
<path d="M47.8314 44.7977C46.2277 47.4335 48.2131 47.5969 49.4062 47.3492C52.2698 46.7546 57.1141 42.3904 59.1783 40.2827L57.6035 37.7312C55.0144 38.9885 49.4351 42.1619 47.8314 44.7977Z" fill="#E8CD88" stroke="#76563F" stroke-width="0.5" stroke-linecap="round" stroke-linejoin="round"/>
<path d="M57.8106 53.0215C58.4583 55.8252 60.2443 54.5021 61.0563 53.49C63.0051 51.0611 63.7656 44.8472 63.9023 42.0438L60.6566 41.5753C59.438 44.2225 57.1628 50.2178 57.8106 53.0215Z" fill="#E8CD88" stroke="#76563F" stroke-width="0.5" stroke-linecap="round" stroke-linejoin="round"/>
<path d="M71.3553 50.8025C73.8058 52.0737 74.2988 49.9387 74.239 48.7123C74.0955 45.7689 70.3963 41.3396 68.5646 39.4928L65.681 41.583C66.5514 44.1264 68.9049 49.5312 71.3553 50.8025Z" fill="#E8CD88" stroke="#76563F" stroke-width="0.5" stroke-linecap="round" stroke-linejoin="round"/>
<path d="M81.3503 36.0047C83.545 37.6305 81.7423 38.7864 80.5667 39.1612C77.7451 40.0606 72.0756 38.4767 69.5936 37.5723L70.3772 34.4158C73.1205 34.268 79.1556 34.3789 81.3503 36.0047Z" fill="#E8CD88" stroke="#76563F" stroke-width="0.5" stroke-linecap="round" stroke-linejoin="round"/>
<path d="M78.273 22.5488C81.1366 21.9542 80.5161 24.002 79.8479 25.1003C78.2442 27.736 72.6649 30.9095 70.0758 32.1667L68.501 29.6153C70.5652 27.5075 75.4095 23.1434 78.273 22.5488Z" fill="#E8CD88" stroke="#76563F" stroke-width="0.5" stroke-linecap="round" stroke-linejoin="round"/>
<path d="M66.623 16.4079C68.5718 13.979 69.5988 15.7082 69.8687 16.8764C70.5164 19.6801 68.2412 25.6754 67.0227 28.3226L63.777 27.8541C63.9137 25.0507 64.6742 18.8368 66.623 16.4079Z" fill="#E8CD88" stroke="#76563F" stroke-width="0.5" stroke-linecap="round" stroke-linejoin="round"/>
<path d="M53.4402 21.1857C53.2967 18.2423 55.3029 18.5658 56.3239 19.0955C58.7743 20.3668 61.1278 25.7715 61.9982 28.315L59.1146 30.4052C57.2829 28.5584 53.5837 24.1291 53.4402 21.1857Z" fill="#E8CD88" stroke="#76563F" stroke-width="0.5" stroke-linecap="round" stroke-linejoin="round"/>
<path d="M68.1582 27.4154C71.6411 29.5296 72.5688 34.4618 70.1444 38.4556C67.7201 42.4494 62.9162 43.9024 59.4334 41.7881C55.9506 39.6739 55.0228 34.7417 57.4472 30.7479C59.8716 26.7541 64.6754 25.3012 68.1582 27.4154Z" fill="#76563F" stroke="#76563F" stroke-width="0.5"/>
<path d="M66.9209 29.2958C69.451 30.8317 70.1351 34.424 68.3629 37.3434C66.5907 40.2628 63.088 41.3136 60.558 39.7778C58.0279 38.2419 57.3438 34.6495 59.116 31.7302C60.8881 28.8108 64.3909 27.76 66.9209 29.2958Z" fill="#A78268" stroke="#76563F" stroke-width="0.5"/>
</svg>
