<svg width="150" height="163" viewBox="0 0 150 163" fill="none" xmlns="http://www.w3.org/2000/svg">
<path d="M8.5 55.5L28 123M28 43L35.5 131.5M30.5 32.5V131.5M45.5 60.5L40.5 139M56.5 77.5L45.5 143.5M86 60.5L55.1758 145.5M53 151.5L55.1758 145.5M138 40.5L61 154M107.5 30L66.7665 145.5M70 20.5L53 143.5M59 8.5L55.1758 145.5M61 39L56.5 158.5" stroke="#97CA8E" stroke-width="0.5" stroke-linecap="round" stroke-linejoin="round"/>
<path d="M5.49595 48.6755C3.71196 50.5361 7.24799 53.1295 8.124 53.8148L9.00002 54.5L9.87599 53.8148C10.7521 53.1295 14.288 50.5361 12.504 48.6755C11.19 47.3051 9.146 48.3329 9 49.0181C8.85399 48.3329 6.81 47.305 5.49595 48.6755Z" fill="#9CCB7F"/>
<path d="M9 49.0181C8.85399 48.3329 6.81 47.305 5.49595 48.6755C3.71196 50.5361 7.24799 53.1295 8.124 53.8148L9.00002 54.5L9.87599 53.8148C10.7521 53.1295 14.288 50.5361 12.504 48.6755C11.19 47.3051 9.146 48.3329 9 49.0181ZM9 49.0181C8.854 49.475 8.64962 50.5942 9.00002 51.4165" stroke="#55794F" stroke-width="0.1" stroke-linecap="round" stroke-linejoin="round"/>
<path d="M1.83141 51.653C4.12137 50.2035 7.31327 53.0765 8.15663 53.7883L9 54.5L8.15664 55.2117C7.31327 55.9235 4.12138 58.7965 1.83142 57.347C0.144681 56.2794 1.40974 54.6186 2.2531 54.5C1.40974 54.3814 0.144675 52.7206 1.83141 51.653Z" fill="#9CCB7F"/>
<path d="M2.2531 54.5C1.40974 54.3814 0.144675 52.7206 1.83141 51.653C4.12137 50.2035 7.31327 53.0765 8.15663 53.7883L9 54.5L8.15664 55.2117C7.31327 55.9235 4.12138 58.7965 1.83142 57.347C0.144681 56.2794 1.40974 54.6186 2.2531 54.5ZM2.2531 54.5C2.81534 54.3814 4.19283 54.2153 5.20487 54.5" stroke="#55794F" stroke-width="0.1" stroke-linecap="round" stroke-linejoin="round"/>
<path d="M5.49595 60.3245C3.71196 58.4639 7.24799 55.8705 8.124 55.1852L9.00002 54.5L9.87599 55.1852C10.7521 55.8705 14.288 58.4639 12.504 60.3245C11.19 61.6949 9.146 60.6671 9 59.9819C8.85399 60.6671 6.81 61.695 5.49595 60.3245Z" fill="#9CCB7F"/>
<path d="M9 59.9819C8.85399 60.6671 6.81 61.695 5.49595 60.3245C3.71196 58.4639 7.24799 55.8705 8.124 55.1852L9.00002 54.5L9.87599 55.1852C10.7521 55.8705 14.288 58.4639 12.504 60.3245C11.19 61.6949 9.146 60.6671 9 59.9819ZM9 59.9819C8.854 59.525 8.64962 58.4058 9.00002 57.5835" stroke="#55794F" stroke-width="0.1" stroke-linecap="round" stroke-linejoin="round"/>
<path d="M16.1686 51.653C13.8786 50.2035 10.6867 53.0765 9.84337 53.7883L9 54.5L9.84336 55.2117C10.6867 55.9235 13.8786 58.7965 16.1686 57.347C17.8553 56.2794 16.5903 54.6186 15.7469 54.5C16.5903 54.3814 17.8553 52.7206 16.1686 51.653Z" fill="#9CCB7F"/>
<path d="M15.7469 54.5C16.5903 54.3814 17.8553 52.7206 16.1686 51.653C13.8786 50.2035 10.6867 53.0765 9.84337 53.7883L9 54.5L9.84336 55.2117C10.6867 55.9235 13.8786 58.7965 16.1686 57.347C17.8553 56.2794 16.5903 54.6186 15.7469 54.5ZM15.7469 54.5C15.1847 54.3814 13.8072 54.2153 12.7951 54.5" stroke="#55794F" stroke-width="0.1" stroke-linecap="round" stroke-linejoin="round"/>
<path d="M45.9797 53.9398C43.4754 54.5506 45.0645 58.6377 45.4352 59.6863L45.8059 60.7349L46.9128 60.6276C48.0198 60.5203 52.3955 60.2327 51.8904 57.7049C51.5184 55.8431 49.2423 55.6118 48.751 56.1113C48.996 55.455 47.8243 53.4899 45.9797 53.9398Z" fill="#9CCB7F"/>
<path d="M48.751 56.1113C48.996 55.455 47.8243 53.4899 45.9797 53.9398C43.4754 54.5506 45.0645 58.6377 45.4352 59.6863L45.8059 60.7349L46.9128 60.6276C48.0198 60.5203 52.3955 60.2327 51.8904 57.7049C51.5184 55.8431 49.2423 55.6118 48.751 56.1113ZM48.751 56.1113C48.3824 56.4182 47.6087 57.2524 47.4625 58.1341" stroke="#55794F" stroke-width="0.1" stroke-linecap="round" stroke-linejoin="round"/>
<path d="M41.2893 54.4823C43.9994 54.49 45.148 58.628 45.4769 59.6815L45.8058 60.7349L44.7122 60.8821C43.6184 61.0293 39.3828 61.7376 38.2301 59.2847C37.3811 57.4781 39.3403 56.757 40.1154 57.1101C39.4678 56.5569 39.2931 54.4765 41.2893 54.4823Z" fill="#9CCB7F"/>
<path d="M40.1154 57.1101C39.4678 56.5569 39.2931 54.4765 41.2893 54.4823C43.9994 54.49 45.148 58.628 45.4769 59.6815L45.8058 60.7349L44.7122 60.8821C43.6184 61.0293 39.3828 61.7376 38.2301 59.2847C37.3811 57.4781 39.3403 56.757 40.1154 57.1101ZM40.1154 57.1101C40.6533 57.3121 41.9043 57.9121 42.6049 58.6959" stroke="#55794F" stroke-width="0.1" stroke-linecap="round" stroke-linejoin="round"/>
<path d="M39.7213 63.7648C39.2162 61.237 43.5919 60.9494 44.6989 60.8422L45.8059 60.7349L46.1766 61.7834C46.5473 62.832 48.1363 66.9191 45.632 67.5299C43.7875 67.9798 42.6157 66.0147 42.8607 65.3583C42.3695 65.8578 40.0933 65.6266 39.7213 63.7648Z" fill="#9CCB7F"/>
<path d="M42.8607 65.3583C42.3695 65.8578 40.0933 65.6266 39.7213 63.7648C39.2162 61.237 43.5919 60.9494 44.6989 60.8422L45.8059 60.7349L46.1766 61.7834C46.5473 62.832 48.1363 66.9191 45.632 67.5299C43.7875 67.9798 42.6157 66.0147 42.8607 65.3583ZM42.8607 65.3583C42.983 64.8946 43.412 63.8408 44.1493 63.3356" stroke="#55794F" stroke-width="0.1" stroke-linecap="round" stroke-linejoin="round"/>
<path d="M53.3816 62.185C52.2289 59.7321 47.9933 60.4404 46.8996 60.5877L45.8059 60.7349L46.1348 61.7883C46.4637 62.8417 47.6123 66.9797 50.3224 66.9875C52.3187 66.9932 52.1439 64.9128 51.4963 64.3597C52.2714 64.7127 54.2306 63.9917 53.3816 62.185Z" fill="#9CCB7F"/>
<path d="M51.4963 64.3597C52.2714 64.7127 54.2306 63.9917 53.3816 62.185C52.2289 59.7321 47.9933 60.4404 46.8996 60.5877L45.8059 60.7349L46.1348 61.7883C46.4637 62.8417 47.6123 66.9797 50.3224 66.9875C52.3187 66.9932 52.1439 64.9128 51.4963 64.3597ZM51.4963 64.3597C51.0859 63.9575 50.0133 63.0774 49.0068 62.7738" stroke="#55794F" stroke-width="0.1" stroke-linecap="round" stroke-linejoin="round"/>
<path d="M52.496 70.6755C50.712 72.5361 54.248 75.1295 55.124 75.8148L56 76.5L56.876 75.8148C57.7521 75.1295 61.288 72.5361 59.504 70.6755C58.19 69.3051 56.146 70.3329 56 71.0181C55.854 70.3329 53.81 69.305 52.496 70.6755Z" fill="#9CCB7F"/>
<path d="M56 71.0181C55.854 70.3329 53.81 69.305 52.496 70.6755C50.712 72.5361 54.248 75.1295 55.124 75.8148L56 76.5L56.876 75.8148C57.7521 75.1295 61.288 72.5361 59.504 70.6755C58.19 69.3051 56.146 70.3329 56 71.0181ZM56 71.0181C55.854 71.475 55.6496 72.5942 56 73.4165" stroke="#55794F" stroke-width="0.1" stroke-linecap="round" stroke-linejoin="round"/>
<path d="M48.8314 73.653C51.1214 72.2035 54.3133 75.0765 55.1566 75.7883L56 76.5L55.1566 77.2117C54.3133 77.9235 51.1214 80.7965 48.8314 79.347C47.1447 78.2794 48.4097 76.6186 49.2531 76.5C48.4097 76.3814 47.1447 74.7206 48.8314 73.653Z" fill="#9CCB7F"/>
<path d="M49.2531 76.5C48.4097 76.3814 47.1447 74.7206 48.8314 73.653C51.1214 72.2035 54.3133 75.0765 55.1566 75.7883L56 76.5L55.1566 77.2117C54.3133 77.9235 51.1214 80.7965 48.8314 79.347C47.1447 78.2794 48.4097 76.6186 49.2531 76.5ZM49.2531 76.5C49.8153 76.3814 51.1928 76.2153 52.2049 76.5" stroke="#55794F" stroke-width="0.1" stroke-linecap="round" stroke-linejoin="round"/>
<path d="M52.496 82.3245C50.712 80.4639 54.248 77.8705 55.124 77.1852L56 76.5L56.876 77.1852C57.7521 77.8705 61.288 80.4639 59.504 82.3245C58.19 83.6949 56.146 82.6671 56 81.9819C55.854 82.6671 53.81 83.695 52.496 82.3245Z" fill="#9CCB7F"/>
<path d="M56 81.9819C55.854 82.6671 53.81 83.695 52.496 82.3245C50.712 80.4639 54.248 77.8705 55.124 77.1852L56 76.5L56.876 77.1852C57.7521 77.8705 61.288 80.4639 59.504 82.3245C58.19 83.6949 56.146 82.6671 56 81.9819ZM56 81.9819C55.854 81.525 55.6496 80.4058 56 79.5835" stroke="#55794F" stroke-width="0.1" stroke-linecap="round" stroke-linejoin="round"/>
<path d="M63.1686 73.653C60.8786 72.2035 57.6867 75.0765 56.8434 75.7883L56 76.5L56.8434 77.2117C57.6867 77.9235 60.8786 80.7965 63.1686 79.347C64.8553 78.2794 63.5903 76.6186 62.7469 76.5C63.5903 76.3814 64.8553 74.7206 63.1686 73.653Z" fill="#9CCB7F"/>
<path d="M62.7469 76.5C63.5903 76.3814 64.8553 74.7206 63.1686 73.653C60.8786 72.2035 57.6867 75.0765 56.8434 75.7883L56 76.5L56.8434 77.2117C57.6867 77.9235 60.8786 80.7965 63.1686 79.347C64.8553 78.2794 63.5903 76.6186 62.7469 76.5ZM62.7469 76.5C62.1847 76.3814 60.8072 76.2153 59.7951 76.5" stroke="#55794F" stroke-width="0.1" stroke-linecap="round" stroke-linejoin="round"/>
<path d="M31.189 24.968C28.6697 25.5135 30.1519 29.6405 30.4952 30.6984L30.8385 31.7563L31.9479 31.6778C33.0573 31.5993 37.439 31.4256 36.9998 28.8856C36.6764 27.0147 34.407 26.7244 33.9029 27.2109C34.1649 26.5611 33.0447 24.5663 31.189 24.968Z" fill="#9CCB7F"/>
<path d="M33.9029 27.2109C34.1649 26.5611 33.0447 24.5663 31.189 24.968C28.6697 25.5135 30.1519 29.6405 30.4952 30.6984L30.8385 31.7563L31.9479 31.6778C33.0573 31.5993 37.439 31.4256 36.9998 28.8856C36.6764 27.0147 34.407 26.7244 33.9029 27.2109ZM33.9029 27.2109C33.5265 27.5081 32.7314 28.3218 32.5622 29.1995" stroke="#55794F" stroke-width="0.1" stroke-linecap="round" stroke-linejoin="round"/>
<path d="M26.4861 25.3883C29.1951 25.4665 30.2357 29.633 30.5371 30.6947L30.8385 31.7563L29.7413 31.875C28.6442 31.9937 24.3915 32.5916 23.3031 30.1096C22.5013 28.2815 24.4786 27.6116 25.2442 27.9847C24.6113 27.4149 24.4907 25.3307 26.4861 25.3883Z" fill="#9CCB7F"/>
<path d="M25.2442 27.9847C24.6113 27.4149 24.4907 25.3307 26.4861 25.3883C29.1951 25.4665 30.2357 29.633 30.5371 30.6947L30.8385 31.7563L29.7413 31.875C28.6442 31.9937 24.3915 32.5916 23.3031 30.1096C22.5013 28.2815 24.4786 27.6116 25.2442 27.9847ZM25.2442 27.9847C25.7767 28.2006 27.0117 28.833 27.6917 29.6348" stroke="#55794F" stroke-width="0.1" stroke-linecap="round" stroke-linejoin="round"/>
<path d="M24.6772 34.6269C24.238 32.0869 28.6197 31.9132 29.7291 31.8347L30.8385 31.7563L31.1818 32.8141C31.5251 33.872 33.0073 37.999 30.488 38.5445C28.6323 38.9463 27.5121 36.9514 27.7741 36.3016C27.27 36.7882 25.0006 36.4978 24.6772 34.6269Z" fill="#9CCB7F"/>
<path d="M27.7741 36.3016C27.27 36.7882 25.0006 36.4978 24.6772 34.6269C24.238 32.0869 28.6197 31.9132 29.7291 31.8347L30.8385 31.7563L31.1818 32.8141C31.5251 33.872 33.0073 37.999 30.488 38.5445C28.6323 38.9463 27.5121 36.9514 27.7741 36.3016ZM27.7741 36.3016C27.9084 35.8412 28.3646 34.799 29.1148 34.313" stroke="#55794F" stroke-width="0.1" stroke-linecap="round" stroke-linejoin="round"/>
<path d="M38.3739 33.4029C37.2855 30.921 33.0328 31.5189 31.9357 31.6376L30.8385 31.7563L31.1399 32.8179C31.4413 33.8795 32.4819 38.046 35.1909 38.1242C37.1863 38.1819 37.0657 36.0977 36.4328 35.5279C37.1984 35.9009 39.1757 35.2311 38.3739 33.4029Z" fill="#9CCB7F"/>
<path d="M36.4328 35.5279C37.1984 35.9009 39.1757 35.2311 38.3739 33.4029C37.2855 30.921 33.0328 31.5189 31.9357 31.6376L30.8385 31.7563L31.1399 32.8179C31.4413 33.8795 32.4819 38.046 35.1909 38.1242C37.1863 38.1819 37.0657 36.0977 36.4328 35.5279ZM36.4328 35.5279C36.0329 35.1152 34.9836 34.2075 33.9853 33.8778" stroke="#55794F" stroke-width="0.1" stroke-linecap="round" stroke-linejoin="round"/>
<path d="M55.337 17.625C57.8404 18.2397 58.3183 13.8807 58.4737 12.7795L58.6292 11.6782L57.5977 11.2622C56.5663 10.8461 52.5523 9.08057 51.833 11.5559C51.3032 13.3791 53.2153 14.6353 53.8817 14.4191C53.3613 14.8882 53.4932 17.1723 55.337 17.625Z" fill="#9CCB7F"/>
<path d="M53.8817 14.4191C53.3613 14.8882 53.4932 17.1723 55.337 17.625C57.8404 18.2397 58.3183 13.8807 58.4737 12.7795L58.6292 11.6782L57.5977 11.2622C56.5663 10.8461 52.5523 9.08057 51.833 11.5559C51.3032 13.3791 53.2153 14.6353 53.8817 14.4191ZM53.8817 14.4191C54.3504 14.3172 55.4218 13.9346 55.9587 13.22" stroke="#55794F" stroke-width="0.1" stroke-linecap="round" stroke-linejoin="round"/>
<path d="M59.7478 19.3099C57.3476 18.0515 58.2397 13.8507 58.4344 12.7645L58.6292 11.6782L59.6672 12.0527C60.7053 12.4272 64.7894 13.755 64.6791 16.4629C64.5978 18.4575 62.527 18.1923 62.0026 17.5212C62.3216 18.3109 61.5158 20.2368 59.7478 19.3099Z" fill="#9CCB7F"/>
<path d="M62.0026 17.5212C62.3216 18.3109 61.5158 20.2368 59.7478 19.3099C57.3476 18.0515 58.2397 13.8507 58.4344 12.7645L58.6292 11.6782L59.6672 12.0527C60.7053 12.4272 64.7894 13.755 64.6791 16.4629C64.5978 18.4575 62.527 18.1923 62.0026 17.5212ZM62.0026 17.5212C61.6188 17.0936 60.7862 15.9837 60.5267 14.9649" stroke="#55794F" stroke-width="0.1" stroke-linecap="round" stroke-linejoin="round"/>
<path d="M65.4253 11.8006C64.706 14.2758 60.692 12.5103 59.6606 12.0942L58.6291 11.6782L58.7846 10.577C58.94 9.47565 59.4179 5.11669 61.9213 5.73138C63.7651 6.18414 63.897 8.46822 63.3766 8.93728C64.043 8.7211 65.9551 9.97732 65.4253 11.8006Z" fill="#9CCB7F"/>
<path d="M63.3766 8.93728C64.043 8.7211 65.9551 9.97732 65.4253 11.8006C64.706 14.2758 60.692 12.5103 59.6606 12.0942L58.6291 11.6782L58.7846 10.577C58.94 9.47565 59.4179 5.11669 61.9213 5.73138C63.7651 6.18414 63.897 8.46822 63.3766 8.93728ZM63.3766 8.93728C63.0539 9.29212 62.1869 10.0287 61.2996 10.1364" stroke="#55794F" stroke-width="0.1" stroke-linecap="round" stroke-linejoin="round"/>
<path d="M52.5793 6.89354C52.4689 9.60145 56.553 10.9292 57.5911 11.3037L58.6292 11.6782L58.8239 10.592C59.0186 9.50569 59.9107 5.30493 57.5105 4.04651C55.7425 3.11959 54.9368 5.04553 55.2557 5.83522C54.7313 5.16416 52.6605 4.89895 52.5793 6.89354Z" fill="#9CCB7F"/>
<path d="M55.2557 5.83522C54.7313 5.16416 52.6605 4.89895 52.5793 6.89354C52.4689 9.60145 56.553 10.9292 57.5911 11.3037L58.6292 11.6782L58.8239 10.592C59.0186 9.50569 59.9107 5.30493 57.5105 4.04651C55.7425 3.11959 54.9368 5.04553 55.2557 5.83522ZM55.2557 5.83522C55.4341 6.38144 55.979 7.65742 56.7316 8.39151" stroke="#55794F" stroke-width="0.1" stroke-linecap="round" stroke-linejoin="round"/>
<path d="M101.186 35.4527C103.285 36.9495 105.341 33.0762 105.892 32.1104L106.444 31.1447L105.639 30.3768C104.835 29.6088 101.758 26.4841 100.175 28.518C99.0083 30.0161 100.32 31.8903 101.02 31.9359C100.363 32.1793 99.6404 34.3502 101.186 35.4527Z" fill="#9CCB7F"/>
<path d="M101.02 31.9359C100.363 32.1793 99.6404 34.3502 101.186 35.4527C103.285 36.9495 105.341 33.0762 105.892 32.1104L106.444 31.1447L105.639 30.3768C104.835 29.6088 101.758 26.4841 100.175 28.518C99.0083 30.0161 100.32 31.8903 101.02 31.9359ZM101.02 31.9359C101.493 32.0144 102.63 32.0551 103.393 31.5897" stroke="#55794F" stroke-width="0.1" stroke-linecap="round" stroke-linejoin="round"/>
<path d="M104.661 38.6491C102.896 36.5924 105.279 33.0192 105.861 32.082L106.444 31.1447L107.27 31.8765C108.096 32.6083 111.4 35.3521 110.296 37.8273C109.483 39.6505 107.657 38.6384 107.418 37.8209C107.422 38.6726 105.961 40.1641 104.661 38.6491Z" fill="#9CCB7F"/>
<path d="M107.418 37.8209C107.422 38.6726 105.961 40.1641 104.661 38.6491C102.896 36.5924 105.279 33.0192 105.861 32.082L106.444 31.1447L107.27 31.8765C108.096 32.6083 111.4 35.3521 110.296 37.8273C109.483 39.6505 107.657 38.6384 107.418 37.8209ZM107.418 37.8209C107.219 37.2817 106.856 35.9426 106.992 34.9001" stroke="#55794F" stroke-width="0.1" stroke-linecap="round" stroke-linejoin="round"/>
<path d="M112.713 33.7714C111.13 35.8053 108.053 32.6806 107.248 31.9126L106.444 31.1447L106.996 30.179C107.547 29.2132 109.603 25.3399 111.702 26.8367C113.248 27.9392 112.525 30.1101 111.868 30.3535C112.568 30.3991 113.88 32.2733 112.713 33.7714Z" fill="#9CCB7F"/>
<path d="M111.868 30.3535C112.568 30.3991 113.88 32.2733 112.713 33.7714C111.13 35.8053 108.053 32.6806 107.248 31.9126L106.444 31.1447L106.996 30.179C107.547 29.2132 109.603 25.3399 111.702 26.8367C113.248 27.9392 112.525 30.1101 111.868 30.3535ZM111.868 30.3535C111.437 30.5639 110.359 30.9277 109.495 30.6996" stroke="#55794F" stroke-width="0.1" stroke-linecap="round" stroke-linejoin="round"/>
<path d="M102.592 24.4621C101.488 26.9373 104.792 29.6811 105.618 30.4129L106.444 31.1447L107.027 30.2075C107.609 29.2702 109.991 25.6971 108.227 23.6403C106.927 22.1253 105.466 23.6168 105.47 24.4684C105.231 23.651 103.405 22.6389 102.592 24.4621Z" fill="#9CCB7F"/>
<path d="M105.47 24.4684C105.231 23.651 103.405 22.6389 102.592 24.4621C101.488 26.9373 104.792 29.6811 105.618 30.4129L106.444 31.1447L107.027 30.2075C107.609 29.2702 109.991 25.6971 108.227 23.6403C106.927 22.1253 105.466 23.6168 105.47 24.4684ZM105.47 24.4684C105.434 25.0419 105.468 26.429 105.896 27.3893" stroke="#55794F" stroke-width="0.1" stroke-linecap="round" stroke-linejoin="round"/>
<path d="M129.999 41.1925C130.641 43.6889 134.708 42.0486 135.752 41.6648L136.796 41.2809L136.675 40.1754C136.553 39.0698 136.211 34.6981 133.69 35.2349C131.833 35.6302 131.63 37.9091 132.136 38.3941C131.476 38.1574 129.526 39.3537 129.999 41.1925Z" fill="#9CCB7F"/>
<path d="M132.136 38.3941C131.476 38.1574 129.526 39.3537 129.999 41.1925C130.641 43.6889 134.708 42.0486 135.752 41.6648L136.796 41.2809L136.675 40.1754C136.553 39.0698 136.211 34.6981 133.69 35.2349C131.833 35.6302 131.63 37.9091 132.136 38.3941ZM132.136 38.3941C132.447 38.7588 133.291 39.5219 134.174 39.6571" stroke="#55794F" stroke-width="0.1" stroke-linecap="round" stroke-linejoin="round"/>
<path d="M130.6 45.8757C130.574 43.1657 134.697 41.9652 135.747 41.6231L136.796 41.281L136.957 42.3727C137.118 43.4645 137.879 47.6909 135.441 48.8743C133.645 49.7459 132.899 47.7959 133.243 47.0165C132.698 47.671 130.62 47.8718 130.6 45.8757Z" fill="#9CCB7F"/>
<path d="M133.243 47.0165C132.698 47.671 130.62 47.8718 130.6 45.8757C130.574 43.1657 134.697 41.9652 135.747 41.6231L136.796 41.281L136.957 42.3727C137.118 43.4645 137.879 47.6909 135.441 48.8743C133.645 49.7459 132.899 47.7959 133.243 47.0165ZM133.243 47.0165C133.438 46.4761 134.022 45.2176 134.797 44.5072" stroke="#55794F" stroke-width="0.1" stroke-linecap="round" stroke-linejoin="round"/>
<path d="M139.902 47.327C137.381 47.8638 137.038 43.492 136.917 42.3865L136.796 41.2809L137.84 40.8971C138.883 40.5132 142.95 38.873 143.592 41.3694C144.066 43.2082 142.115 44.4045 141.456 44.1678C141.962 44.6528 141.759 46.9317 139.902 47.327Z" fill="#9CCB7F"/>
<path d="M141.456 44.1678C141.962 44.6528 141.759 46.9317 139.902 47.327C137.381 47.8638 137.038 43.492 136.917 42.3865L136.796 41.2809L137.84 40.8971C138.883 40.5132 142.95 38.873 143.592 41.3694C144.066 43.2082 142.115 44.4045 141.456 44.1678ZM141.456 44.1678C140.991 44.0513 139.932 43.6357 139.417 42.9048" stroke="#55794F" stroke-width="0.1" stroke-linecap="round" stroke-linejoin="round"/>
<path d="M138.151 33.6876C135.712 34.871 136.474 39.0974 136.635 40.1892L136.796 41.281L137.845 40.9388C138.894 40.5967 143.017 39.3962 142.991 36.6862C142.972 34.6901 140.894 34.8909 140.349 35.5454C140.692 34.766 139.946 32.816 138.151 33.6876Z" fill="#9CCB7F"/>
<path d="M140.349 35.5454C140.692 34.766 139.946 32.816 138.151 33.6876C135.712 34.871 136.474 39.0974 136.635 40.1892L136.796 41.281L137.845 40.9388C138.894 40.5967 143.017 39.3962 142.991 36.6862C142.972 34.6901 140.894 34.8909 140.349 35.5454ZM140.349 35.5454C139.952 35.9609 139.085 37.0444 138.794 38.0547" stroke="#55794F" stroke-width="0.1" stroke-linecap="round" stroke-linejoin="round"/>
<path d="M20.1973 46.504C21.8362 48.4936 24.8259 45.2856 25.609 44.4958L26.3921 43.7061L25.8141 42.7559C25.2362 41.8056 23.0747 37.9903 21.018 39.5441C19.5031 40.6887 20.2845 42.839 20.9479 43.0642C20.2503 43.129 18.9902 45.0385 20.1973 46.504Z" fill="#9CCB7F"/>
<path d="M20.9479 43.0642C20.2503 43.129 18.9902 45.0385 20.1973 46.504C21.8362 48.4936 24.8259 45.2856 25.609 44.4958L26.3921 43.7061L25.8141 42.7559C25.2362 41.8056 23.0747 37.9903 21.018 39.5441C19.5031 40.6887 20.2845 42.839 20.9479 43.0642ZM20.9479 43.0642C21.3845 43.2627 22.4721 43.5967 23.3297 43.345" stroke="#55794F" stroke-width="0.1" stroke-linecap="round" stroke-linejoin="round"/>
<path d="M22.7252 50.492C21.5538 48.0481 24.7809 45.2145 25.5865 44.4603L26.3921 43.7061L27.0002 44.627C27.6083 45.5479 30.0878 49.0543 28.3801 51.1588C27.1223 52.7089 25.6211 51.2581 25.602 50.4066C25.3855 51.2303 23.588 52.2922 22.7252 50.492Z" fill="#9CCB7F"/>
<path d="M25.602 50.4066C25.3855 51.2303 23.588 52.2922 22.7252 50.492C21.5538 48.0481 24.7809 45.2145 25.5865 44.4603L26.3921 43.7061L27.0002 44.627C27.6083 45.5479 30.0878 49.0543 28.3801 51.1588C27.1223 52.7089 25.6211 51.2581 25.602 50.4066ZM25.602 50.4066C25.5501 49.8343 25.5465 48.4469 25.9477 47.4751" stroke="#55794F" stroke-width="0.1" stroke-linecap="round" stroke-linejoin="round"/>
<path d="M31.7661 47.8681C29.7094 49.4219 27.5479 45.6065 26.97 44.6563L26.392 43.7061L27.1751 42.9164C27.9582 42.1266 30.9479 38.9186 32.5867 40.9082C33.7939 42.3737 32.5338 44.2833 31.8362 44.348C32.4996 44.5733 33.281 46.7236 31.7661 47.8681Z" fill="#9CCB7F"/>
<path d="M31.8362 44.348C32.4996 44.5733 33.281 46.7236 31.7661 47.8681C29.7094 49.4219 27.5479 45.6065 26.97 44.6563L26.392 43.7061L27.1751 42.9164C27.9582 42.1266 30.9479 38.9186 32.5867 40.9082C33.7939 42.3737 32.5338 44.2833 31.8362 44.348ZM31.8362 44.348C31.3654 44.4395 30.2299 44.5114 29.4544 44.0672" stroke="#55794F" stroke-width="0.1" stroke-linecap="round" stroke-linejoin="round"/>
<path d="M24.404 36.2535C22.6964 38.3579 25.1758 41.8643 25.784 42.7852L26.3921 43.7061L27.1976 42.9519C28.0033 42.1977 31.2303 39.3642 30.0589 36.9202C29.1961 35.1201 27.3987 36.182 27.1821 37.0056C27.163 36.1542 25.6619 34.7034 24.404 36.2535Z" fill="#9CCB7F"/>
<path d="M27.1821 37.0056C27.163 36.1542 25.6619 34.7034 24.404 36.2535C22.6964 38.3579 25.1758 41.8643 25.784 42.7852L26.3921 43.7061L27.1976 42.9519C28.0033 42.1977 31.2303 39.3642 30.0589 36.9202C29.1961 35.1201 27.3987 36.182 27.1821 37.0056ZM27.1821 37.0056C26.9985 37.5501 26.6722 38.8987 26.8365 39.9371" stroke="#55794F" stroke-width="0.1" stroke-linecap="round" stroke-linejoin="round"/>
<path d="M78.1973 64.504C79.8362 66.4936 82.8259 63.2856 83.609 62.4958L84.3921 61.7061L83.8141 60.7559C83.2362 59.8056 81.0747 55.9903 79.018 57.5441C77.5031 58.6887 78.2845 60.839 78.9479 61.0642C78.2503 61.129 76.9902 63.0385 78.1973 64.504Z" fill="#9CCB7F"/>
<path d="M78.9479 61.0642C78.2503 61.129 76.9902 63.0385 78.1973 64.504C79.8362 66.4936 82.8259 63.2856 83.609 62.4958L84.3921 61.7061L83.8141 60.7559C83.2362 59.8056 81.0747 55.9903 79.018 57.5441C77.5031 58.6887 78.2845 60.839 78.9479 61.0642ZM78.9479 61.0642C79.3845 61.2627 80.4721 61.5967 81.3297 61.345" stroke="#55794F" stroke-width="0.1" stroke-linecap="round" stroke-linejoin="round"/>
<path d="M80.7252 68.492C79.5538 66.0481 82.7809 63.2145 83.5865 62.4603L84.3921 61.7061L85.0002 62.627C85.6083 63.5479 88.0878 67.0543 86.3801 69.1588C85.1223 70.7089 83.6211 69.2581 83.602 68.4066C83.3855 69.2303 81.588 70.2922 80.7252 68.492Z" fill="#9CCB7F"/>
<path d="M83.602 68.4066C83.3855 69.2303 81.588 70.2922 80.7252 68.492C79.5538 66.0481 82.7809 63.2145 83.5865 62.4603L84.3921 61.7061L85.0002 62.627C85.6083 63.5479 88.0878 67.0543 86.3801 69.1588C85.1223 70.7089 83.6211 69.2581 83.602 68.4066ZM83.602 68.4066C83.5501 67.8343 83.5465 66.4469 83.9477 65.4751" stroke="#55794F" stroke-width="0.1" stroke-linecap="round" stroke-linejoin="round"/>
<path d="M89.7661 65.8681C87.7094 67.4219 85.5479 63.6065 84.97 62.6563L84.392 61.7061L85.1751 60.9164C85.9582 60.1266 88.9479 56.9186 90.5867 58.9082C91.7939 60.3737 90.5338 62.2833 89.8362 62.348C90.4996 62.5733 91.281 64.7236 89.7661 65.8681Z" fill="#9CCB7F"/>
<path d="M89.8362 62.348C90.4996 62.5733 91.281 64.7236 89.7661 65.8681C87.7094 67.4219 85.5479 63.6065 84.97 62.6563L84.392 61.7061L85.1751 60.9164C85.9582 60.1266 88.9479 56.9186 90.5867 58.9082C91.7939 60.3737 90.5338 62.2833 89.8362 62.348ZM89.8362 62.348C89.3654 62.4395 88.2299 62.5114 87.4544 62.0672" stroke="#55794F" stroke-width="0.1" stroke-linecap="round" stroke-linejoin="round"/>
<path d="M82.404 54.2535C80.6964 56.3579 83.1758 59.8643 83.784 60.7852L84.3921 61.7061L85.1976 60.9519C86.0033 60.1977 89.2303 57.3642 88.0589 54.9202C87.1961 53.1201 85.3987 54.182 85.1821 55.0056C85.163 54.1542 83.6619 52.7034 82.404 54.2535Z" fill="#9CCB7F"/>
<path d="M85.1821 55.0056C85.163 54.1542 83.6619 52.7034 82.404 54.2535C80.6964 56.3579 83.1758 59.8643 83.784 60.7852L84.3921 61.7061L85.1976 60.9519C86.0033 60.1977 89.2303 57.3642 88.0589 54.9202C87.1961 53.1201 85.3987 54.182 85.1821 55.0056ZM85.1821 55.0056C84.9985 55.5501 84.6722 56.8987 84.8365 57.9371" stroke="#55794F" stroke-width="0.1" stroke-linecap="round" stroke-linejoin="round"/>
<path d="M61.777 21.3925C62.5385 23.8551 66.5217 22.0212 67.5459 21.5876L68.5701 21.154L68.3959 20.0556C68.2217 18.9571 67.6693 14.607 65.1769 15.2643C63.341 15.7485 63.2482 18.0345 63.7765 18.4946C63.1065 18.2899 61.2161 19.5786 61.777 21.3925Z" fill="#9CCB7F"/>
<path d="M63.7765 18.4946C63.1065 18.2899 61.2161 19.5786 61.777 21.3925C62.5385 23.8551 66.5217 22.0212 67.5459 21.5876L68.5701 21.154L68.3959 20.0556C68.2217 18.9571 67.6693 14.607 65.1769 15.2643C63.341 15.7485 63.2482 18.0345 63.7765 18.4946ZM63.7765 18.4946C64.1052 18.8439 64.9847 19.5656 65.8737 19.6581" stroke="#55794F" stroke-width="0.1" stroke-linecap="round" stroke-linejoin="round"/>
<path d="M62.6028 26.0414C62.4462 23.3357 66.507 21.9384 67.5385 21.5462L68.5701 21.1541L68.7833 22.2368C68.9966 23.3196 69.9603 27.5045 67.5819 28.8037C65.83 29.7607 64.9915 27.8488 65.2969 27.0538C64.784 27.7337 62.7181 28.0343 62.6028 26.0414Z" fill="#9CCB7F"/>
<path d="M65.2969 27.0538C64.784 27.7337 62.7181 28.0343 62.6028 26.0414C62.4462 23.3357 66.507 21.9384 67.5385 21.5462L68.5701 21.1541L68.7833 22.2368C68.9966 23.3196 69.9603 27.5045 67.5819 28.8037C65.83 29.7607 64.9915 27.8488 65.2969 27.0538ZM65.2969 27.0538C65.4659 26.5046 65.989 25.2195 66.7289 24.4727" stroke="#55794F" stroke-width="0.1" stroke-linecap="round" stroke-linejoin="round"/>
<path d="M71.9633 27.0438C69.4708 27.7011 68.9185 23.3509 68.7443 22.2525L68.5701 21.154L69.5942 20.7205C70.6184 20.2868 74.6016 18.453 75.3631 20.9156C75.924 22.7295 74.0336 24.0182 73.3636 23.8135C73.892 24.2736 73.7991 26.5596 71.9633 27.0438Z" fill="#9CCB7F"/>
<path d="M73.3636 23.8135C73.892 24.2736 73.7991 26.5596 71.9633 27.0438C69.4708 27.7011 68.9185 23.3509 68.7443 22.2525L68.5701 21.154L69.5942 20.7205C70.6184 20.2868 74.6016 18.453 75.3631 20.9156C75.924 22.7295 74.0336 24.0182 73.3636 23.8135ZM73.3636 23.8135C72.8933 23.7195 71.8155 23.3553 71.2664 22.65" stroke="#55794F" stroke-width="0.1" stroke-linecap="round" stroke-linejoin="round"/>
<path d="M69.5583 13.5044C67.1798 14.8036 68.1436 18.9885 68.3569 20.0713L68.5701 21.1541L69.6016 20.7619C70.6332 20.3697 74.6939 18.9724 74.5374 16.2668C74.4221 14.2738 72.3561 14.5744 71.8433 15.2543C72.1487 14.4593 71.3102 12.5474 69.5583 13.5044Z" fill="#9CCB7F"/>
<path d="M71.8433 15.2543C72.1487 14.4593 71.3102 12.5474 69.5583 13.5044C67.1798 14.8036 68.1436 18.9885 68.3569 20.0713L68.5701 21.1541L69.6016 20.7619C70.6332 20.3697 74.6939 18.9724 74.5374 16.2668C74.4221 14.2738 72.3561 14.5744 71.8433 15.2543ZM71.8433 15.2543C71.4668 15.6884 70.6533 16.8124 70.4113 17.8354" stroke="#55794F" stroke-width="0.1" stroke-linecap="round" stroke-linejoin="round"/>
<path d="M61.2943 32.0734C58.775 32.6189 60.2572 36.7459 60.6005 37.8037L60.9439 38.8616L62.0532 38.7831C63.1627 38.7047 67.5443 38.531 67.1052 35.991C66.7817 34.1201 64.5123 33.8297 64.0082 34.3163C64.2702 33.6665 63.15 31.6716 61.2943 32.0734Z" fill="#9CCB7F"/>
<path d="M64.0082 34.3163C64.2702 33.6665 63.15 31.6716 61.2943 32.0734C58.775 32.6189 60.2572 36.7459 60.6005 37.8037L60.9439 38.8616L62.0532 38.7831C63.1627 38.7047 67.5443 38.531 67.1052 35.991C66.7817 34.1201 64.5123 33.8297 64.0082 34.3163ZM64.0082 34.3163C63.6318 34.6134 62.8367 35.4272 62.6676 36.3049" stroke="#55794F" stroke-width="0.1" stroke-linecap="round" stroke-linejoin="round"/>
<path d="M56.5914 32.4936C59.3005 32.5719 60.341 36.7384 60.6424 37.8L60.9438 38.8616L59.8467 38.9803C58.7495 39.0991 54.4969 39.6969 53.4084 37.215C52.6067 35.3868 54.584 34.7169 55.3496 35.09C54.7166 34.5202 54.596 32.436 56.5914 32.4936Z" fill="#9CCB7F"/>
<path d="M55.3496 35.09C54.7166 34.5202 54.596 32.436 56.5914 32.4936C59.3005 32.5719 60.341 36.7384 60.6424 37.8L60.9438 38.8616L59.8467 38.9803C58.7495 39.0991 54.4969 39.6969 53.4084 37.215C52.6067 35.3868 54.584 34.7169 55.3496 35.09ZM55.3496 35.09C55.8821 35.306 57.1171 35.9383 57.7971 36.7401" stroke="#55794F" stroke-width="0.1" stroke-linecap="round" stroke-linejoin="round"/>
<path d="M54.7825 41.7323C54.3434 39.1923 58.7251 39.0186 59.8345 38.9401L60.9439 38.8616L61.2871 39.9195C61.6305 40.9774 63.1126 45.1044 60.5933 45.6498C58.7377 46.0516 57.6175 44.0567 57.8795 43.407C57.3753 43.8935 55.106 43.6032 54.7825 41.7323Z" fill="#9CCB7F"/>
<path d="M57.8795 43.407C57.3753 43.8935 55.106 43.6032 54.7825 41.7323C54.3434 39.1923 58.7251 39.0186 59.8345 38.9401L60.9439 38.8616L61.2871 39.9195C61.6305 40.9774 63.1126 45.1044 60.5933 45.6498C58.7377 46.0516 57.6175 44.0567 57.8795 43.407ZM57.8795 43.407C58.0138 42.9466 58.4699 41.9043 59.2201 41.4184" stroke="#55794F" stroke-width="0.1" stroke-linecap="round" stroke-linejoin="round"/>
<path d="M68.4793 40.5083C67.3908 38.0263 63.1382 38.6242 62.041 38.7429L60.9438 38.8616L61.2453 39.9232C61.5466 40.9849 62.5872 45.1513 65.2963 45.2296C67.2917 45.2872 67.1711 43.203 66.5381 42.6332C67.3037 43.0063 69.281 42.3364 68.4793 40.5083Z" fill="#9CCB7F"/>
<path d="M66.5381 42.6332C67.3037 43.0063 69.281 42.3364 68.4793 40.5083C67.3908 38.0263 63.1382 38.6242 62.041 38.7429L60.9438 38.8616L61.2453 39.9232C61.5466 40.9849 62.5872 45.1513 65.2963 45.2296C67.2917 45.2872 67.1711 43.203 66.5381 42.6332ZM66.5381 42.6332C66.1382 42.2205 65.0889 41.3128 64.0906 40.9832" stroke="#55794F" stroke-width="0.1" stroke-linecap="round" stroke-linejoin="round"/>
</svg>
