<svg width="163" height="156" viewBox="0 0 163 156" fill="none" xmlns="http://www.w3.org/2000/svg">
<path d="M12.5 71.5L57.5 155M47.5 49.5L60 149.5M60 35.5L62.5 144.5M80.5 73.5L67 155M110.5 57.5L73 149.5M119 95.5L75 155M150.5 46L83 138.5M107 35.5L75 138.5M80.5 13.5L67 138.5M21.5 27L55 144.5" stroke="#398A2C" stroke-width="0.5" stroke-linecap="round" stroke-linejoin="round"/>
<path d="M67.8859 32.0657C69.4673 39.1086 62.4383 34.6147 58.6851 34.8963L57.4809 33.6547C57.9487 33.55 66.4331 25.5956 67.8859 32.0657Z" fill="#748BDE" stroke="#485686" stroke-width="0.1" stroke-linecap="round" stroke-linejoin="round"/>
<path d="M59.7298 26.1644C52.466 24.9513 55.2101 30.7474 55.8558 33.8476L59.7298 34.252C59.7298 33.8476 66.1006 27.2284 59.7298 26.1644Z" fill="#6C80C6" stroke="#485686" stroke-width="0.1" stroke-linecap="round" stroke-linejoin="round"/>
<path d="M63.0751 41.142C56.1625 43.3654 57.6908 37.2648 57.6981 34.118L61.4341 33.1714C61.5161 33.5699 69.1379 39.192 63.0751 41.142Z" fill="#6C80C6" stroke="#485686" stroke-width="0.1" stroke-linecap="round" stroke-linejoin="round"/>
<path d="M49.5089 30.7968C47.6012 36.774 54.3292 34.8968 58.2032 33.6837L59.1693 32.4701C58.686 32.4446 51.182 25.5545 49.5089 30.7968Z" fill="#748BDE" stroke="#485686" stroke-width="0.1" stroke-linecap="round" stroke-linejoin="round"/>
<path d="M50.9312 38.8984C54.4976 43.5195 57.4173 38.2224 58.9918 35.0964L57.7137 33.1251C57.3745 33.4137 47.8032 34.8454 50.9312 38.8984Z" fill="#748BDE" stroke="#485686" stroke-width="0.1" stroke-linecap="round" stroke-linejoin="round"/>
<ellipse cx="58.6851" cy="33.6832" rx="2.90553" ry="2.42627" fill="#9BAFF3"/>
<path d="M60.3721 33.6832C60.3721 34.3981 59.6609 35.0507 58.6851 35.0507C57.7093 35.0507 56.998 34.3981 56.998 33.6832C56.998 32.9682 57.7093 32.3157 58.6851 32.3157C59.6609 32.3157 60.3721 32.9682 60.3721 33.6832Z" fill="#FCDC8A" stroke="#9BAFF3" stroke-width="0.5"/>
<path d="M117.252 63.6768C111.813 68.4223 112.416 60.1014 110.381 56.9355L110.899 55.2853C111.213 55.6467 122.249 59.3173 117.252 63.6768Z" fill="#748BDE" stroke="#485686" stroke-width="0.1" stroke-linecap="round" stroke-linejoin="round"/>
<path d="M118.556 53.6945C116.162 46.7299 112.373 51.9038 109.955 53.9483L111.445 57.5472C111.8 57.3546 120.655 59.8028 118.556 53.6945Z" fill="#6C80C6" stroke="#485686" stroke-width="0.1" stroke-linecap="round" stroke-linejoin="round"/>
<path d="M106.98 63.7706C101.733 58.7519 107.824 57.1896 110.595 55.6969L113.207 58.5308C112.895 58.7928 111.583 68.1724 106.98 63.7706Z" fill="#6C80C6" stroke="#485686" stroke-width="0.1" stroke-linecap="round" stroke-linejoin="round"/>
<path d="M109.614 46.9145C103.45 48.0846 108.305 53.1059 111.217 55.9342L112.745 56.2055C112.537 55.7684 115.02 45.8883 109.614 46.9145Z" fill="#748BDE" stroke="#485686" stroke-width="0.1" stroke-linecap="round" stroke-linejoin="round"/>
<path d="M103.168 52.0244C100.804 57.3615 106.852 57.4052 110.351 57.3005L111.475 55.2376C111.06 55.0769 105.241 47.3434 103.168 52.0244Z" fill="#748BDE" stroke="#485686" stroke-width="0.1" stroke-linecap="round" stroke-linejoin="round"/>
<ellipse cx="111.447" cy="56.3576" rx="2.90553" ry="2.42627" transform="rotate(61.551 111.447 56.3576)" fill="#9BAFF3"/>
<path d="M112.251 57.8409C111.622 58.1815 110.71 57.867 110.245 57.0091C109.78 56.1511 110.015 55.2149 110.644 54.8743C111.272 54.5337 112.185 54.8482 112.65 55.7062C113.115 56.5641 112.88 57.5003 112.251 57.8409Z" fill="#FCDC8A" stroke="#9BAFF3" stroke-width="0.5"/>
<path d="M21.0542 74.6149C17.5853 80.9449 15.2816 72.9266 12.2792 70.6569L12.1964 68.9292C12.6166 69.1598 24.2411 68.7997 21.0542 74.6149Z" fill="#748BDE" stroke="#485686" stroke-width="0.1" stroke-linecap="round" stroke-linejoin="round"/>
<path d="M18.8351 64.7954C14.1866 59.0836 12.4142 65.2466 10.8493 67.9997L13.4889 70.864C13.7563 70.5606 22.9121 69.8051 18.8351 64.7954Z" fill="#6C80C6" stroke="#485686" stroke-width="0.1" stroke-linecap="round" stroke-linejoin="round"/>
<path d="M11.4445 78.2452C4.78788 75.3441 9.96736 71.7768 12.0529 69.4204L15.482 71.1797C15.2802 71.5329 17.2828 80.7897 11.4445 78.2452Z" fill="#6C80C6" stroke="#485686" stroke-width="0.1" stroke-linecap="round" stroke-linejoin="round"/>
<path d="M8.10361 61.515C2.7211 64.739 9.01032 67.7778 12.7192 69.4284L14.2463 69.1564C13.9005 68.8178 12.8244 58.6874 8.10361 61.515Z" fill="#748BDE" stroke="#485686" stroke-width="0.1" stroke-linecap="round" stroke-linejoin="round"/>
<path d="M3.81527 68.5342C3.43668 74.3592 9.12905 72.3145 12.3768 71.0097L12.7209 68.6856C12.2756 68.678 4.14733 63.4253 3.81527 68.5342Z" fill="#748BDE" stroke="#485686" stroke-width="0.1" stroke-linecap="round" stroke-linejoin="round"/>
<ellipse cx="13.081" cy="69.7466" rx="2.90553" ry="2.42627" transform="rotate(41.3787 13.081 69.7466)" fill="#9BAFF3"/>
<path d="M14.3469 70.8618C13.8743 71.3982 12.9092 71.4178 12.177 70.7727C11.4448 70.1277 11.3425 69.1679 11.8151 68.6314C12.2877 68.0949 13.2528 68.0754 13.985 68.7205C14.7172 69.3655 14.8195 70.3253 14.3469 70.8618Z" fill="#FCDC8A" stroke="#9BAFF3" stroke-width="0.5"/>
<path d="M30.7212 31.0356C27.2523 37.3657 24.9486 29.3473 21.9462 27.0776L21.8634 25.3499C22.2836 25.5806 33.9081 25.2205 30.7212 31.0356Z" fill="#748BDE" stroke="#485686" stroke-width="0.1" stroke-linecap="round" stroke-linejoin="round"/>
<path d="M28.5021 21.2162C23.8536 15.5043 22.0812 21.6673 20.5163 24.4204L23.1559 27.2847C23.4232 26.9813 32.5791 26.2258 28.5021 21.2162Z" fill="#6C80C6" stroke="#485686" stroke-width="0.1" stroke-linecap="round" stroke-linejoin="round"/>
<path d="M21.1115 34.666C14.4549 31.7648 19.6344 28.1975 21.7199 25.8411L25.149 27.6004C24.9472 27.9536 26.9498 37.2105 21.1115 34.666Z" fill="#6C80C6" stroke="#485686" stroke-width="0.1" stroke-linecap="round" stroke-linejoin="round"/>
<path d="M17.7706 17.9357C12.3881 21.1597 18.6773 24.1985 22.3862 25.8491L23.9133 25.5771C23.5675 25.2385 22.4914 15.1081 17.7706 17.9357Z" fill="#748BDE" stroke="#485686" stroke-width="0.1" stroke-linecap="round" stroke-linejoin="round"/>
<path d="M13.4823 24.9549C13.1037 30.7799 18.796 28.7352 22.0438 27.4305L22.3879 25.1063C21.9426 25.0988 13.8143 19.846 13.4823 24.9549Z" fill="#748BDE" stroke="#485686" stroke-width="0.1" stroke-linecap="round" stroke-linejoin="round"/>
<ellipse cx="22.748" cy="26.1673" rx="2.90553" ry="2.42627" transform="rotate(41.3787 22.748 26.1673)" fill="#9BAFF3"/>
<path d="M24.0139 27.2825C23.5413 27.8189 22.5762 27.8385 21.844 27.1934C21.1118 26.5484 21.0095 25.5886 21.4821 25.0521C21.9547 24.5157 22.9198 24.4961 23.652 25.1412C24.3842 25.7862 24.4865 26.746 24.0139 27.2825Z" fill="#FCDC8A" stroke="#9BAFF3" stroke-width="0.5"/>
<path d="M88.7212 17.0356C85.2523 23.3657 82.9486 15.3473 79.9462 13.0776L79.8634 11.3499C80.2836 11.5806 91.9081 11.2205 88.7212 17.0356Z" fill="#748BDE" stroke="#485686" stroke-width="0.1" stroke-linecap="round" stroke-linejoin="round"/>
<path d="M86.5021 7.21616C81.8536 1.50427 80.0812 7.66735 78.5163 10.4204L81.1559 13.2847C81.4232 12.9813 90.5791 12.2258 86.5021 7.21616Z" fill="#6C80C6" stroke="#485686" stroke-width="0.1" stroke-linecap="round" stroke-linejoin="round"/>
<path d="M79.1115 20.666C72.4549 17.7648 77.6344 14.1975 79.7199 11.8411L83.149 13.6004C82.9472 13.9536 84.9498 23.2105 79.1115 20.666Z" fill="#6C80C6" stroke="#485686" stroke-width="0.1" stroke-linecap="round" stroke-linejoin="round"/>
<path d="M75.7706 3.93572C70.3881 7.1597 76.6773 10.1985 80.3862 11.8491L81.9133 11.5771C81.5675 11.2385 80.4914 1.10808 75.7706 3.93572Z" fill="#748BDE" stroke="#485686" stroke-width="0.1" stroke-linecap="round" stroke-linejoin="round"/>
<path d="M71.4823 10.9549C71.1037 16.7799 76.796 14.7352 80.0438 13.4305L80.3879 11.1063C79.9426 11.0988 71.8143 5.84605 71.4823 10.9549Z" fill="#748BDE" stroke="#485686" stroke-width="0.1" stroke-linecap="round" stroke-linejoin="round"/>
<ellipse cx="80.748" cy="12.1673" rx="2.90553" ry="2.42627" transform="rotate(41.3787 80.748 12.1673)" fill="#9BAFF3"/>
<path d="M82.0139 13.2825C81.5413 13.8189 80.5762 13.8385 79.844 13.1934C79.1118 12.5484 79.0095 11.5886 79.4821 11.0521C79.9547 10.5157 80.9198 10.4961 81.652 11.1412C82.3842 11.7862 82.4865 12.746 82.0139 13.2825Z" fill="#FCDC8A" stroke="#9BAFF3" stroke-width="0.5"/>
<path d="M160.255 45.7213C159.96 52.9335 154.334 46.7735 150.635 46.0741L149.794 44.5631C150.273 44.5831 160.527 39.0957 160.255 45.7213Z" fill="#748BDE" stroke="#485686" stroke-width="0.1" stroke-linecap="round" stroke-linejoin="round"/>
<path d="M153.905 37.9101C147.202 34.8583 148.353 41.1671 148.174 44.3289L151.811 45.7221C151.916 45.3315 159.783 40.5868 153.905 37.9101Z" fill="#6C80C6" stroke="#485686" stroke-width="0.1" stroke-linecap="round" stroke-linejoin="round"/>
<path d="M153.259 53.2432C146.007 53.6017 149.062 48.1045 149.883 45.0669L153.737 45.1194C153.713 45.5256 159.62 52.9288 153.259 53.2432Z" fill="#6C80C6" stroke="#485686" stroke-width="0.1" stroke-linecap="round" stroke-linejoin="round"/>
<path d="M142.833 39.7394C139.443 45.0191 146.428 44.9472 150.484 44.7781L151.731 43.8559C151.271 43.7062 145.806 35.1087 142.833 39.7394Z" fill="#748BDE" stroke="#485686" stroke-width="0.1" stroke-linecap="round" stroke-linejoin="round"/>
<path d="M142.11 47.9329C144.359 53.3196 148.55 48.9587 150.88 46.3468L150.156 44.1118C149.753 44.3028 140.138 43.2085 142.11 47.9329Z" fill="#748BDE" stroke="#485686" stroke-width="0.1" stroke-linecap="round" stroke-linejoin="round"/>
<ellipse cx="150.95" cy="44.9023" rx="2.90553" ry="2.42627" transform="rotate(15 150.95 44.9023)" fill="#9BAFF3"/>
<path d="M152.579 45.339C152.394 46.0296 151.538 46.4758 150.596 46.2232C149.653 45.9707 149.135 45.1563 149.32 44.4657C149.505 43.7751 150.361 43.3289 151.303 43.5814C152.246 43.834 152.764 44.6484 152.579 45.339Z" fill="#FCDC8A" stroke="#9BAFF3" stroke-width="0.5"/>
<path d="M109.646 94.747C109.941 101.959 115.568 95.7993 119.266 95.0999L120.108 93.5889C119.629 93.6088 109.375 88.1214 109.646 94.747Z" fill="#748BDE" stroke="#485686" stroke-width="0.1" stroke-linecap="round" stroke-linejoin="round"/>
<path d="M115.997 86.9359C122.699 83.8841 121.549 90.1929 121.727 93.3546L118.09 94.7479C117.985 94.3573 110.118 89.6125 115.997 86.9359Z" fill="#6C80C6" stroke="#485686" stroke-width="0.1" stroke-linecap="round" stroke-linejoin="round"/>
<path d="M116.642 102.269C123.895 102.627 120.839 97.1303 120.018 94.0927L116.164 94.1452C116.188 94.5514 110.281 101.955 116.642 102.269Z" fill="#6C80C6" stroke="#485686" stroke-width="0.1" stroke-linecap="round" stroke-linejoin="round"/>
<path d="M127.068 88.7651C130.458 94.0448 123.473 93.973 119.417 93.8038L118.17 92.8816C118.63 92.7319 124.095 84.1344 127.068 88.7651Z" fill="#748BDE" stroke="#485686" stroke-width="0.1" stroke-linecap="round" stroke-linejoin="round"/>
<path d="M127.791 96.9587C125.543 102.345 121.351 97.9844 119.021 95.3725L119.746 93.1375C120.148 93.3286 129.764 92.2342 127.791 96.9587Z" fill="#748BDE" stroke="#485686" stroke-width="0.1" stroke-linecap="round" stroke-linejoin="round"/>
<ellipse cx="2.90553" cy="2.42627" rx="2.90553" ry="2.42627" transform="matrix(-0.965926 0.258819 0.258819 0.965926 121.13 90.8325)" fill="#9BAFF3"/>
<path d="M117.322 94.3647C117.507 95.0553 118.363 95.5015 119.306 95.249C120.248 94.9964 120.767 94.182 120.581 93.4914C120.396 92.8008 119.541 92.3546 118.598 92.6071C117.655 92.8597 117.137 93.6741 117.322 94.3647Z" fill="#FCDC8A" stroke="#9BAFF3" stroke-width="0.5"/>
<path d="M37.646 48.747C37.9413 55.9592 43.5677 49.7993 47.266 49.0999L48.1077 47.5889C47.6288 47.6088 37.3747 42.1214 37.646 48.747Z" fill="#748BDE" stroke="#485686" stroke-width="0.1" stroke-linecap="round" stroke-linejoin="round"/>
<path d="M43.9967 40.9359C50.699 37.8841 49.5485 44.1929 49.7273 47.3546L46.0899 48.7479C45.9852 48.3573 38.1184 43.6125 43.9967 40.9359Z" fill="#6C80C6" stroke="#485686" stroke-width="0.1" stroke-linecap="round" stroke-linejoin="round"/>
<path d="M44.6421 56.2689C51.8946 56.6274 48.8394 51.1303 48.0179 48.0926L44.1642 48.1452C44.1881 48.5514 38.2812 55.9546 44.6421 56.2689Z" fill="#6C80C6" stroke="#485686" stroke-width="0.1" stroke-linecap="round" stroke-linejoin="round"/>
<path d="M55.0683 42.7651C58.4579 48.0449 51.4734 47.973 47.4174 47.8039L46.1701 46.8816C46.6303 46.7319 52.0954 38.1344 55.0683 42.7651Z" fill="#748BDE" stroke="#485686" stroke-width="0.1" stroke-linecap="round" stroke-linejoin="round"/>
<path d="M55.7914 50.9587C53.5425 56.3453 49.3513 51.9844 47.0214 49.3725L47.7458 47.1375C48.1481 47.3286 57.7638 46.2342 55.7914 50.9587Z" fill="#748BDE" stroke="#485686" stroke-width="0.1" stroke-linecap="round" stroke-linejoin="round"/>
<ellipse cx="2.90553" cy="2.42627" rx="2.90553" ry="2.42627" transform="matrix(-0.965926 0.258819 0.258819 0.965926 49.1304 44.8325)" fill="#9BAFF3"/>
<path d="M45.3224 48.3647C45.5074 49.0553 46.3633 49.5016 47.3059 49.249C48.2484 48.9964 48.7665 48.182 48.5815 47.4915C48.3964 46.8009 47.5405 46.3546 46.598 46.6072C45.6554 46.8597 45.1373 47.6741 45.3224 48.3647Z" fill="#FCDC8A" stroke="#9BAFF3" stroke-width="0.5"/>
<path d="M70.646 73.782C70.9413 66.5698 76.5677 72.7297 80.266 73.4291L81.1077 74.9401C80.6288 74.9202 70.3747 80.4076 70.646 73.782Z" fill="#748BDE" stroke="#485686" stroke-width="0.1" stroke-linecap="round" stroke-linejoin="round"/>
<path d="M76.9967 81.5931C83.699 84.6449 82.5485 78.3361 82.7273 75.1743L79.0899 73.7811C78.9852 74.1717 71.1184 78.9165 76.9967 81.5931Z" fill="#6C80C6" stroke="#485686" stroke-width="0.1" stroke-linecap="round" stroke-linejoin="round"/>
<path d="M77.6421 66.26C84.8946 65.9016 81.8394 71.3987 81.0179 74.4364L77.1642 74.3838C77.1881 73.9776 71.2812 66.5744 77.6421 66.26Z" fill="#6C80C6" stroke="#485686" stroke-width="0.1" stroke-linecap="round" stroke-linejoin="round"/>
<path d="M88.0683 79.7639C91.4579 74.4842 84.4734 74.556 80.4174 74.7252L79.1701 75.6474C79.6303 75.7971 85.0954 84.3946 88.0683 79.7639Z" fill="#748BDE" stroke="#485686" stroke-width="0.1" stroke-linecap="round" stroke-linejoin="round"/>
<path d="M88.7914 71.5703C86.5425 66.1836 82.3513 70.5446 80.0214 73.1565L80.7458 75.3915C81.1481 75.2004 90.7638 76.2948 88.7914 71.5703Z" fill="#748BDE" stroke="#485686" stroke-width="0.1" stroke-linecap="round" stroke-linejoin="round"/>
<ellipse cx="79.9518" cy="74.6009" rx="2.90553" ry="2.42627" transform="rotate(-165 79.9518 74.6009)" fill="#9BAFF3"/>
<path d="M78.3224 74.1643C78.5074 73.4737 79.3633 73.0275 80.3059 73.28C81.2484 73.5326 81.7665 74.347 81.5815 75.0376C81.3964 75.7282 80.5405 76.1744 79.598 75.9219C78.6554 75.6693 78.1373 74.8549 78.3224 74.1643Z" fill="#FCDC8A" stroke="#9BAFF3" stroke-width="0.5"/>
<path d="M97.8973 39.173C96.3159 32.1301 103.345 36.624 107.098 36.3424L108.302 37.5841C107.835 37.6887 99.3501 45.6431 97.8973 39.173Z" fill="#748BDE" stroke="#485686" stroke-width="0.1" stroke-linecap="round" stroke-linejoin="round"/>
<path d="M106.053 45.0743C113.317 46.2874 110.573 40.4913 109.927 37.3911L106.053 36.9867C106.053 37.3911 99.6826 44.0103 106.053 45.0743Z" fill="#6C80C6" stroke="#485686" stroke-width="0.1" stroke-linecap="round" stroke-linejoin="round"/>
<path d="M102.708 30.0967C109.621 27.8734 108.092 33.9739 108.085 37.1207L104.349 38.0673C104.267 37.6688 96.6454 32.0467 102.708 30.0967Z" fill="#6C80C6" stroke="#485686" stroke-width="0.1" stroke-linecap="round" stroke-linejoin="round"/>
<path d="M116.274 40.4419C118.182 34.4647 111.454 36.3419 107.58 37.555L106.614 38.7686C107.097 38.7941 114.601 45.6842 116.274 40.4419Z" fill="#748BDE" stroke="#485686" stroke-width="0.1" stroke-linecap="round" stroke-linejoin="round"/>
<path d="M114.852 32.3403C111.286 27.7193 108.366 33.0163 106.791 36.1423L108.07 38.1136C108.409 37.825 117.98 36.3933 114.852 32.3403Z" fill="#748BDE" stroke="#485686" stroke-width="0.1" stroke-linecap="round" stroke-linejoin="round"/>
<ellipse cx="107.098" cy="37.5555" rx="2.90553" ry="2.42627" transform="rotate(-180 107.098 37.5555)" fill="#9BAFF3"/>
<path d="M105.411 37.5555C105.411 36.8406 106.122 36.188 107.098 36.188C108.074 36.188 108.785 36.8406 108.785 37.5555C108.785 38.2705 108.074 38.923 107.098 38.923C106.122 38.923 105.411 38.2705 105.411 37.5555Z" fill="#FCDC8A" stroke="#9BAFF3" stroke-width="0.5"/>
</svg>
