<svg width="159" height="174" viewBox="0 0 159 174" fill="none" xmlns="http://www.w3.org/2000/svg">
<path d="M22.5 60.5L56.5 173.5M50.5 88L59 161.5M89.5 51.5L66.5 161.5M126 81L72 166M131.5 51.5L77.5 149.5M41 26L62 138" stroke="#829F7E" stroke-linecap="round" stroke-linejoin="round"/>
<path d="M29.4176 43.7546C25.8176 36.9546 16.5843 40.9213 12.4176 43.7546C8.3213 45.1939 2.38644 48.7364 1.20797 54.0012C0.612347 56.6621 1.23174 59.763 3.9176 63.2546C13.9176 76.2546 10.4176 68.2546 20.9176 73.7546C27.5759 77.2423 29.2078 72.6877 30.9131 67.7405C31.897 64.8861 32.9053 61.9011 34.9176 60.2546C40.4176 55.7546 33.9176 52.2546 29.4176 43.7546Z" fill="#EE8E48"/>
<path d="M1.20797 54.0012C4.0413 56.3345 11.6176 60.6546 18.4176 58.2546C25.2176 55.8546 29.5843 63.588 30.9176 67.7546M12.4176 43.7546C16.5843 40.9213 25.8176 36.9546 29.4176 43.7546C33.9176 52.2546 40.4176 55.7546 34.9176 60.2546C29.4176 64.7546 31.4176 79.2546 20.9176 73.7546C10.4176 68.2546 13.9176 76.2546 3.9176 63.2546C-4.0824 52.8546 6.25094 45.9213 12.4176 43.7546Z" stroke="#AF5E24" stroke-width="0.5" stroke-linecap="round" stroke-linejoin="round"/>
<path d="M12.4175 56.7546C12.4175 57.8311 13.3587 58.8299 14.859 59.5947C16.3229 60.3409 18.1204 60.7546 19.4175 60.7546C21.9028 60.7546 23.9175 58.7399 23.9175 56.2546C23.9175 53.7694 21.9028 51.7546 19.4175 51.7546C18.1679 51.7546 16.3894 52.3888 14.9112 53.3839C14.1788 53.8769 13.5455 54.4421 13.1 55.0317C12.6528 55.6235 12.4175 56.2087 12.4175 56.7546Z" fill="#262925" stroke="#191A18"/>
<path d="M15.5239 56.75C15.5239 57.1466 15.8643 57.581 16.5614 57.9512C17.2286 58.3055 18.0486 58.5 18.6239 58.5C19.6542 58.5 20.5239 57.624 20.5239 56.5C20.5239 55.376 19.6542 54.5 18.6239 54.5C18.0979 54.5 17.2971 54.7875 16.6139 55.2666C16.2796 55.5011 15.9983 55.7646 15.8048 56.0314C15.61 56.2999 15.5239 56.5433 15.5239 56.75Z" fill="#A78268" stroke="#76563F"/>
<path fill-rule="evenodd" clip-rule="evenodd" d="M3.9176 63.2546C1.23174 59.763 0.612347 56.6621 1.20797 54.0012C4.04131 56.3345 11.6176 60.6546 18.4176 58.2546C22.0526 56.9717 24.9923 58.5844 27.145 61C29.0148 63.0982 30.2908 65.8022 30.9131 67.7405C29.2078 72.6877 27.5759 77.2423 20.9176 73.7546C16.8684 71.6336 14.9013 71.5203 13.439 71.436C11.1094 71.3018 10.0613 71.2414 3.9176 63.2546Z" fill="#E37526"/>
<path d="M12.4176 43.7546C16.5843 40.9213 25.8176 36.9546 29.4176 43.7546C33.9176 52.2546 40.4176 55.7546 34.9176 60.2546C32.9053 61.9011 31.897 64.8861 30.9131 67.7405M12.4176 43.7546C6.25094 45.9213 -4.0824 52.8546 3.9176 63.2546M12.4176 43.7546C8.3213 45.1939 2.38644 48.7364 1.20797 54.0012M3.9176 63.2546C1.23174 59.763 0.612347 56.6621 1.20797 54.0012M3.9176 63.2546C10.0613 71.2414 11.1094 71.3018 13.439 71.436C14.9013 71.5203 16.8684 71.6336 20.9176 73.7546C27.5759 77.2423 29.2078 72.6877 30.9131 67.7405M1.20797 54.0012C4.0413 56.3345 11.6176 60.6546 18.4176 58.2546C22.0526 56.9717 24.9923 58.5844 27.145 61C29.0148 63.0982 30.2908 65.8022 30.9131 67.7405M30.9176 67.7546C30.9161 67.7499 30.9146 67.7452 30.9131 67.7405" stroke="#AF5E24" stroke-width="0.5" stroke-linecap="round" stroke-linejoin="round"/>
<path d="M28.6063 4.75463C32.2063 -2.04537 41.4396 1.9213 45.6063 4.75463C49.7026 6.19388 55.6375 9.73641 56.816 15.0012C57.4116 17.6621 56.7922 20.763 54.1063 24.2546C44.1063 37.2546 47.6063 29.2546 37.1063 34.7546C30.448 38.2423 28.8161 33.6877 27.1108 28.7405C26.1269 25.8861 25.1186 22.9011 23.1063 21.2546C17.6063 16.7546 24.1063 13.2546 28.6063 4.75463Z" fill="#EE8E48"/>
<path d="M56.816 15.0012C53.9826 17.3345 46.4063 21.6546 39.6063 19.2546C32.8063 16.8546 28.4397 24.588 27.1063 28.7546M45.6063 4.75463C41.4396 1.9213 32.2063 -2.04537 28.6063 4.75463C24.1063 13.2546 17.6063 16.7546 23.1063 21.2546C28.6063 25.7546 26.6063 40.2546 37.1063 34.7546C47.6063 29.2546 44.1063 37.2546 54.1063 24.2546C62.1063 13.8546 51.773 6.9213 45.6063 4.75463Z" stroke="#AF5E24" stroke-width="0.5" stroke-linecap="round" stroke-linejoin="round"/>
<path d="M45.6064 17.7546C45.6064 18.8311 44.6652 19.8299 43.1649 20.5947C41.7011 21.3409 39.9035 21.7546 38.6064 21.7546C36.1212 21.7546 34.1064 19.7399 34.1064 17.2546C34.1064 14.7694 36.1212 12.7546 38.6064 12.7546C39.856 12.7546 41.6345 13.3888 43.1128 14.3839C43.8452 14.8769 44.4784 15.4421 44.924 16.0317C45.3711 16.6235 45.6064 17.2087 45.6064 17.7546Z" fill="#262925" stroke="#191A18"/>
<path d="M42.5 17.75C42.5 18.1466 42.1596 18.581 41.4626 18.9512C40.7953 19.3055 39.9753 19.5 39.4 19.5C38.3697 19.5 37.5 18.624 37.5 17.5C37.5 16.376 38.3697 15.5 39.4 15.5C39.926 15.5 40.7268 15.7875 41.41 16.2666C41.7443 16.5011 42.0257 16.7646 42.2192 17.0314C42.4139 17.2999 42.5 17.5433 42.5 17.75Z" fill="#A78268" stroke="#76563F"/>
<path fill-rule="evenodd" clip-rule="evenodd" d="M54.1063 24.2546C56.7922 20.763 57.4116 17.6621 56.816 15.0012C53.9826 17.3345 46.4063 21.6546 39.6063 19.2546C35.9713 17.9717 33.0317 19.5844 30.879 22C29.0092 24.0982 27.7331 26.8022 27.1108 28.7405C28.8161 33.6877 30.448 38.2423 37.1063 34.7546C41.1555 32.6336 43.1226 32.5203 44.5849 32.436C46.9145 32.3018 47.9627 32.2414 54.1063 24.2546Z" fill="#E37526"/>
<path d="M45.6063 4.75463C41.4396 1.9213 32.2063 -2.04537 28.6063 4.75463C24.1063 13.2546 17.6063 16.7546 23.1063 21.2546C25.1186 22.9011 26.1269 25.8861 27.1108 28.7405M45.6063 4.75463C51.773 6.9213 62.1063 13.8546 54.1063 24.2546M45.6063 4.75463C49.7026 6.19388 55.6375 9.73641 56.816 15.0012M54.1063 24.2546C56.7922 20.763 57.4116 17.6621 56.816 15.0012M54.1063 24.2546C47.9627 32.2414 46.9145 32.3018 44.5849 32.436C43.1226 32.5203 41.1555 32.6336 37.1063 34.7546C30.448 38.2423 28.8161 33.6877 27.1108 28.7405M56.816 15.0012C53.9826 17.3345 46.4063 21.6546 39.6063 19.2546C35.9713 17.9717 33.0317 19.5844 30.879 22C29.0092 24.0982 27.7331 26.8022 27.1108 28.7405M27.1063 28.7546C27.1078 28.7499 27.1093 28.7452 27.1108 28.7405" stroke="#AF5E24" stroke-width="0.5" stroke-linecap="round" stroke-linejoin="round"/>
<path d="M62.1336 74.6144C60.796 67.0374 50.7907 67.9765 45.9552 69.3932C41.6148 69.5048 34.8788 71.0534 32.1403 75.7018C30.7562 78.0512 30.3933 81.1924 31.877 85.3402C37.4011 100.783 36.5272 92.0948 44.8306 100.554C50.0959 105.918 53.0478 102.085 56.19 97.9003C58.0031 95.486 59.8794 92.9549 62.3002 92.0061C68.9164 89.4128 63.8055 84.0856 62.1336 74.6144Z" fill="#EE8E48"/>
<path d="M32.1403 75.7018C34.1201 78.7925 40.0034 85.2307 47.2119 85.0352C54.4203 84.8396 56.2008 93.5403 56.19 97.9151M45.9552 69.3932C50.7907 67.9765 60.796 67.0374 62.1336 74.6144C63.8055 84.0856 68.9164 89.4128 62.3002 92.0061C55.6839 94.5994 53.1339 109.013 44.8306 100.554C36.5272 92.0948 37.4011 100.783 31.877 85.3402C27.4578 72.9858 39.4211 69.5612 45.9552 69.3932Z" stroke="#AF5E24" stroke-width="0.5" stroke-linecap="round" stroke-linejoin="round"/>
<path d="M41.9626 81.7649C41.6319 82.7894 42.2209 84.029 43.4138 85.2176C44.5778 86.3773 46.1614 87.3231 47.3957 87.7215C49.7609 88.4848 52.297 87.1862 53.0603 84.821C53.8236 82.4559 52.525 79.9197 50.1599 79.1565C48.9707 78.7727 47.0834 78.8299 45.371 79.3229C44.5225 79.5672 43.7463 79.9105 43.1412 80.3349C42.534 80.7607 42.1302 81.2453 41.9626 81.7649Z" fill="#262925" stroke="#191A18"/>
<path d="M44.9202 82.7145C44.7984 83.092 44.9889 83.6099 45.5386 84.1762C46.0648 84.7184 46.7854 85.1553 47.333 85.332C48.3135 85.6485 49.4102 85.0819 49.7554 84.0122C50.1006 82.9426 49.542 81.8418 48.5615 81.5254C48.0609 81.3638 47.2105 81.3915 46.4132 81.6376C46.023 81.758 45.6743 81.9225 45.4082 82.1169C45.1405 82.3126 44.9837 82.5178 44.9202 82.7145Z" fill="#A78268" stroke="#76563F"/>
<path fill-rule="evenodd" clip-rule="evenodd" d="M31.877 85.3402C30.3933 81.1924 30.7562 78.0512 32.1403 75.7018C34.1201 78.7925 40.0034 85.2307 47.2119 85.0352C51.0652 84.9306 53.3675 87.3682 54.6742 90.3282C55.8093 92.8993 56.1932 95.8645 56.19 97.9003C53.0478 102.085 50.0959 105.918 44.8306 100.554C41.6285 97.2918 39.7913 96.5797 38.4255 96.0504C36.2498 95.2072 35.2708 94.8278 31.877 85.3402Z" fill="#E37526"/>
<path d="M45.9552 69.3932C50.7907 67.9765 60.796 67.0374 62.1336 74.6144C63.8055 84.0856 68.9164 89.4128 62.3002 92.0061C59.8794 92.9549 58.0031 95.486 56.19 97.9003M45.9552 69.3932C39.4211 69.5612 27.4578 72.9858 31.877 85.3402M45.9552 69.3932C41.6148 69.5048 34.8788 71.0534 32.1403 75.7018M31.877 85.3402C30.3933 81.1924 30.7562 78.0512 32.1403 75.7018M31.877 85.3402C35.2708 94.8278 36.2498 95.2072 38.4255 96.0504C39.7913 96.5797 41.6285 97.2918 44.8306 100.554C50.0959 105.918 53.0478 102.085 56.19 97.9003M32.1403 75.7018C34.1201 78.7925 40.0034 85.2307 47.2119 85.0352C51.0652 84.9306 53.3675 87.3682 54.6742 90.3282C55.8093 92.8993 56.1932 95.8645 56.19 97.9003M56.19 97.9151C56.19 97.9102 56.19 97.9052 56.19 97.9003" stroke="#AF5E24" stroke-width="0.5" stroke-linecap="round" stroke-linejoin="round"/>
<path d="M81.0414 31.8605C84.736 25.1114 93.9131 29.2066 98.0398 32.0978C102.116 33.5941 108 37.2191 109.105 42.4999C109.664 45.1688 109.001 48.2608 106.267 51.7146C96.0862 64.5737 99.6976 56.6233 89.1218 61.9762C82.4154 65.3706 80.8473 60.7936 79.2113 55.8231C78.2673 52.9553 77.3007 49.9564 75.3116 48.2821C69.875 43.7057 76.4232 40.2968 81.0414 31.8605Z" fill="#EE8E48"/>
<path d="M109.105 42.4999C106.24 44.7934 98.6038 49.0073 91.8379 46.5126C85.0721 44.0179 80.5979 51.6895 79.2065 55.8372M98.0398 32.0978C93.9131 29.2066 84.736 25.1114 81.0414 31.8605C76.4232 40.2968 69.875 43.7057 75.3116 48.2821C80.7483 52.8584 78.546 67.3291 89.1218 61.9762C99.6976 56.6233 96.0862 64.5737 106.267 51.7146C114.411 41.4273 104.176 34.3503 98.0398 32.0978Z" stroke="#AF5E24" stroke-width="0.5" stroke-linecap="round" stroke-linejoin="round"/>
<path d="M97.8583 45.0965C97.8433 46.1729 96.8882 47.1585 95.3774 47.9022C93.9033 48.6279 92.1001 49.0165 90.8032 48.9984C88.3181 48.9637 86.3317 46.9211 86.3664 44.436C86.4011 41.951 88.4438 39.9646 90.9288 39.9993C92.1782 40.0167 93.9478 40.6757 95.4119 41.6913C96.1374 42.1945 96.7627 42.7684 97.2 43.3642C97.6388 43.9622 97.8659 44.5506 97.8583 45.0965Z" fill="#262925" stroke="#191A18"/>
<path d="M94.7523 45.0485C94.7468 45.4451 94.4004 45.8747 93.6982 46.2351C93.0261 46.58 92.2035 46.7631 91.6282 46.7551C90.598 46.7407 89.7406 45.8526 89.7563 44.7288C89.772 43.6049 90.6538 42.7411 91.684 42.7555C92.21 42.7628 93.0067 43.0615 93.6831 43.5501C94.0142 43.7892 94.2918 44.0567 94.4815 44.3261C94.6725 44.5972 94.7552 44.8418 94.7523 45.0485Z" fill="#A78268" stroke="#76563F"/>
<path fill-rule="evenodd" clip-rule="evenodd" d="M106.267 51.7146C109.001 48.2608 109.664 45.1688 109.105 42.4999C106.24 44.7934 98.6038 49.0073 91.8379 46.5126C88.2212 45.179 85.2593 46.7505 83.0731 49.1359C81.1742 51.2078 79.8605 53.8936 79.2113 55.8231C80.8473 60.7936 82.4154 65.3706 89.1218 61.9762C93.2002 59.9119 95.1687 59.8261 96.632 59.7622C98.9633 59.6605 100.012 59.6148 106.267 51.7146Z" fill="#E37526"/>
<path d="M98.0398 32.0978C93.9131 29.2066 84.736 25.1114 81.0414 31.8605C76.4232 40.2968 69.875 43.7057 75.3116 48.2821C77.3007 49.9564 78.2673 52.9553 79.2113 55.8231M98.0398 32.0978C104.176 34.3503 114.411 41.4273 106.267 51.7146M98.0398 32.0978C102.116 33.5941 108 37.2191 109.105 42.4999M106.267 51.7146C109.001 48.2608 109.664 45.1688 109.105 42.4999M106.267 51.7146C100.012 59.6148 98.9633 59.6605 96.632 59.7622C95.1687 59.8261 93.2002 59.9119 89.1218 61.9762C82.4154 65.3706 80.8473 60.7936 79.2113 55.8231M109.105 42.4999C106.24 44.7934 98.6038 49.0073 91.8379 46.5126C88.2212 45.179 85.2593 46.7505 83.0731 49.1359C81.1742 51.2078 79.8605 53.8936 79.2113 55.8231M79.2065 55.8372C79.2081 55.8325 79.2097 55.8278 79.2113 55.8231" stroke="#AF5E24" stroke-width="0.5" stroke-linecap="round" stroke-linejoin="round"/>
<path d="M150.18 36.5549C148.265 29.1029 138.361 30.8074 133.649 32.5912C129.33 33.0357 122.732 35.0968 120.359 39.9417C119.159 42.3904 119.039 45.5503 120.836 49.5719C127.53 64.5452 125.991 55.9496 134.92 63.7462C140.581 68.6902 143.23 64.6416 146.042 60.2284C147.664 57.6821 149.341 55.0144 151.681 53.8825C158.079 50.7889 152.574 45.8698 150.18 36.5549Z" fill="#EE8E48"/>
<path d="M120.359 39.9417C122.57 42.8714 128.93 48.8389 136.102 48.0905C143.275 47.3421 145.718 55.8804 146.043 60.2432M133.649 32.5912C138.361 30.8074 148.265 29.1029 150.18 36.5549C152.574 45.8698 158.079 50.7889 151.681 53.8825C145.284 56.9761 143.848 71.5428 134.92 63.7462C125.991 55.9496 127.53 64.5452 120.836 49.5719C115.482 37.5933 127.147 33.2603 133.649 32.5912Z" stroke="#AF5E24" stroke-width="0.5" stroke-linecap="round" stroke-linejoin="round"/>
<path d="M130.617 45.2329C130.366 46.2797 131.049 47.4704 132.33 48.5639C133.579 49.6309 135.231 50.4523 136.492 50.7547C138.909 51.3342 141.338 49.8448 141.917 47.428C142.497 45.0112 141.007 42.5823 138.59 42.0028C137.375 41.7115 135.498 41.9134 133.828 42.5365C133.001 42.8451 132.254 43.247 131.683 43.7166C131.11 44.1878 130.745 44.702 130.617 45.2329Z" fill="#262925" stroke="#191A18"/>
<path d="M133.639 45.9527C133.547 46.3383 133.777 46.8401 134.368 47.3626C134.934 47.8627 135.686 48.2431 136.246 48.3772C137.248 48.6174 138.298 47.9684 138.56 46.8753C138.822 45.7823 138.18 44.7277 137.178 44.4875C136.667 44.3648 135.821 44.4577 135.045 44.7643C134.665 44.9143 134.33 45.1051 134.08 45.3193C133.828 45.535 133.688 45.7516 133.639 45.9527Z" fill="#A78268" stroke="#76563F"/>
<path fill-rule="evenodd" clip-rule="evenodd" d="M120.836 49.5719C119.039 45.5503 119.159 42.3904 120.359 39.9417C122.57 42.8714 128.93 48.8389 136.102 48.0905C139.936 47.6905 142.419 49.9441 143.949 52.7951C145.278 55.2714 145.889 58.1983 146.042 60.2284C143.23 64.6416 140.581 68.6902 134.92 63.7462C131.477 60.7396 129.59 60.1707 128.188 59.7478C125.954 59.0741 124.948 58.771 120.836 49.5719Z" fill="#E37526"/>
<path d="M133.649 32.5912C138.361 30.8074 148.265 29.1029 150.18 36.5549C152.574 45.8698 158.079 50.7889 151.681 53.8825C149.341 55.0144 147.664 57.6821 146.042 60.2284M133.649 32.5912C127.147 33.2603 115.482 37.5933 120.836 49.5719M133.649 32.5912C129.33 33.0357 122.732 35.0968 120.359 39.9417M120.836 49.5719C119.039 45.5503 119.159 42.3904 120.359 39.9417M120.836 49.5719C124.948 58.771 125.954 59.0741 128.188 59.7478C129.59 60.1707 131.477 60.7396 134.92 63.7462C140.581 68.6902 143.23 64.6416 146.042 60.2284M120.359 39.9417C122.57 42.8714 128.93 48.8389 136.102 48.0905C139.936 47.6904 142.419 49.9441 143.949 52.7951C145.278 55.2714 145.889 58.1983 146.042 60.2284M146.043 60.2432C146.043 60.2382 146.042 60.2333 146.042 60.2284" stroke="#AF5E24" stroke-width="0.5" stroke-linecap="round" stroke-linejoin="round"/>
<path d="M125.101 61.244C130.592 55.8535 138.19 62.4301 141.303 66.3922C144.771 69.0043 149.355 74.1778 148.883 79.5523C148.645 82.2686 147.116 85.0363 143.499 87.5506C130.031 96.9118 135.79 90.3474 124.117 92.4094C116.715 93.7169 116.539 88.882 116.412 83.6507C116.339 80.6324 116.282 77.4821 114.863 75.3036C110.984 69.3493 118.239 67.9821 125.101 61.244Z" fill="#EE8E48"/>
<path d="M148.883 79.5523C145.476 80.918 136.948 82.7409 131.194 78.3943C125.44 74.0477 118.936 80.0955 116.404 83.6628M141.303 66.3922C138.19 62.4301 130.592 55.8535 125.101 61.244C118.239 67.9821 110.984 69.3493 114.863 75.3036C118.742 81.2579 112.445 94.4714 124.117 92.4094C135.79 90.3474 130.031 96.9118 143.499 87.5506C154.273 80.0616 146.524 70.3246 141.303 66.3922Z" stroke="#AF5E24" stroke-width="0.5" stroke-linecap="round" stroke-linejoin="round"/>
<path d="M137.366 78.7817C137.04 79.8077 135.841 80.4745 134.179 80.7491C132.558 81.0169 130.72 80.8668 129.484 80.4741C127.115 79.7214 125.805 77.1912 126.558 74.8226C127.31 72.454 129.841 71.144 132.209 71.8967C133.4 72.2751 134.903 73.4181 136.011 74.8141C136.559 75.5057 136.992 76.2361 137.238 76.933C137.485 77.6324 137.532 78.2614 137.366 78.7817Z" fill="#262925" stroke="#191A18"/>
<path d="M134.407 77.8366C134.287 78.2146 133.831 78.5256 133.055 78.6672C132.312 78.8028 131.471 78.7399 130.923 78.5657C129.941 78.2537 129.377 77.1554 129.718 76.0842C130.058 75.013 131.152 74.4415 132.134 74.7535C132.635 74.9128 133.312 75.4293 133.818 76.0928C134.065 76.4175 134.254 76.7539 134.357 77.0667C134.461 77.3815 134.47 77.6396 134.407 77.8366Z" fill="#A78268" stroke="#76563F"/>
<path fill-rule="evenodd" clip-rule="evenodd" d="M143.499 87.5506C147.116 85.0363 148.645 82.2686 148.883 79.5523C145.476 80.918 136.948 82.7409 131.194 78.3943C128.118 76.0708 124.828 76.7175 122.045 78.3678C119.627 79.8012 117.592 81.9918 116.412 83.6507C116.539 88.882 116.715 93.7169 124.117 92.4094C128.619 91.6142 130.528 92.1019 131.947 92.4644C134.208 93.042 135.225 93.3018 143.499 87.5506Z" fill="#E37526"/>
<path d="M141.303 66.3922C138.19 62.4301 130.592 55.8535 125.101 61.244C118.239 67.9821 110.984 69.3493 114.863 75.3036C116.282 77.4821 116.339 80.6324 116.412 83.6507M141.303 66.3922C146.524 70.3246 154.273 80.0616 143.499 87.5506M141.303 66.3922C144.771 69.0043 149.355 74.1778 148.883 79.5523M143.499 87.5506C147.116 85.0363 148.645 82.2686 148.883 79.5523M143.499 87.5506C135.225 93.3018 134.208 93.042 131.947 92.4644C130.528 92.1019 128.619 91.6142 124.117 92.4094C116.715 93.7169 116.539 88.882 116.412 83.6507M148.883 79.5523C145.476 80.918 136.948 82.7409 131.194 78.3943C128.118 76.0708 124.828 76.7175 122.045 78.3678C119.627 79.8012 117.592 81.9918 116.412 83.6507M116.404 83.6628C116.407 83.6588 116.41 83.6547 116.412 83.6507" stroke="#AF5E24" stroke-width="0.5" stroke-linecap="round" stroke-linejoin="round"/>
</svg>
