<svg width="147" height="155" viewBox="0 0 147 155" fill="none" xmlns="http://www.w3.org/2000/svg">
<path d="M15.1484 56.5L46.1484 140.5M31.1484 74L46.1484 129.5M54.1484 62L51.6484 140.5M78.1484 79.5L64.029 123.5M56.6484 146.5L64.029 123.5M94.6484 90L60.6484 154.5M113.648 87.5L73.1484 144M135.148 58L84.6484 118M116.148 60L86.6484 129.5M109.648 53L83.1484 126.5M107.648 26L73.1484 123.5M89.1484 31.5L67.6484 126.5M83.1484 9.5L64.029 123.5M54.1484 15.5L60.6484 114.5M24.1484 38L49.6484 121M11.6484 31.5L40.1484 116" stroke="#829F7E" stroke-linecap="round" stroke-linejoin="round"/>
<path d="M15.1686 49.1355C14.6721 48.2992 14.1341 48.787 13.9272 49.1355C13.4307 49.9718 13.7204 51.9231 13.9272 52.7942H15.1686C15.3755 51.9231 15.6651 49.9718 15.1686 49.1355Z" fill="#FCF4E1" stroke="#76563F" stroke-width="0.1" stroke-linecap="round" stroke-linejoin="round"/>
<path d="M10.1334 50.4588C9.08011 50.1631 9.10937 50.8284 9.25567 51.198C9.60677 52.085 11.4501 53.2923 12.3279 53.7851L13.2056 53.0459C12.6205 52.3067 11.1868 50.7545 10.1334 50.4588Z" fill="#FCF4E1" stroke="#76563F" stroke-width="0.1" stroke-linecap="round" stroke-linejoin="round"/>
<path d="M7.68432 54.3927C6.69124 54.8109 7.27053 55.2638 7.68432 55.4381C8.6774 55.8562 10.9946 55.6123 12.0291 55.4381L12.0291 54.3927C10.9946 54.2185 8.6774 53.9746 7.68432 54.3927Z" fill="#FCF4E1" stroke="#76563F" stroke-width="0.1" stroke-linecap="round" stroke-linejoin="round"/>
<path d="M9.25579 58.6328C8.90468 59.5198 9.69468 59.4952 10.1336 59.372C11.1869 59.0763 12.6206 57.524 13.2058 56.7849L12.328 56.0457C11.4502 56.5385 9.6069 57.7458 9.25579 58.6328Z" fill="#FCF4E1" stroke="#76563F" stroke-width="0.1" stroke-linecap="round" stroke-linejoin="round"/>
<path d="M15.1686 60.6953C14.6721 61.5316 14.1341 61.0437 13.9272 60.6953C13.4307 59.859 13.7204 57.9077 13.9272 57.0366H15.1686C15.3755 57.9077 15.6651 59.859 15.1686 60.6953Z" fill="#FCF4E1" stroke="#76563F" stroke-width="0.1" stroke-linecap="round" stroke-linejoin="round"/>
<path d="M19.8402 58.6328C20.1913 59.5198 19.4013 59.4952 18.9624 59.372C17.9091 59.0763 16.4754 57.5241 15.8902 56.7849L16.768 56.0457C17.6457 56.5385 19.489 57.7458 19.8402 58.6328Z" fill="#FCF4E1" stroke="#76563F" stroke-width="0.1" stroke-linecap="round" stroke-linejoin="round"/>
<path d="M21.4116 54.3927C22.4047 54.8109 21.8254 55.2638 21.4116 55.4381C20.4185 55.8562 18.1013 55.6123 17.0669 55.4381L17.0669 54.3927C18.1013 54.2185 20.4185 53.9746 21.4116 54.3927Z" fill="#FCF4E1" stroke="#76563F" stroke-width="0.1" stroke-linecap="round" stroke-linejoin="round"/>
<path d="M18.9623 50.4588C20.0156 50.1631 19.9863 50.8284 19.84 51.198C19.4889 52.085 17.6456 53.2923 16.7678 53.7851L15.8901 53.0459C16.4752 52.3067 17.9089 50.7545 18.9623 50.4588Z" fill="#FCF4E1" stroke="#76563F" stroke-width="0.1" stroke-linecap="round" stroke-linejoin="round"/>
<path d="M12.8034 49.3876C12.0054 48.7175 11.744 49.3205 11.7131 49.7058C11.6389 50.6304 12.7379 52.4167 13.2966 53.1942L14.3869 52.876C14.1916 51.9924 13.6015 50.0577 12.8034 49.3876Z" fill="#FFF9E9" stroke="#76563F" stroke-width="0.1" stroke-linecap="round" stroke-linejoin="round"/>
<path d="M8.63548 52.0804C7.53114 52.069 7.86002 52.6717 8.1625 52.9744C8.88846 53.7011 11.1342 54.3536 12.1663 54.5891L12.6393 53.6951C11.7648 53.1616 9.73982 52.0919 8.63548 52.0804Z" fill="#FFF9E9" stroke="#76563F" stroke-width="0.1" stroke-linecap="round" stroke-linejoin="round"/>
<path d="M7.9895 56.4178C7.2619 57.1036 8.00381 57.4012 8.46571 57.4642C9.57428 57.6155 11.6054 56.7478 12.4823 56.2949L12.0061 55.2485C10.9704 55.3525 8.7171 55.7319 7.9895 56.4178Z" fill="#FFF9E9" stroke="#76563F" stroke-width="0.1" stroke-linecap="round" stroke-linejoin="round"/>
<path d="M11.1898 59.9755C11.2729 60.9144 12.0253 60.6877 12.3911 60.4569C13.269 59.9032 13.9159 58.0494 14.1296 57.1917L12.9283 56.7103C12.3141 57.4075 11.1066 59.0366 11.1898 59.9755Z" fill="#FFF9E9" stroke="#76563F" stroke-width="0.1" stroke-linecap="round" stroke-linejoin="round"/>
<path d="M17.5837 60.2943C17.5095 61.2189 16.8259 60.8916 16.4933 60.6124C15.6953 59.9424 15.1051 58.0076 14.9098 57.124L16.0001 56.8058C16.5589 57.5834 17.6578 59.3696 17.5837 60.2943Z" fill="#FFF9E9" stroke="#76563F" stroke-width="0.1" stroke-linecap="round" stroke-linejoin="round"/>
<path d="M21.1344 57.0256C21.8604 57.7522 21.1216 57.9244 20.6614 57.9196C19.5571 57.9081 17.5321 56.8384 16.6576 56.305L17.1306 55.411C18.1627 55.6464 20.4084 56.2989 21.1344 57.0256Z" fill="#FFF9E9" stroke="#76563F" stroke-width="0.1" stroke-linecap="round" stroke-linejoin="round"/>
<path d="M20.8311 52.5358C21.9397 52.6871 21.6105 53.2965 21.3073 53.5823C20.5797 54.2681 18.3264 54.6475 17.2907 54.7515L16.8145 53.7051C17.6915 53.2523 19.7226 52.3845 20.8311 52.5358Z" fill="#FFF9E9" stroke="#76563F" stroke-width="0.1" stroke-linecap="round" stroke-linejoin="round"/>
<path d="M16.9057 49.5431C17.7836 48.9893 18.0724 49.6333 18.1071 50.0245C18.1902 50.9634 16.9827 52.5925 16.3686 53.2897L15.1672 52.8083C15.3809 51.9507 16.0278 50.0969 16.9057 49.5431Z" fill="#FFF9E9" stroke="#76563F" stroke-width="0.1" stroke-linecap="round" stroke-linejoin="round"/>
<ellipse cx="14.5894" cy="54.9503" rx="2.48446" ry="2.09218" fill="#FCDC8A" stroke="#F5CF6C"/>
<path d="M10.2313 23.2692C9.53527 22.59 9.14194 23.2004 9.03228 23.5905C8.7691 24.5268 9.55393 26.3367 9.97924 27.1246L11.1783 26.8033C11.1527 25.9083 10.9274 23.9485 10.2313 23.2692Z" fill="#FCF4E1" stroke="#76563F" stroke-width="0.1" stroke-linecap="round" stroke-linejoin="round"/>
<path d="M5.71053 25.8506C4.61657 25.8376 4.81701 26.4726 5.05398 26.7918C5.6227 27.5577 7.71569 28.2468 8.6911 28.4956L9.34764 27.5544C8.59109 26.9919 6.80449 25.8636 5.71053 25.8506Z" fill="#FCF4E1" stroke="#76563F" stroke-width="0.1" stroke-linecap="round" stroke-linejoin="round"/>
<path d="M4.36291 30.2844C3.51189 30.9453 4.18869 31.2329 4.63347 31.2941C5.70094 31.441 7.87605 30.6056 8.83017 30.1696L8.55961 29.1599C7.5153 29.2593 5.21393 29.6234 4.36291 30.2844Z" fill="#FCF4E1" stroke="#76563F" stroke-width="0.1" stroke-linecap="round" stroke-linejoin="round"/>
<path d="M6.97811 33.9733C6.86854 34.9209 7.62524 34.6927 8.01729 34.4601C8.9582 33.9019 9.94128 32.0314 10.3152 31.166L9.27604 30.6792C8.55572 31.3824 7.08768 33.0256 6.97811 33.9733Z" fill="#FCF4E1" stroke="#76563F" stroke-width="0.1" stroke-linecap="round" stroke-linejoin="round"/>
<path d="M13.2233 34.4351C12.9601 35.3714 12.3142 35.0394 12.0242 34.7564C11.3281 34.0771 11.1029 32.1173 11.0773 31.2223L12.2763 30.901C12.7016 31.6889 13.4865 33.4988 13.2233 34.4351Z" fill="#FCF4E1" stroke="#76563F" stroke-width="0.1" stroke-linecap="round" stroke-linejoin="round"/>
<path d="M17.2019 31.2338C17.7706 31.9997 17.0012 32.1804 16.5454 32.175C15.4514 32.162 13.6648 31.0337 12.9082 30.4712L13.5648 29.53C14.5402 29.7788 16.6332 30.4679 17.2019 31.2338Z" fill="#FCF4E1" stroke="#76563F" stroke-width="0.1" stroke-linecap="round" stroke-linejoin="round"/>
<path d="M17.6225 26.7315C18.6899 26.8784 18.2476 27.4659 17.893 27.7412C17.042 28.4022 14.7406 28.7663 13.6963 28.8657L13.4258 27.856C14.3799 27.42 16.555 26.5846 17.6225 26.7315Z" fill="#FCF4E1" stroke="#76563F" stroke-width="0.1" stroke-linecap="round" stroke-linejoin="round"/>
<path d="M14.2384 23.5655C15.1793 23.0073 15.3233 23.6575 15.2776 24.0523C15.168 25 13.7 26.6433 12.9797 27.3464L11.9405 26.8596C12.3144 25.9942 13.2975 24.1237 14.2384 23.5655Z" fill="#FCF4E1" stroke="#76563F" stroke-width="0.1" stroke-linecap="round" stroke-linejoin="round"/>
<path d="M8.01222 24.1249C7.06791 23.6842 6.97156 24.3343 7.04142 24.7144C7.20908 25.6267 8.73291 27.0677 9.47386 27.6741L10.4447 27.0846C10.0273 26.2816 8.95653 24.5656 8.01222 24.1249Z" fill="#FFF9E9" stroke="#76563F" stroke-width="0.1" stroke-linecap="round" stroke-linejoin="round"/>
<path d="M4.68329 27.8047C3.61361 28.0795 4.08727 28.5765 4.45781 28.7907C5.3471 29.3047 7.68519 29.3537 8.74306 29.314L8.96854 28.3281C7.98582 28.0391 5.75297 27.53 4.68329 27.8047Z" fill="#FFF9E9" stroke="#76563F" stroke-width="0.1" stroke-linecap="round" stroke-linejoin="round"/>
<path d="M5.18178 32.1614C4.65648 33.0122 5.45012 33.1076 5.9126 33.0489C7.02256 32.9082 8.75983 31.5443 9.48973 30.88L8.75891 29.9924C7.78541 30.3609 5.70708 31.3106 5.18178 32.1614Z" fill="#FFF9E9" stroke="#76563F" stroke-width="0.1" stroke-linecap="round" stroke-linejoin="round"/>
<path d="M9.19394 34.7697C9.51728 35.655 10.1853 35.2413 10.4789 34.9237C11.1836 34.1616 11.3287 32.2036 11.3131 31.3198L10.0281 31.1657C9.61533 31.9981 8.87061 33.8843 9.19394 34.7697Z" fill="#FFF9E9" stroke="#76563F" stroke-width="0.1" stroke-linecap="round" stroke-linejoin="round"/>
<path d="M15.4524 33.4227C15.6201 34.335 14.8751 34.1958 14.4816 34.0122C13.5373 33.5715 12.4666 31.8554 12.0492 31.0525L13.02 30.4629C13.761 31.0694 15.2848 32.5104 15.4524 33.4227Z" fill="#FFF9E9" stroke="#76563F" stroke-width="0.1" stroke-linecap="round" stroke-linejoin="round"/>
<path d="M18.0362 29.3464C18.9255 29.8604 18.2564 30.2179 17.8107 30.3323C16.7411 30.6071 14.5082 30.0979 13.5255 29.809L13.751 28.823C14.8088 28.7833 17.1469 28.8324 18.0362 29.3464Z" fill="#FFF9E9" stroke="#76563F" stroke-width="0.1" stroke-linecap="round" stroke-linejoin="round"/>
<path d="M16.5811 25.0881C17.6911 24.9473 17.5308 25.6211 17.3119 25.9756C16.7866 26.8264 14.7083 27.7761 13.7348 28.1446L13.004 27.2571C13.7339 26.5927 15.4712 25.2289 16.5811 25.0881Z" fill="#FFF9E9" stroke="#76563F" stroke-width="0.1" stroke-linecap="round" stroke-linejoin="round"/>
<path d="M12.0149 23.2133C12.7195 22.4512 13.1652 22.9985 13.2999 23.3674C13.6232 24.2528 12.8785 26.1389 12.4657 26.9713L11.1807 26.8173C11.1652 25.9335 11.3102 23.9755 12.0149 23.2133Z" fill="#FFF9E9" stroke="#76563F" stroke-width="0.1" stroke-linecap="round" stroke-linejoin="round"/>
<ellipse cx="11.1769" cy="29.0358" rx="2.48446" ry="2.09218" transform="rotate(-15 11.1769 29.0358)" fill="#FCDC8A" stroke="#F5CF6C"/>
<path d="M26.2225 30.6561C25.9594 29.7198 25.3135 30.0518 25.0235 30.3349C24.3274 31.0141 24.1022 32.9739 24.0765 33.8689L25.2756 34.1902C25.7009 33.4023 26.4857 31.5924 26.2225 30.6561Z" fill="#FCF4E1" stroke="#76563F" stroke-width="0.1" stroke-linecap="round" stroke-linejoin="round"/>
<path d="M21.0167 30.6312C20.0758 30.073 19.9319 30.7231 19.9775 31.118C20.0871 32.0657 21.5551 33.7089 22.2755 34.4121L23.3146 33.9253C22.9407 33.0599 21.9576 31.1894 21.0167 30.6312Z" fill="#FCF4E1" stroke="#76563F" stroke-width="0.1" stroke-linecap="round" stroke-linejoin="round"/>
<path d="M17.6327 33.7971C16.5652 33.944 17.0075 34.5315 17.3621 34.8069C18.2131 35.4678 20.5145 35.8319 21.5588 35.9314L21.8294 34.9217C20.8752 34.4856 18.7001 33.6503 17.6327 33.7971Z" fill="#FCF4E1" stroke="#76563F" stroke-width="0.1" stroke-linecap="round" stroke-linejoin="round"/>
<path d="M18.0532 38.2995C17.4845 39.0654 18.254 39.2461 18.7098 39.2407C19.8037 39.2277 21.5903 38.0994 22.3469 37.5369L21.6903 36.5957C20.7149 36.8445 18.6219 37.5336 18.0532 38.2995Z" fill="#FCF4E1" stroke="#76563F" stroke-width="0.1" stroke-linecap="round" stroke-linejoin="round"/>
<path d="M23.2309 41.822C22.5348 42.5013 22.1415 41.8909 22.0318 41.5008C21.7686 40.5645 22.5534 38.7546 22.9787 37.9667L24.1778 38.288C24.1522 39.183 23.9269 41.1428 23.2309 41.822Z" fill="#FCF4E1" stroke="#76563F" stroke-width="0.1" stroke-linecap="round" stroke-linejoin="round"/>
<path d="M28.277 41.0389C28.3866 41.9866 27.6299 41.7583 27.2378 41.5257C26.2969 40.9675 25.3139 39.0971 24.9399 38.2316L25.9791 37.7448C26.6994 38.448 28.1674 40.0913 28.277 41.0389Z" fill="#FCF4E1" stroke="#76563F" stroke-width="0.1" stroke-linecap="round" stroke-linejoin="round"/>
<path d="M30.8922 37.35C31.7432 38.011 31.0664 38.2986 30.6217 38.3598C29.5542 38.5066 27.3791 37.6713 26.425 37.2353L26.6955 36.2255C27.7398 36.325 30.0412 36.6891 30.8922 37.35Z" fill="#FCF4E1" stroke="#76563F" stroke-width="0.1" stroke-linecap="round" stroke-linejoin="round"/>
<path d="M29.5446 32.9163C30.6386 32.9033 30.4381 33.5383 30.2011 33.8574C29.6324 34.6234 27.5394 35.3124 26.564 35.5613L25.9075 34.6201C26.664 34.0576 28.4506 32.9292 29.5446 32.9163Z" fill="#FCF4E1" stroke="#76563F" stroke-width="0.1" stroke-linecap="round" stroke-linejoin="round"/>
<path d="M23.8729 30.2875C23.2754 29.4337 22.8669 29.9485 22.7373 30.3126C22.4264 31.1866 23.0256 33.1964 23.364 34.0921L24.4995 34.0669C24.5396 33.1629 24.4703 31.1413 23.8729 30.2875Z" fill="#FFF9E9" stroke="#76563F" stroke-width="0.1" stroke-linecap="round" stroke-linejoin="round"/>
<path d="M19.1499 31.8098C18.0861 31.5129 18.2478 32.1802 18.4616 32.551C18.9748 33.4407 20.9751 34.6523 21.9111 35.1468L22.5993 34.4057C21.8927 33.6641 20.2136 32.1067 19.1499 31.8098Z" fill="#FFF9E9" stroke="#76563F" stroke-width="0.1" stroke-linecap="round" stroke-linejoin="round"/>
<path d="M17.4034 35.8322C16.5231 36.3063 17.1627 36.7857 17.5925 36.9662C18.6241 37.3993 20.8106 37.0867 21.7749 36.8764L21.5857 35.7423C20.5584 35.5747 18.2837 35.358 17.4034 35.8322Z" fill="#FFF9E9" stroke="#76563F" stroke-width="0.1" stroke-linecap="round" stroke-linejoin="round"/>
<path d="M19.5738 40.097C19.4111 41.0254 20.1965 41.0011 20.6096 40.8729C21.6009 40.5652 22.7056 38.942 23.134 38.1689L22.0982 37.393C21.3245 37.9075 19.7365 39.1685 19.5738 40.097Z" fill="#FFF9E9" stroke="#76563F" stroke-width="0.1" stroke-linecap="round" stroke-linejoin="round"/>
<path d="M25.6673 42.0597C25.3564 42.9336 24.7807 42.4406 24.5318 42.0849C23.9344 41.2311 23.8651 39.2095 23.9051 38.3054L25.0406 38.2803C25.3791 39.176 25.9783 41.1858 25.6673 42.0597Z" fill="#FFF9E9" stroke="#76563F" stroke-width="0.1" stroke-linecap="round" stroke-linejoin="round"/>
<path d="M29.943 39.8214C30.4561 40.7112 29.698 40.6862 29.2547 40.5625C28.191 40.2656 26.5119 38.7083 25.8053 37.9667L26.4935 37.2256C27.4295 37.7201 29.4298 38.9316 29.943 39.8214Z" fill="#FFF9E9" stroke="#76563F" stroke-width="0.1" stroke-linecap="round" stroke-linejoin="round"/>
<path d="M30.812 35.4062C31.8437 35.8392 31.368 36.3426 31.0012 36.5402C30.1209 37.0144 27.8461 36.7977 26.8188 36.63L26.6297 35.496C27.5939 35.2856 29.7804 34.9731 30.812 35.4062Z" fill="#FFF9E9" stroke="#76563F" stroke-width="0.1" stroke-linecap="round" stroke-linejoin="round"/>
<path d="M27.795 31.4995C28.7863 31.1918 28.8986 31.8885 28.8308 32.2754C28.6681 33.2038 27.0801 34.4649 26.3064 34.9794L25.2706 34.2035C25.699 33.4303 26.8037 31.8071 27.795 31.4995Z" fill="#FFF9E9" stroke="#76563F" stroke-width="0.1" stroke-linecap="round" stroke-linejoin="round"/>
<ellipse cx="24.1584" cy="36.1229" rx="2.48446" ry="2.09218" transform="rotate(15 24.1584 36.1229)" fill="#FCDC8A" stroke="#F5CF6C"/>
<path d="M111.223 18.6561C110.959 17.7198 110.314 18.0518 110.023 18.3349C109.327 19.0141 109.102 20.9739 109.077 21.8689L110.276 22.1902C110.701 21.4023 111.486 19.5924 111.223 18.6561Z" fill="#FCF4E1" stroke="#76563F" stroke-width="0.1" stroke-linecap="round" stroke-linejoin="round"/>
<path d="M106.017 18.6312C105.076 18.073 104.932 18.7231 104.978 19.118C105.087 20.0657 106.555 21.7089 107.275 22.4121L108.315 21.9253C107.941 21.0599 106.958 19.1894 106.017 18.6312Z" fill="#FCF4E1" stroke="#76563F" stroke-width="0.1" stroke-linecap="round" stroke-linejoin="round"/>
<path d="M102.633 21.7971C101.565 21.944 102.008 22.5315 102.362 22.8069C103.213 23.4678 105.515 23.8319 106.559 23.9314L106.829 22.9217C105.875 22.4856 103.7 21.6503 102.633 21.7971Z" fill="#FCF4E1" stroke="#76563F" stroke-width="0.1" stroke-linecap="round" stroke-linejoin="round"/>
<path d="M103.053 26.2995C102.485 27.0654 103.254 27.2461 103.71 27.2407C104.804 27.2277 106.59 26.0994 107.347 25.5369L106.69 24.5957C105.715 24.8445 103.622 25.5336 103.053 26.2995Z" fill="#FCF4E1" stroke="#76563F" stroke-width="0.1" stroke-linecap="round" stroke-linejoin="round"/>
<path d="M108.231 29.822C107.535 30.5013 107.141 29.8909 107.032 29.5008C106.769 28.5645 107.553 26.7546 107.979 25.9667L109.178 26.288C109.152 27.183 108.927 29.1428 108.231 29.822Z" fill="#FCF4E1" stroke="#76563F" stroke-width="0.1" stroke-linecap="round" stroke-linejoin="round"/>
<path d="M113.277 29.0389C113.387 29.9866 112.63 29.7583 112.238 29.5257C111.297 28.9675 110.314 27.0971 109.94 26.2316L110.979 25.7448C111.699 26.448 113.167 28.0913 113.277 29.0389Z" fill="#FCF4E1" stroke="#76563F" stroke-width="0.1" stroke-linecap="round" stroke-linejoin="round"/>
<path d="M115.892 25.35C116.743 26.011 116.066 26.2986 115.622 26.3598C114.554 26.5066 112.379 25.6713 111.425 25.2353L111.696 24.2255C112.74 24.325 115.041 24.6891 115.892 25.35Z" fill="#FCF4E1" stroke="#76563F" stroke-width="0.1" stroke-linecap="round" stroke-linejoin="round"/>
<path d="M114.545 20.9163C115.639 20.9033 115.438 21.5383 115.201 21.8574C114.632 22.6234 112.539 23.3124 111.564 23.5613L110.907 22.6201C111.664 22.0576 113.451 20.9292 114.545 20.9163Z" fill="#FCF4E1" stroke="#76563F" stroke-width="0.1" stroke-linecap="round" stroke-linejoin="round"/>
<path d="M108.873 18.2875C108.275 17.4337 107.867 17.9485 107.737 18.3126C107.426 19.1866 108.026 21.1964 108.364 22.0921L109.5 22.0669C109.54 21.1629 109.47 19.1413 108.873 18.2875Z" fill="#FFF9E9" stroke="#76563F" stroke-width="0.1" stroke-linecap="round" stroke-linejoin="round"/>
<path d="M104.15 19.8098C103.086 19.5129 103.248 20.1802 103.462 20.551C103.975 21.4407 105.975 22.6523 106.911 23.1468L107.599 22.4057C106.893 21.6641 105.214 20.1067 104.15 19.8098Z" fill="#FFF9E9" stroke="#76563F" stroke-width="0.1" stroke-linecap="round" stroke-linejoin="round"/>
<path d="M102.403 23.8322C101.523 24.3063 102.163 24.7857 102.593 24.9662C103.624 25.3993 105.811 25.0867 106.775 24.8764L106.586 23.7423C105.558 23.5747 103.284 23.358 102.403 23.8322Z" fill="#FFF9E9" stroke="#76563F" stroke-width="0.1" stroke-linecap="round" stroke-linejoin="round"/>
<path d="M104.574 28.097C104.411 29.0254 105.197 29.0011 105.61 28.8729C106.601 28.5652 107.706 26.942 108.134 26.1689L107.098 25.393C106.324 25.9075 104.736 27.1685 104.574 28.097Z" fill="#FFF9E9" stroke="#76563F" stroke-width="0.1" stroke-linecap="round" stroke-linejoin="round"/>
<path d="M110.667 30.0597C110.356 30.9336 109.781 30.4406 109.532 30.0849C108.934 29.2311 108.865 27.2095 108.905 26.3054L110.041 26.2803C110.379 27.176 110.978 29.1858 110.667 30.0597Z" fill="#FFF9E9" stroke="#76563F" stroke-width="0.1" stroke-linecap="round" stroke-linejoin="round"/>
<path d="M114.943 27.8214C115.456 28.7112 114.698 28.6862 114.255 28.5625C113.191 28.2656 111.512 26.7083 110.805 25.9667L111.494 25.2256C112.43 25.7201 114.43 26.9316 114.943 27.8214Z" fill="#FFF9E9" stroke="#76563F" stroke-width="0.1" stroke-linecap="round" stroke-linejoin="round"/>
<path d="M115.812 23.4062C116.844 23.8392 116.368 24.3426 116.001 24.5402C115.121 25.0144 112.846 24.7977 111.819 24.63L111.63 23.496C112.594 23.2856 114.78 22.9731 115.812 23.4062Z" fill="#FFF9E9" stroke="#76563F" stroke-width="0.1" stroke-linecap="round" stroke-linejoin="round"/>
<path d="M112.795 19.4995C113.786 19.1918 113.899 19.8885 113.831 20.2754C113.668 21.2038 112.08 22.4649 111.306 22.9794L110.271 22.2035C110.699 21.4303 111.804 19.8071 112.795 19.4995Z" fill="#FFF9E9" stroke="#76563F" stroke-width="0.1" stroke-linecap="round" stroke-linejoin="round"/>
<ellipse cx="109.158" cy="24.1229" rx="2.48446" ry="2.09218" transform="rotate(15 109.158 24.1229)" fill="#FCDC8A" stroke="#F5CF6C"/>
<path d="M55.2225 8.65614C54.9594 7.71984 54.3135 8.05182 54.0235 8.33485C53.3274 9.01412 53.1022 10.9739 53.0765 11.8689L54.2756 12.1902C54.7009 11.4023 55.4857 9.59244 55.2225 8.65614Z" fill="#FCF4E1" stroke="#76563F" stroke-width="0.1" stroke-linecap="round" stroke-linejoin="round"/>
<path d="M50.0167 8.6312C49.0758 8.07298 48.9319 8.72315 48.9775 9.118C49.0871 10.0657 50.5551 11.7089 51.2755 12.4121L52.3146 11.9253C51.9407 11.0599 50.9576 9.18942 50.0167 8.6312Z" fill="#FCF4E1" stroke="#76563F" stroke-width="0.1" stroke-linecap="round" stroke-linejoin="round"/>
<path d="M46.6327 11.7971C45.5652 11.944 46.0075 12.5315 46.3621 12.8069C47.2131 13.4678 49.5145 13.8319 50.5588 13.9314L50.8294 12.9217C49.8752 12.4856 47.7001 11.6503 46.6327 11.7971Z" fill="#FCF4E1" stroke="#76563F" stroke-width="0.1" stroke-linecap="round" stroke-linejoin="round"/>
<path d="M47.0532 16.2995C46.4845 17.0654 47.254 17.2461 47.7098 17.2407C48.8037 17.2277 50.5903 16.0994 51.3469 15.5369L50.6903 14.5957C49.7149 14.8445 47.6219 15.5336 47.0532 16.2995Z" fill="#FCF4E1" stroke="#76563F" stroke-width="0.1" stroke-linecap="round" stroke-linejoin="round"/>
<path d="M52.2309 19.822C51.5348 20.5013 51.1415 19.8909 51.0318 19.5008C50.7686 18.5645 51.5534 16.7546 51.9787 15.9667L53.1778 16.288C53.1522 17.183 52.9269 19.1428 52.2309 19.822Z" fill="#FCF4E1" stroke="#76563F" stroke-width="0.1" stroke-linecap="round" stroke-linejoin="round"/>
<path d="M57.277 19.0389C57.3866 19.9866 56.6299 19.7583 56.2378 19.5257C55.2969 18.9675 54.3139 17.0971 53.9399 16.2316L54.9791 15.7448C55.6994 16.448 57.1674 18.0913 57.277 19.0389Z" fill="#FCF4E1" stroke="#76563F" stroke-width="0.1" stroke-linecap="round" stroke-linejoin="round"/>
<path d="M59.8922 15.35C60.7432 16.011 60.0664 16.2986 59.6217 16.3598C58.5542 16.5066 56.3791 15.6713 55.425 15.2353L55.6955 14.2255C56.7398 14.325 59.0412 14.6891 59.8922 15.35Z" fill="#FCF4E1" stroke="#76563F" stroke-width="0.1" stroke-linecap="round" stroke-linejoin="round"/>
<path d="M58.5446 10.9163C59.6386 10.9033 59.4381 11.5383 59.2011 11.8574C58.6324 12.6234 56.5394 13.3124 55.564 13.5613L54.9075 12.6201C55.664 12.0576 57.4506 10.9292 58.5446 10.9163Z" fill="#FCF4E1" stroke="#76563F" stroke-width="0.1" stroke-linecap="round" stroke-linejoin="round"/>
<path d="M52.8729 8.28749C52.2754 7.43368 51.8669 7.94851 51.7373 8.31265C51.4264 9.18658 52.0256 11.1964 52.364 12.0921L53.4995 12.0669C53.5396 11.1629 53.4703 9.14129 52.8729 8.28749Z" fill="#FFF9E9" stroke="#76563F" stroke-width="0.1" stroke-linecap="round" stroke-linejoin="round"/>
<path d="M48.1499 9.80983C47.0861 9.51294 47.2478 10.1802 47.4616 10.551C47.9748 11.4407 49.9751 12.6523 50.9111 13.1468L51.5993 12.4057C50.8927 11.6641 49.2136 10.1067 48.1499 9.80983Z" fill="#FFF9E9" stroke="#76563F" stroke-width="0.1" stroke-linecap="round" stroke-linejoin="round"/>
<path d="M46.4034 13.8322C45.5231 14.3063 46.1627 14.7857 46.5925 14.9662C47.6241 15.3993 49.8106 15.0867 50.7749 14.8764L50.5857 13.7423C49.5584 13.5747 47.2837 13.358 46.4034 13.8322Z" fill="#FFF9E9" stroke="#76563F" stroke-width="0.1" stroke-linecap="round" stroke-linejoin="round"/>
<path d="M48.5738 18.097C48.4111 19.0254 49.1965 19.0011 49.6096 18.8729C50.6009 18.5652 51.7056 16.942 52.134 16.1689L51.0982 15.393C50.3245 15.9075 48.7365 17.1685 48.5738 18.097Z" fill="#FFF9E9" stroke="#76563F" stroke-width="0.1" stroke-linecap="round" stroke-linejoin="round"/>
<path d="M54.6673 20.0597C54.3564 20.9336 53.7807 20.4406 53.5318 20.0849C52.9344 19.2311 52.8651 17.2095 52.9051 16.3054L54.0406 16.2803C54.3791 17.176 54.9783 19.1858 54.6673 20.0597Z" fill="#FFF9E9" stroke="#76563F" stroke-width="0.1" stroke-linecap="round" stroke-linejoin="round"/>
<path d="M58.943 17.8214C59.4561 18.7112 58.698 18.6862 58.2547 18.5625C57.191 18.2656 55.5119 16.7083 54.8053 15.9667L55.4935 15.2256C56.4295 15.7201 58.4298 16.9316 58.943 17.8214Z" fill="#FFF9E9" stroke="#76563F" stroke-width="0.1" stroke-linecap="round" stroke-linejoin="round"/>
<path d="M59.812 13.4062C60.8437 13.8392 60.368 14.3426 60.0012 14.5402C59.1209 15.0144 56.8461 14.7977 55.8188 14.63L55.6297 13.496C56.5939 13.2856 58.7804 12.9731 59.812 13.4062Z" fill="#FFF9E9" stroke="#76563F" stroke-width="0.1" stroke-linecap="round" stroke-linejoin="round"/>
<path d="M56.795 9.49946C57.7863 9.19177 57.8986 9.88854 57.8308 10.2754C57.6681 11.2038 56.0801 12.4649 55.3064 12.9794L54.2706 12.2035C54.699 11.4303 55.8037 9.80715 56.795 9.49946Z" fill="#FFF9E9" stroke="#76563F" stroke-width="0.1" stroke-linecap="round" stroke-linejoin="round"/>
<ellipse cx="53.1584" cy="14.1229" rx="2.48446" ry="2.09218" transform="rotate(15 53.1584 14.1229)" fill="#FCDC8A" stroke="#F5CF6C"/>
<path d="M52.3798 54.4177C51.6837 53.7384 51.2904 54.3488 51.1807 54.739C50.9175 55.6753 51.7024 57.4851 52.1277 58.273L53.3267 57.9517C53.3011 57.0567 53.0758 55.0969 52.3798 54.4177Z" fill="#FCF4E1" stroke="#76563F" stroke-width="0.1" stroke-linecap="round" stroke-linejoin="round"/>
<path d="M47.859 56.999C46.765 56.9861 46.9655 57.6211 47.2024 57.9402C47.7711 58.7061 49.8641 59.3952 50.8395 59.644L51.4961 58.7029C50.7395 58.1403 48.9529 57.012 47.859 56.999Z" fill="#FCF4E1" stroke="#76563F" stroke-width="0.1" stroke-linecap="round" stroke-linejoin="round"/>
<path d="M46.5113 61.4328C45.6603 62.0937 46.3371 62.3813 46.7819 62.4425C47.8494 62.5894 50.0245 61.7541 50.9786 61.318L50.708 60.3083C49.6637 60.4078 47.3624 60.7719 46.5113 61.4328Z" fill="#FCF4E1" stroke="#76563F" stroke-width="0.1" stroke-linecap="round" stroke-linejoin="round"/>
<path d="M49.1266 65.1217C49.017 66.0694 49.7737 65.8411 50.1657 65.6085C51.1066 65.0503 52.0897 63.1799 52.4636 62.3144L51.4245 61.8276C50.7042 62.5308 49.2361 64.1741 49.1266 65.1217Z" fill="#FCF4E1" stroke="#76563F" stroke-width="0.1" stroke-linecap="round" stroke-linejoin="round"/>
<path d="M55.3717 65.5835C55.1085 66.5198 54.4627 66.1879 54.1727 65.9048C53.4766 65.2256 53.2513 63.2658 53.2257 62.3708L54.4248 62.0495C54.8501 62.8374 55.6349 64.6472 55.3717 65.5835Z" fill="#FCF4E1" stroke="#76563F" stroke-width="0.1" stroke-linecap="round" stroke-linejoin="round"/>
<path d="M59.3503 62.3823C59.9191 63.1482 59.1496 63.3288 58.6938 63.3234C57.5998 63.3105 55.8132 62.1822 55.0567 61.6196L55.7132 60.6785C56.6886 60.9273 58.7816 61.6164 59.3503 62.3823Z" fill="#FCF4E1" stroke="#76563F" stroke-width="0.1" stroke-linecap="round" stroke-linejoin="round"/>
<path d="M59.7709 57.8799C60.8384 58.0268 60.396 58.6143 60.0415 58.8897C59.1904 59.5506 56.8891 59.9147 55.8448 60.0142L55.5742 59.0044C56.5283 58.5684 58.7034 57.7331 59.7709 57.8799Z" fill="#FCF4E1" stroke="#76563F" stroke-width="0.1" stroke-linecap="round" stroke-linejoin="round"/>
<path d="M56.3869 54.714C57.3278 54.1557 57.4717 54.8059 57.426 55.2008C57.3165 56.1484 55.8484 57.7917 55.1281 58.4949L54.0889 58.0081C54.4629 57.1426 55.446 55.2722 56.3869 54.714Z" fill="#FCF4E1" stroke="#76563F" stroke-width="0.1" stroke-linecap="round" stroke-linejoin="round"/>
<path d="M50.1607 55.2733C49.2164 54.8326 49.12 55.4827 49.1899 55.8628C49.3575 56.7752 50.8813 58.2161 51.6223 58.8226L52.5931 58.233C52.1757 57.4301 51.105 55.714 50.1607 55.2733Z" fill="#FFF9E9" stroke="#76563F" stroke-width="0.1" stroke-linecap="round" stroke-linejoin="round"/>
<path d="M46.8317 58.9532C45.7621 59.2279 46.2357 59.7249 46.6062 59.9391C47.4955 60.4531 49.8336 60.5022 50.8915 60.4625L51.117 59.4765C50.1343 59.1876 47.9014 58.6784 46.8317 58.9532Z" fill="#FFF9E9" stroke="#76563F" stroke-width="0.1" stroke-linecap="round" stroke-linejoin="round"/>
<path d="M47.3302 63.3098C46.8049 64.1606 47.5986 64.256 48.061 64.1974C49.171 64.0566 50.9083 62.6927 51.6382 62.0284L50.9073 61.1409C49.9338 61.5094 47.8555 62.4591 47.3302 63.3098Z" fill="#FFF9E9" stroke="#76563F" stroke-width="0.1" stroke-linecap="round" stroke-linejoin="round"/>
<path d="M51.3424 65.9181C51.6657 66.8035 52.3338 66.3897 52.6274 66.0722C53.332 65.31 53.4771 63.352 53.4615 62.4683L52.1765 62.3142C51.7638 63.1466 51.019 65.0327 51.3424 65.9181Z" fill="#FFF9E9" stroke="#76563F" stroke-width="0.1" stroke-linecap="round" stroke-linejoin="round"/>
<path d="M57.6009 64.5711C57.7685 65.4834 57.0235 65.3443 56.6301 65.1607C55.6858 64.72 54.615 63.0039 54.1976 62.2009L55.1684 61.6114C55.9094 62.2178 57.4332 63.6588 57.6009 64.5711Z" fill="#FFF9E9" stroke="#76563F" stroke-width="0.1" stroke-linecap="round" stroke-linejoin="round"/>
<path d="M60.1847 60.4948C61.0739 61.0088 60.4049 61.3663 59.9592 61.4808C58.8895 61.7555 56.6566 61.2464 55.6739 60.9574L55.8994 59.9715C56.9573 59.9318 59.2954 59.9808 60.1847 60.4948Z" fill="#FFF9E9" stroke="#76563F" stroke-width="0.1" stroke-linecap="round" stroke-linejoin="round"/>
<path d="M58.7296 56.2365C59.8395 56.0958 59.6793 56.7696 59.4604 57.1241C58.9351 57.9749 56.8567 58.9246 55.8832 59.2931L55.1524 58.4055C55.8823 57.7412 57.6196 56.3773 58.7296 56.2365Z" fill="#FFF9E9" stroke="#76563F" stroke-width="0.1" stroke-linecap="round" stroke-linejoin="round"/>
<path d="M54.1633 54.3618C54.868 53.5996 55.3136 54.1469 55.4483 54.5158C55.7717 55.4012 55.0269 57.2874 54.6142 58.1198L53.3292 57.9657C53.3136 57.0819 53.4587 55.1239 54.1633 54.3618Z" fill="#FFF9E9" stroke="#76563F" stroke-width="0.1" stroke-linecap="round" stroke-linejoin="round"/>
<ellipse cx="53.3253" cy="60.1842" rx="2.48446" ry="2.09218" transform="rotate(-15 53.3253 60.1842)" fill="#FCDC8A" stroke="#F5CF6C"/>
<path d="M80.2225 72.6561C79.9594 71.7198 79.3135 72.0518 79.0235 72.3349C78.3274 73.0141 78.1022 74.9739 78.0765 75.8689L79.2756 76.1902C79.7009 75.4023 80.4857 73.5924 80.2225 72.6561Z" fill="#FCF4E1" stroke="#76563F" stroke-width="0.1" stroke-linecap="round" stroke-linejoin="round"/>
<path d="M75.0167 72.6312C74.0758 72.073 73.9319 72.7231 73.9775 73.118C74.0871 74.0656 75.5551 75.7089 76.2755 76.4121L77.3146 75.9253C76.9407 75.0598 75.9576 73.1894 75.0167 72.6312Z" fill="#FCF4E1" stroke="#76563F" stroke-width="0.1" stroke-linecap="round" stroke-linejoin="round"/>
<path d="M71.6327 75.7972C70.5652 75.944 71.0075 76.5315 71.3621 76.8069C72.2131 77.4678 74.5145 77.832 75.5588 77.9314L75.8294 76.9217C74.8752 76.4857 72.7001 75.6503 71.6327 75.7972Z" fill="#FCF4E1" stroke="#76563F" stroke-width="0.1" stroke-linecap="round" stroke-linejoin="round"/>
<path d="M72.0532 80.2995C71.4845 81.0654 72.254 81.2461 72.7098 81.2407C73.8037 81.2277 75.5903 80.0994 76.3469 79.5369L75.6903 78.5957C74.7149 78.8445 72.6219 79.5336 72.0532 80.2995Z" fill="#FCF4E1" stroke="#76563F" stroke-width="0.1" stroke-linecap="round" stroke-linejoin="round"/>
<path d="M77.2309 83.8221C76.5348 84.5014 76.1415 83.8909 76.0318 83.5008C75.7686 82.5645 76.5534 80.7546 76.9787 79.9667L78.1778 80.288C78.1522 81.183 77.9269 83.1428 77.2309 83.8221Z" fill="#FCF4E1" stroke="#76563F" stroke-width="0.1" stroke-linecap="round" stroke-linejoin="round"/>
<path d="M82.277 83.039C82.3866 83.9866 81.6299 83.7584 81.2378 83.5258C80.2969 82.9675 79.3139 81.0971 78.9399 80.2317L79.9791 79.7449C80.6994 80.448 82.1674 82.0913 82.277 83.039Z" fill="#FCF4E1" stroke="#76563F" stroke-width="0.1" stroke-linecap="round" stroke-linejoin="round"/>
<path d="M84.8922 79.35C85.7432 80.0109 85.0664 80.2985 84.6217 80.3597C83.5542 80.5066 81.3791 79.6713 80.425 79.2352L80.6955 78.2255C81.7398 78.325 84.0412 78.6891 84.8922 79.35Z" fill="#FCF4E1" stroke="#76563F" stroke-width="0.1" stroke-linecap="round" stroke-linejoin="round"/>
<path d="M83.5446 74.9163C84.6386 74.9033 84.4381 75.5383 84.2011 75.8574C83.6324 76.6234 81.5394 77.3124 80.564 77.5613L79.9075 76.6201C80.664 76.0576 82.4506 74.9292 83.5446 74.9163Z" fill="#FCF4E1" stroke="#76563F" stroke-width="0.1" stroke-linecap="round" stroke-linejoin="round"/>
<path d="M77.8729 72.2875C77.2754 71.4337 76.8669 71.9485 76.7373 72.3127C76.4264 73.1866 77.0256 75.1964 77.364 76.0921L78.4995 76.0669C78.5396 75.1629 78.4703 73.1413 77.8729 72.2875Z" fill="#FFF9E9" stroke="#76563F" stroke-width="0.1" stroke-linecap="round" stroke-linejoin="round"/>
<path d="M73.1499 73.8098C72.0861 73.5129 72.2478 74.1802 72.4616 74.551C72.9748 75.4407 74.9751 76.6523 75.9111 77.1468L76.5993 76.4057C75.8927 75.6641 74.2136 74.1067 73.1499 73.8098Z" fill="#FFF9E9" stroke="#76563F" stroke-width="0.1" stroke-linecap="round" stroke-linejoin="round"/>
<path d="M71.4034 77.8322C70.5231 78.3063 71.1627 78.7858 71.5925 78.9662C72.6241 79.3993 74.8106 79.0868 75.7749 78.8764L75.5857 77.7423C74.5584 77.5747 72.2837 77.358 71.4034 77.8322Z" fill="#FFF9E9" stroke="#76563F" stroke-width="0.1" stroke-linecap="round" stroke-linejoin="round"/>
<path d="M73.5738 82.097C73.4111 83.0254 74.1965 83.0011 74.6096 82.8729C75.6009 82.5652 76.7056 80.9421 77.134 80.1689L76.0982 79.393C75.3245 79.9075 73.7365 81.1686 73.5738 82.097Z" fill="#FFF9E9" stroke="#76563F" stroke-width="0.1" stroke-linecap="round" stroke-linejoin="round"/>
<path d="M79.6673 84.0597C79.3564 84.9337 78.7807 84.4407 78.5318 84.0849C77.9344 83.2311 77.8651 81.2095 77.9051 80.3055L79.0406 80.2803C79.3791 81.176 79.9783 83.1858 79.6673 84.0597Z" fill="#FFF9E9" stroke="#76563F" stroke-width="0.1" stroke-linecap="round" stroke-linejoin="round"/>
<path d="M83.943 81.8214C84.4561 82.7112 83.698 82.6862 83.2547 82.5625C82.191 82.2656 80.5119 80.7083 79.8053 79.9667L80.4935 79.2256C81.4295 79.7201 83.4298 80.9316 83.943 81.8214Z" fill="#FFF9E9" stroke="#76563F" stroke-width="0.1" stroke-linecap="round" stroke-linejoin="round"/>
<path d="M84.812 77.4062C85.8437 77.8393 85.368 78.3427 85.0012 78.5402C84.1209 79.0144 81.8461 78.7977 80.8188 78.6301L80.6297 77.496C81.5939 77.2856 83.7804 76.9731 84.812 77.4062Z" fill="#FFF9E9" stroke="#76563F" stroke-width="0.1" stroke-linecap="round" stroke-linejoin="round"/>
<path d="M81.795 73.4995C82.7863 73.1918 82.8986 73.8886 82.8308 74.2754C82.6681 75.2038 81.0801 76.4649 80.3064 76.9794L79.2706 76.2035C79.699 75.4304 80.8037 73.8072 81.795 73.4995Z" fill="#FFF9E9" stroke="#76563F" stroke-width="0.1" stroke-linecap="round" stroke-linejoin="round"/>
<ellipse cx="78.1584" cy="78.1229" rx="2.48446" ry="2.09218" transform="rotate(15 78.1584 78.1229)" fill="#FCDC8A" stroke="#F5CF6C"/>
<path d="M78.2225 44.6561C77.9594 43.7198 77.3135 44.0518 77.0235 44.3349C76.3274 45.0141 76.1022 46.9739 76.0765 47.8689L77.2756 48.1902C77.7009 47.4023 78.4857 45.5924 78.2225 44.6561Z" fill="#FCF4E1" stroke="#76563F" stroke-width="0.1" stroke-linecap="round" stroke-linejoin="round"/>
<path d="M73.0167 44.6312C72.0758 44.073 71.9319 44.7231 71.9775 45.118C72.0871 46.0657 73.5551 47.7089 74.2755 48.4121L75.3146 47.9253C74.9407 47.0599 73.9576 45.1894 73.0167 44.6312Z" fill="#FCF4E1" stroke="#76563F" stroke-width="0.1" stroke-linecap="round" stroke-linejoin="round"/>
<path d="M69.6327 47.7971C68.5652 47.944 69.0075 48.5315 69.3621 48.8069C70.2131 49.4678 72.5145 49.8319 73.5588 49.9314L73.8294 48.9217C72.8752 48.4856 70.7001 47.6503 69.6327 47.7971Z" fill="#FCF4E1" stroke="#76563F" stroke-width="0.1" stroke-linecap="round" stroke-linejoin="round"/>
<path d="M70.0532 52.2995C69.4845 53.0654 70.254 53.2461 70.7098 53.2407C71.8037 53.2277 73.5903 52.0994 74.3469 51.5369L73.6903 50.5957C72.7149 50.8445 70.6219 51.5336 70.0532 52.2995Z" fill="#FCF4E1" stroke="#76563F" stroke-width="0.1" stroke-linecap="round" stroke-linejoin="round"/>
<path d="M75.2309 55.822C74.5348 56.5013 74.1415 55.8909 74.0318 55.5008C73.7686 54.5645 74.5534 52.7546 74.9787 51.9667L76.1778 52.288C76.1522 53.183 75.9269 55.1428 75.2309 55.822Z" fill="#FCF4E1" stroke="#76563F" stroke-width="0.1" stroke-linecap="round" stroke-linejoin="round"/>
<path d="M80.277 55.0389C80.3866 55.9866 79.6299 55.7583 79.2378 55.5257C78.2969 54.9675 77.3139 53.0971 76.9399 52.2316L77.9791 51.7448C78.6994 52.448 80.1674 54.0913 80.277 55.0389Z" fill="#FCF4E1" stroke="#76563F" stroke-width="0.1" stroke-linecap="round" stroke-linejoin="round"/>
<path d="M82.8922 51.35C83.7432 52.011 83.0664 52.2986 82.6217 52.3598C81.5542 52.5066 79.3791 51.6713 78.425 51.2353L78.6955 50.2255C79.7398 50.325 82.0412 50.6891 82.8922 51.35Z" fill="#FCF4E1" stroke="#76563F" stroke-width="0.1" stroke-linecap="round" stroke-linejoin="round"/>
<path d="M81.5446 46.9163C82.6386 46.9033 82.4381 47.5383 82.2011 47.8574C81.6324 48.6234 79.5394 49.3124 78.564 49.5613L77.9075 48.6201C78.664 48.0576 80.4506 46.9292 81.5446 46.9163Z" fill="#FCF4E1" stroke="#76563F" stroke-width="0.1" stroke-linecap="round" stroke-linejoin="round"/>
<path d="M75.8729 44.2875C75.2754 43.4337 74.8669 43.9485 74.7373 44.3126C74.4264 45.1866 75.0256 47.1964 75.364 48.0921L76.4995 48.0669C76.5396 47.1629 76.4703 45.1413 75.8729 44.2875Z" fill="#FFF9E9" stroke="#76563F" stroke-width="0.1" stroke-linecap="round" stroke-linejoin="round"/>
<path d="M71.1499 45.8098C70.0861 45.5129 70.2478 46.1802 70.4616 46.551C70.9748 47.4407 72.9751 48.6523 73.9111 49.1468L74.5993 48.4057C73.8927 47.6641 72.2136 46.1067 71.1499 45.8098Z" fill="#FFF9E9" stroke="#76563F" stroke-width="0.1" stroke-linecap="round" stroke-linejoin="round"/>
<path d="M69.4034 49.8322C68.5231 50.3063 69.1627 50.7857 69.5925 50.9662C70.6241 51.3993 72.8106 51.0867 73.7749 50.8764L73.5857 49.7423C72.5584 49.5747 70.2837 49.358 69.4034 49.8322Z" fill="#FFF9E9" stroke="#76563F" stroke-width="0.1" stroke-linecap="round" stroke-linejoin="round"/>
<path d="M71.5738 54.097C71.4111 55.0254 72.1965 55.0011 72.6096 54.8729C73.6009 54.5652 74.7056 52.942 75.134 52.1689L74.0982 51.393C73.3245 51.9075 71.7365 53.1685 71.5738 54.097Z" fill="#FFF9E9" stroke="#76563F" stroke-width="0.1" stroke-linecap="round" stroke-linejoin="round"/>
<path d="M77.6673 56.0597C77.3564 56.9336 76.7807 56.4406 76.5318 56.0849C75.9344 55.2311 75.8651 53.2095 75.9051 52.3054L77.0406 52.2803C77.3791 53.176 77.9783 55.1858 77.6673 56.0597Z" fill="#FFF9E9" stroke="#76563F" stroke-width="0.1" stroke-linecap="round" stroke-linejoin="round"/>
<path d="M81.943 53.8214C82.4561 54.7112 81.698 54.6862 81.2547 54.5625C80.191 54.2656 78.5119 52.7083 77.8053 51.9667L78.4935 51.2256C79.4295 51.7201 81.4298 52.9316 81.943 53.8214Z" fill="#FFF9E9" stroke="#76563F" stroke-width="0.1" stroke-linecap="round" stroke-linejoin="round"/>
<path d="M82.812 49.4062C83.8437 49.8392 83.368 50.3426 83.0012 50.5402C82.1209 51.0144 79.8461 50.7977 78.8188 50.63L78.6297 49.496C79.5939 49.2856 81.7804 48.9731 82.812 49.4062Z" fill="#FFF9E9" stroke="#76563F" stroke-width="0.1" stroke-linecap="round" stroke-linejoin="round"/>
<path d="M79.795 45.4995C80.7863 45.1918 80.8986 45.8885 80.8308 46.2754C80.6681 47.2038 79.0801 48.4649 78.3064 48.9794L77.2706 48.2035C77.699 47.4303 78.8037 45.8071 79.795 45.4995Z" fill="#FFF9E9" stroke="#76563F" stroke-width="0.1" stroke-linecap="round" stroke-linejoin="round"/>
<ellipse cx="76.1584" cy="50.1229" rx="2.48446" ry="2.09218" transform="rotate(15 76.1584 50.1229)" fill="#FCDC8A" stroke="#F5CF6C"/>
<path d="M137.223 50.6561C136.959 49.7198 136.314 50.0518 136.023 50.3349C135.327 51.0141 135.102 52.9739 135.077 53.8689L136.276 54.1902C136.701 53.4023 137.486 51.5924 137.223 50.6561Z" fill="#FCF4E1" stroke="#76563F" stroke-width="0.1" stroke-linecap="round" stroke-linejoin="round"/>
<path d="M132.017 50.6312C131.076 50.073 130.932 50.7231 130.978 51.118C131.087 52.0657 132.555 53.7089 133.275 54.4121L134.315 53.9253C133.941 53.0599 132.958 51.1894 132.017 50.6312Z" fill="#FCF4E1" stroke="#76563F" stroke-width="0.1" stroke-linecap="round" stroke-linejoin="round"/>
<path d="M128.633 53.7971C127.565 53.944 128.008 54.5315 128.362 54.8069C129.213 55.4678 131.515 55.8319 132.559 55.9314L132.829 54.9217C131.875 54.4856 129.7 53.6503 128.633 53.7971Z" fill="#FCF4E1" stroke="#76563F" stroke-width="0.1" stroke-linecap="round" stroke-linejoin="round"/>
<path d="M129.053 58.2995C128.485 59.0654 129.254 59.2461 129.71 59.2407C130.804 59.2277 132.59 58.0994 133.347 57.5369L132.69 56.5957C131.715 56.8445 129.622 57.5336 129.053 58.2995Z" fill="#FCF4E1" stroke="#76563F" stroke-width="0.1" stroke-linecap="round" stroke-linejoin="round"/>
<path d="M134.231 61.822C133.535 62.5013 133.141 61.8909 133.032 61.5008C132.769 60.5645 133.553 58.7546 133.979 57.9667L135.178 58.288C135.152 59.183 134.927 61.1428 134.231 61.822Z" fill="#FCF4E1" stroke="#76563F" stroke-width="0.1" stroke-linecap="round" stroke-linejoin="round"/>
<path d="M139.277 61.0389C139.387 61.9866 138.63 61.7583 138.238 61.5257C137.297 60.9675 136.314 59.0971 135.94 58.2316L136.979 57.7448C137.699 58.448 139.167 60.0913 139.277 61.0389Z" fill="#FCF4E1" stroke="#76563F" stroke-width="0.1" stroke-linecap="round" stroke-linejoin="round"/>
<path d="M141.892 57.35C142.743 58.011 142.066 58.2986 141.622 58.3598C140.554 58.5066 138.379 57.6713 137.425 57.2353L137.696 56.2255C138.74 56.325 141.041 56.6891 141.892 57.35Z" fill="#FCF4E1" stroke="#76563F" stroke-width="0.1" stroke-linecap="round" stroke-linejoin="round"/>
<path d="M140.545 52.9163C141.639 52.9033 141.438 53.5383 141.201 53.8574C140.632 54.6234 138.539 55.3124 137.564 55.5613L136.907 54.6201C137.664 54.0576 139.451 52.9292 140.545 52.9163Z" fill="#FCF4E1" stroke="#76563F" stroke-width="0.1" stroke-linecap="round" stroke-linejoin="round"/>
<path d="M134.873 50.2875C134.275 49.4337 133.867 49.9485 133.737 50.3126C133.426 51.1866 134.026 53.1964 134.364 54.0921L135.5 54.0669C135.54 53.1629 135.47 51.1413 134.873 50.2875Z" fill="#FFF9E9" stroke="#76563F" stroke-width="0.1" stroke-linecap="round" stroke-linejoin="round"/>
<path d="M130.15 51.8098C129.086 51.5129 129.248 52.1802 129.462 52.551C129.975 53.4407 131.975 54.6523 132.911 55.1468L133.599 54.4057C132.893 53.6641 131.214 52.1067 130.15 51.8098Z" fill="#FFF9E9" stroke="#76563F" stroke-width="0.1" stroke-linecap="round" stroke-linejoin="round"/>
<path d="M128.403 55.8322C127.523 56.3063 128.163 56.7857 128.593 56.9662C129.624 57.3993 131.811 57.0867 132.775 56.8764L132.586 55.7423C131.558 55.5747 129.284 55.358 128.403 55.8322Z" fill="#FFF9E9" stroke="#76563F" stroke-width="0.1" stroke-linecap="round" stroke-linejoin="round"/>
<path d="M130.574 60.097C130.411 61.0254 131.197 61.0011 131.61 60.8729C132.601 60.5652 133.706 58.942 134.134 58.1689L133.098 57.393C132.324 57.9075 130.736 59.1685 130.574 60.097Z" fill="#FFF9E9" stroke="#76563F" stroke-width="0.1" stroke-linecap="round" stroke-linejoin="round"/>
<path d="M136.667 62.0597C136.356 62.9336 135.781 62.4406 135.532 62.0849C134.934 61.2311 134.865 59.2095 134.905 58.3054L136.041 58.2803C136.379 59.176 136.978 61.1858 136.667 62.0597Z" fill="#FFF9E9" stroke="#76563F" stroke-width="0.1" stroke-linecap="round" stroke-linejoin="round"/>
<path d="M140.943 59.8214C141.456 60.7112 140.698 60.6862 140.255 60.5625C139.191 60.2656 137.512 58.7083 136.805 57.9667L137.494 57.2256C138.43 57.7201 140.43 58.9316 140.943 59.8214Z" fill="#FFF9E9" stroke="#76563F" stroke-width="0.1" stroke-linecap="round" stroke-linejoin="round"/>
<path d="M141.812 55.4062C142.844 55.8392 142.368 56.3426 142.001 56.5402C141.121 57.0144 138.846 56.7977 137.819 56.63L137.63 55.496C138.594 55.2856 140.78 54.9731 141.812 55.4062Z" fill="#FFF9E9" stroke="#76563F" stroke-width="0.1" stroke-linecap="round" stroke-linejoin="round"/>
<path d="M138.795 51.4995C139.786 51.1918 139.899 51.8885 139.831 52.2754C139.668 53.2038 138.08 54.4649 137.306 54.9794L136.271 54.2035C136.699 53.4303 137.804 51.8071 138.795 51.4995Z" fill="#FFF9E9" stroke="#76563F" stroke-width="0.1" stroke-linecap="round" stroke-linejoin="round"/>
<ellipse cx="135.158" cy="56.1229" rx="2.48446" ry="2.09218" transform="rotate(15 135.158 56.1229)" fill="#FCDC8A" stroke="#F5CF6C"/>
<path d="M117.317 52.2839C116.82 51.4476 116.283 51.9355 116.076 52.2839C115.579 53.1202 115.869 55.0715 116.076 55.9427H117.317C117.524 55.0715 117.814 53.1202 117.317 52.2839Z" fill="#FCF4E1" stroke="#76563F" stroke-width="0.1" stroke-linecap="round" stroke-linejoin="round"/>
<path d="M112.282 53.6072C111.229 53.3116 111.258 53.9768 111.404 54.3464C111.755 55.2334 113.599 56.4407 114.476 56.9335L115.354 56.1944C114.769 55.4552 113.335 53.9029 112.282 53.6072Z" fill="#FCF4E1" stroke="#76563F" stroke-width="0.1" stroke-linecap="round" stroke-linejoin="round"/>
<path d="M109.833 57.5412C108.84 57.9593 109.419 58.4123 109.833 58.5865C110.826 59.0046 113.143 58.7607 114.178 58.5865L114.178 57.5412C113.143 57.3669 110.826 57.123 109.833 57.5412Z" fill="#FCF4E1" stroke="#76563F" stroke-width="0.1" stroke-linecap="round" stroke-linejoin="round"/>
<path d="M111.404 61.7813C111.053 62.6683 111.843 62.6436 112.282 62.5204C113.335 62.2248 114.769 60.6725 115.354 59.9333L114.476 59.1941C113.599 59.6869 111.755 60.8942 111.404 61.7813Z" fill="#FCF4E1" stroke="#76563F" stroke-width="0.1" stroke-linecap="round" stroke-linejoin="round"/>
<path d="M117.317 63.8437C116.82 64.68 116.283 64.1922 116.076 63.8437C115.579 63.0074 115.869 61.0561 116.076 60.185H117.317C117.524 61.0561 117.814 63.0074 117.317 63.8437Z" fill="#FCF4E1" stroke="#76563F" stroke-width="0.1" stroke-linecap="round" stroke-linejoin="round"/>
<path d="M121.989 61.7813C122.34 62.6683 121.55 62.6436 121.111 62.5204C120.057 62.2248 118.624 60.6725 118.039 59.9333L118.916 59.1941C119.794 59.6869 121.637 60.8942 121.989 61.7813Z" fill="#FCF4E1" stroke="#76563F" stroke-width="0.1" stroke-linecap="round" stroke-linejoin="round"/>
<path d="M123.56 57.5412C124.553 57.9593 123.974 58.4123 123.56 58.5865C122.567 59.0046 120.25 58.7607 119.215 58.5865L119.215 57.5412C120.25 57.3669 122.567 57.123 123.56 57.5412Z" fill="#FCF4E1" stroke="#76563F" stroke-width="0.1" stroke-linecap="round" stroke-linejoin="round"/>
<path d="M121.111 53.6072C122.164 53.3116 122.135 53.9768 121.988 54.3464C121.637 55.2334 119.794 56.4407 118.916 56.9335L118.039 56.1944C118.624 55.4552 120.057 53.9029 121.111 53.6072Z" fill="#FCF4E1" stroke="#76563F" stroke-width="0.1" stroke-linecap="round" stroke-linejoin="round"/>
<path d="M114.952 52.536C114.154 51.8659 113.892 52.4689 113.862 52.8542C113.787 53.7788 114.886 55.5651 115.445 56.3427L116.535 56.0245C116.34 55.1408 115.75 53.2061 114.952 52.536Z" fill="#FFF9E9" stroke="#76563F" stroke-width="0.1" stroke-linecap="round" stroke-linejoin="round"/>
<path d="M110.784 55.2289C109.68 55.2174 110.008 55.8201 110.311 56.1229C111.037 56.8495 113.283 57.5021 114.315 57.7375L114.788 56.8435C113.913 56.3101 111.888 55.2403 110.784 55.2289Z" fill="#FFF9E9" stroke="#76563F" stroke-width="0.1" stroke-linecap="round" stroke-linejoin="round"/>
<path d="M110.138 59.5662C109.41 60.252 110.152 60.5496 110.614 60.6126C111.723 60.764 113.754 59.8962 114.631 59.4434L114.155 58.3969C113.119 58.5009 110.866 58.8804 110.138 59.5662Z" fill="#FFF9E9" stroke="#76563F" stroke-width="0.1" stroke-linecap="round" stroke-linejoin="round"/>
<path d="M113.338 63.124C113.421 64.0629 114.174 63.8361 114.54 63.6054C115.417 63.0516 116.064 61.1978 116.278 60.3401L115.077 59.8587C114.463 60.5559 113.255 62.1851 113.338 63.124Z" fill="#FFF9E9" stroke="#76563F" stroke-width="0.1" stroke-linecap="round" stroke-linejoin="round"/>
<path d="M119.732 63.4427C119.658 64.3673 118.974 64.0401 118.642 63.7609C117.844 63.0908 117.254 61.1561 117.058 60.2724L118.149 59.9542C118.707 60.7318 119.806 62.5181 119.732 63.4427Z" fill="#FFF9E9" stroke="#76563F" stroke-width="0.1" stroke-linecap="round" stroke-linejoin="round"/>
<path d="M123.283 60.174C124.009 60.9007 123.27 61.0728 122.81 61.068C121.706 61.0566 119.681 59.9868 118.806 59.4534L119.279 58.5594C120.311 58.7948 122.557 59.4474 123.283 60.174Z" fill="#FFF9E9" stroke="#76563F" stroke-width="0.1" stroke-linecap="round" stroke-linejoin="round"/>
<path d="M122.98 55.6842C124.088 55.8356 123.759 56.4449 123.456 56.7307C122.728 57.4165 120.475 57.796 119.439 57.8999L118.963 56.8535C119.84 56.4007 121.871 55.5329 122.98 55.6842Z" fill="#FFF9E9" stroke="#76563F" stroke-width="0.1" stroke-linecap="round" stroke-linejoin="round"/>
<path d="M119.054 52.6916C119.932 52.1378 120.221 52.7817 120.255 53.173C120.339 54.1119 119.131 55.741 118.517 56.4382L117.316 55.9568C117.529 55.0991 118.176 53.2453 119.054 52.6916Z" fill="#FFF9E9" stroke="#76563F" stroke-width="0.1" stroke-linecap="round" stroke-linejoin="round"/>
<ellipse cx="116.738" cy="58.0987" rx="2.48446" ry="2.09218" fill="#FCDC8A" stroke="#F5CF6C"/>
<path d="M88.2313 24.2692C87.5353 23.59 87.1419 24.2004 87.0323 24.5905C86.7691 25.5268 87.5539 27.3367 87.9792 28.1246L89.1783 27.8033C89.1527 26.9083 88.9274 24.9485 88.2313 24.2692Z" fill="#FCF4E1" stroke="#76563F" stroke-width="0.1" stroke-linecap="round" stroke-linejoin="round"/>
<path d="M83.7105 26.8506C82.6166 26.8376 82.817 27.4726 83.054 27.7918C83.6227 28.5577 85.7157 29.2468 86.6911 29.4956L87.3476 28.5544C86.5911 27.9919 84.8045 26.8636 83.7105 26.8506Z" fill="#FCF4E1" stroke="#76563F" stroke-width="0.1" stroke-linecap="round" stroke-linejoin="round"/>
<path d="M82.3629 31.2844C81.5119 31.9453 82.1887 32.2329 82.6335 32.2941C83.7009 32.441 85.876 31.6056 86.8302 31.1696L86.5596 30.1599C85.5153 30.2593 83.2139 30.6234 82.3629 31.2844Z" fill="#FCF4E1" stroke="#76563F" stroke-width="0.1" stroke-linecap="round" stroke-linejoin="round"/>
<path d="M84.9781 34.9733C84.8685 35.9209 85.6252 35.6927 86.0173 35.4601C86.9582 34.9019 87.9413 33.0314 88.3152 32.166L87.276 31.6792C86.5557 32.3824 85.0877 34.0256 84.9781 34.9733Z" fill="#FCF4E1" stroke="#76563F" stroke-width="0.1" stroke-linecap="round" stroke-linejoin="round"/>
<path d="M91.2233 35.4351C90.9601 36.3714 90.3142 36.0394 90.0242 35.7564C89.3281 35.0771 89.1029 33.1173 89.0773 32.2223L90.2763 31.901C90.7016 32.6889 91.4865 34.4988 91.2233 35.4351Z" fill="#FCF4E1" stroke="#76563F" stroke-width="0.1" stroke-linecap="round" stroke-linejoin="round"/>
<path d="M95.2019 32.2338C95.7706 32.9997 95.0012 33.1804 94.5454 33.175C93.4514 33.162 91.6648 32.0337 90.9082 31.4712L91.5648 30.53C92.5402 30.7788 94.6332 31.4679 95.2019 32.2338Z" fill="#FCF4E1" stroke="#76563F" stroke-width="0.1" stroke-linecap="round" stroke-linejoin="round"/>
<path d="M95.6225 27.7315C96.6899 27.8784 96.2476 28.4659 95.893 28.7412C95.042 29.4022 92.7406 29.7663 91.6963 29.8657L91.4258 28.856C92.3799 28.42 94.555 27.5846 95.6225 27.7315Z" fill="#FCF4E1" stroke="#76563F" stroke-width="0.1" stroke-linecap="round" stroke-linejoin="round"/>
<path d="M92.2384 24.5655C93.1793 24.0073 93.3233 24.6575 93.2776 25.0523C93.168 26 91.7 27.6433 90.9797 28.3464L89.9405 27.8596C90.3144 26.9942 91.2975 25.1237 92.2384 24.5655Z" fill="#FCF4E1" stroke="#76563F" stroke-width="0.1" stroke-linecap="round" stroke-linejoin="round"/>
<path d="M86.0122 25.1249C85.0679 24.6842 84.9716 25.3343 85.0414 25.7144C85.2091 26.6267 86.7329 28.0677 87.4739 28.6741L88.4447 28.0846C88.0273 27.2816 86.9565 25.5656 86.0122 25.1249Z" fill="#FFF9E9" stroke="#76563F" stroke-width="0.1" stroke-linecap="round" stroke-linejoin="round"/>
<path d="M82.6833 28.8047C81.6136 29.0795 82.0873 29.5765 82.4578 29.7907C83.3471 30.3047 85.6852 30.3537 86.7431 30.314L86.9685 29.3281C85.9858 29.0391 83.753 28.53 82.6833 28.8047Z" fill="#FFF9E9" stroke="#76563F" stroke-width="0.1" stroke-linecap="round" stroke-linejoin="round"/>
<path d="M83.1818 33.1614C82.6565 34.0122 83.4501 34.1076 83.9126 34.0489C85.0226 33.9082 86.7598 32.5443 87.4897 31.88L86.7589 30.9924C85.7854 31.3609 83.7071 32.3106 83.1818 33.1614Z" fill="#FFF9E9" stroke="#76563F" stroke-width="0.1" stroke-linecap="round" stroke-linejoin="round"/>
<path d="M87.1939 35.7697C87.5173 36.655 88.1853 36.2413 88.4789 35.9237C89.1836 35.1616 89.3287 33.2036 89.3131 32.3198L88.0281 32.1657C87.6153 32.9981 86.8706 34.8843 87.1939 35.7697Z" fill="#FFF9E9" stroke="#76563F" stroke-width="0.1" stroke-linecap="round" stroke-linejoin="round"/>
<path d="M93.4524 34.4227C93.6201 35.335 92.8751 35.1958 92.4816 35.0122C91.5373 34.5715 90.4666 32.8554 90.0492 32.0525L91.02 31.4629C91.761 32.0694 93.2848 33.5104 93.4524 34.4227Z" fill="#FFF9E9" stroke="#76563F" stroke-width="0.1" stroke-linecap="round" stroke-linejoin="round"/>
<path d="M96.0362 30.3464C96.9255 30.8604 96.2564 31.2179 95.8107 31.3323C94.7411 31.6071 92.5082 31.0979 91.5255 30.809L91.751 29.823C92.8088 29.7833 95.1469 29.8324 96.0362 30.3464Z" fill="#FFF9E9" stroke="#76563F" stroke-width="0.1" stroke-linecap="round" stroke-linejoin="round"/>
<path d="M94.5811 26.0881C95.6911 25.9473 95.5308 26.6211 95.3119 26.9756C94.7866 27.8264 92.7083 28.7761 91.7348 29.1446L91.004 28.2571C91.7339 27.5927 93.4712 26.2289 94.5811 26.0881Z" fill="#FFF9E9" stroke="#76563F" stroke-width="0.1" stroke-linecap="round" stroke-linejoin="round"/>
<path d="M90.0149 24.2133C90.7195 23.4512 91.1652 23.9985 91.2999 24.3674C91.6232 25.2528 90.8785 27.1389 90.4657 27.9713L89.1807 27.8173C89.1652 26.9335 89.3102 24.9755 90.0149 24.2133Z" fill="#FFF9E9" stroke="#76563F" stroke-width="0.1" stroke-linecap="round" stroke-linejoin="round"/>
<ellipse cx="89.1769" cy="30.0358" rx="2.48446" ry="2.09218" transform="rotate(-15 89.1769 30.0358)" fill="#FCDC8A" stroke="#F5CF6C"/>
<path d="M31.317 66.2839C30.8205 65.4476 30.2826 65.9355 30.0757 66.2839C29.5791 67.1202 29.8688 69.0715 30.0757 69.9427H31.317C31.5239 69.0715 31.8136 67.1202 31.317 66.2839Z" fill="#FCF4E1" stroke="#76563F" stroke-width="0.1" stroke-linecap="round" stroke-linejoin="round"/>
<path d="M26.2819 67.6072C25.2285 67.3116 25.2578 67.9768 25.4041 68.3464C25.7552 69.2334 27.5985 70.4407 28.4763 70.9335L29.3541 70.1944C28.7689 69.4552 27.3352 67.9029 26.2819 67.6072Z" fill="#FCF4E1" stroke="#76563F" stroke-width="0.1" stroke-linecap="round" stroke-linejoin="round"/>
<path d="M23.8328 71.5412C22.8397 71.9593 23.419 72.4123 23.8328 72.5865C24.8258 73.0046 27.143 72.7607 28.1775 72.5865L28.1775 71.5412C27.143 71.3669 24.8258 71.123 23.8328 71.5412Z" fill="#FCF4E1" stroke="#76563F" stroke-width="0.1" stroke-linecap="round" stroke-linejoin="round"/>
<path d="M25.4042 75.7813C25.0531 76.6683 25.8431 76.6436 26.282 76.5204C27.3353 76.2248 28.769 74.6725 29.3542 73.9333L28.4764 73.1941C27.5987 73.6869 25.7553 74.8942 25.4042 75.7813Z" fill="#FCF4E1" stroke="#76563F" stroke-width="0.1" stroke-linecap="round" stroke-linejoin="round"/>
<path d="M31.317 77.8437C30.8205 78.68 30.2826 78.1922 30.0757 77.8437C29.5791 77.0074 29.8688 75.0561 30.0757 74.185H31.317C31.5239 75.0561 31.8136 77.0074 31.317 77.8437Z" fill="#FCF4E1" stroke="#76563F" stroke-width="0.1" stroke-linecap="round" stroke-linejoin="round"/>
<path d="M35.9886 75.7813C36.3397 76.6683 35.5497 76.6436 35.1108 76.5204C34.0575 76.2248 32.6238 74.6725 32.0386 73.9333L32.9164 73.1941C33.7942 73.6869 35.6375 74.8942 35.9886 75.7813Z" fill="#FCF4E1" stroke="#76563F" stroke-width="0.1" stroke-linecap="round" stroke-linejoin="round"/>
<path d="M37.5601 71.5412C38.5531 71.9593 37.9739 72.4123 37.5601 72.5865C36.567 73.0046 34.2498 72.7607 33.2153 72.5865L33.2153 71.5412C34.2498 71.3669 36.567 71.123 37.5601 71.5412Z" fill="#FCF4E1" stroke="#76563F" stroke-width="0.1" stroke-linecap="round" stroke-linejoin="round"/>
<path d="M35.1107 67.6072C36.164 67.3116 36.1348 67.9768 35.9885 68.3464C35.6374 69.2334 33.794 70.4407 32.9163 70.9335L32.0385 70.1944C32.6237 69.4552 34.0574 67.9029 35.1107 67.6072Z" fill="#FCF4E1" stroke="#76563F" stroke-width="0.1" stroke-linecap="round" stroke-linejoin="round"/>
<path d="M28.9519 66.536C28.1538 65.8659 27.8925 66.4689 27.8616 66.8542C27.7874 67.7788 28.8863 69.5651 29.4451 70.3427L30.5354 70.0245C30.3401 69.1408 29.7499 67.2061 28.9519 66.536Z" fill="#FFF9E9" stroke="#76563F" stroke-width="0.1" stroke-linecap="round" stroke-linejoin="round"/>
<path d="M24.7839 69.2289C23.6796 69.2174 24.0085 69.8201 24.3109 70.1229C25.0369 70.8495 27.2826 71.5021 28.3147 71.7375L28.7877 70.8435C27.9132 70.3101 25.8883 69.2403 24.7839 69.2289Z" fill="#FFF9E9" stroke="#76563F" stroke-width="0.1" stroke-linecap="round" stroke-linejoin="round"/>
<path d="M24.1379 73.5662C23.4103 74.252 24.1522 74.5496 24.6141 74.6126C25.7227 74.764 27.7538 73.8962 28.6308 73.4434L28.1546 72.3969C27.1188 72.5009 24.8655 72.8804 24.1379 73.5662Z" fill="#FFF9E9" stroke="#76563F" stroke-width="0.1" stroke-linecap="round" stroke-linejoin="round"/>
<path d="M27.3382 77.124C27.4214 78.0629 28.1737 77.8361 28.5395 77.6054C29.4174 77.0516 30.0643 75.1978 30.278 74.3401L29.0767 73.8587C28.4625 74.5559 27.255 76.1851 27.3382 77.124Z" fill="#FFF9E9" stroke="#76563F" stroke-width="0.1" stroke-linecap="round" stroke-linejoin="round"/>
<path d="M33.7321 77.4427C33.6579 78.3673 32.9743 78.0401 32.6418 77.7609C31.8437 77.0908 31.2536 75.1561 31.0583 74.2724L32.1486 73.9542C32.7073 74.7318 33.8063 76.5181 33.7321 77.4427Z" fill="#FFF9E9" stroke="#76563F" stroke-width="0.1" stroke-linecap="round" stroke-linejoin="round"/>
<path d="M37.2828 74.174C38.0088 74.9007 37.27 75.0728 36.8099 75.068C35.7055 75.0566 33.6805 73.9868 32.8061 73.4534L33.2791 72.5594C34.3112 72.7948 36.5569 73.4474 37.2828 74.174Z" fill="#FFF9E9" stroke="#76563F" stroke-width="0.1" stroke-linecap="round" stroke-linejoin="round"/>
<path d="M36.9796 69.6842C38.0881 69.8356 37.7589 70.4449 37.4558 70.7307C36.7282 71.4165 34.4749 71.796 33.4392 71.8999L32.9629 70.8535C33.8399 70.4007 35.871 69.5329 36.9796 69.6842Z" fill="#FFF9E9" stroke="#76563F" stroke-width="0.1" stroke-linecap="round" stroke-linejoin="round"/>
<path d="M33.0542 66.6916C33.9321 66.1378 34.2208 66.7817 34.2555 67.173C34.3387 68.1119 33.1311 69.741 32.517 70.4382L31.3157 69.9568C31.5294 69.0991 32.1762 67.2453 33.0542 66.6916Z" fill="#FFF9E9" stroke="#76563F" stroke-width="0.1" stroke-linecap="round" stroke-linejoin="round"/>
<ellipse cx="30.7379" cy="72.0987" rx="2.48446" ry="2.09218" fill="#FCDC8A" stroke="#F5CF6C"/>
<path d="M110.169 45.1355C109.672 44.2992 109.134 44.787 108.927 45.1355C108.431 45.9718 108.72 47.9231 108.927 48.7942H110.169C110.375 47.9231 110.665 45.9718 110.169 45.1355Z" fill="#FCF4E1" stroke="#76563F" stroke-width="0.1" stroke-linecap="round" stroke-linejoin="round"/>
<path d="M105.133 46.4588C104.08 46.1631 104.109 46.8284 104.256 47.198C104.607 48.085 106.45 49.2923 107.328 49.7851L108.206 49.0459C107.62 48.3067 106.187 46.7545 105.133 46.4588Z" fill="#FCF4E1" stroke="#76563F" stroke-width="0.1" stroke-linecap="round" stroke-linejoin="round"/>
<path d="M102.684 50.3927C101.691 50.8109 102.271 51.2638 102.684 51.4381C103.677 51.8562 105.995 51.6123 107.029 51.4381L107.029 50.3927C105.995 50.2185 103.677 49.9746 102.684 50.3927Z" fill="#FCF4E1" stroke="#76563F" stroke-width="0.1" stroke-linecap="round" stroke-linejoin="round"/>
<path d="M104.256 54.6328C103.905 55.5198 104.695 55.4952 105.134 55.372C106.187 55.0763 107.621 53.524 108.206 52.7849L107.328 52.0457C106.45 52.5385 104.607 53.7458 104.256 54.6328Z" fill="#FCF4E1" stroke="#76563F" stroke-width="0.1" stroke-linecap="round" stroke-linejoin="round"/>
<path d="M110.169 56.6953C109.672 57.5316 109.134 57.0437 108.927 56.6953C108.431 55.859 108.72 53.9077 108.927 53.0366H110.169C110.375 53.9077 110.665 55.859 110.169 56.6953Z" fill="#FCF4E1" stroke="#76563F" stroke-width="0.1" stroke-linecap="round" stroke-linejoin="round"/>
<path d="M114.84 54.6328C115.191 55.5198 114.401 55.4952 113.962 55.372C112.909 55.0763 111.475 53.5241 110.89 52.7849L111.768 52.0457C112.646 52.5385 114.489 53.7458 114.84 54.6328Z" fill="#FCF4E1" stroke="#76563F" stroke-width="0.1" stroke-linecap="round" stroke-linejoin="round"/>
<path d="M116.412 50.3927C117.405 50.8109 116.825 51.2638 116.412 51.4381C115.419 51.8562 113.101 51.6123 112.067 51.4381L112.067 50.3927C113.101 50.2185 115.419 49.9746 116.412 50.3927Z" fill="#FCF4E1" stroke="#76563F" stroke-width="0.1" stroke-linecap="round" stroke-linejoin="round"/>
<path d="M113.962 46.4588C115.016 46.1631 114.986 46.8284 114.84 47.198C114.489 48.085 112.646 49.2923 111.768 49.7851L110.89 49.0459C111.475 48.3067 112.909 46.7545 113.962 46.4588Z" fill="#FCF4E1" stroke="#76563F" stroke-width="0.1" stroke-linecap="round" stroke-linejoin="round"/>
<path d="M107.803 45.3876C107.005 44.7175 106.744 45.3205 106.713 45.7058C106.639 46.6304 107.738 48.4167 108.297 49.1942L109.387 48.876C109.192 47.9924 108.601 46.0577 107.803 45.3876Z" fill="#FFF9E9" stroke="#76563F" stroke-width="0.1" stroke-linecap="round" stroke-linejoin="round"/>
<path d="M103.635 48.0804C102.531 48.069 102.86 48.6717 103.162 48.9744C103.888 49.7011 106.134 50.3536 107.166 50.5891L107.639 49.6951C106.765 49.1616 104.74 48.0919 103.635 48.0804Z" fill="#FFF9E9" stroke="#76563F" stroke-width="0.1" stroke-linecap="round" stroke-linejoin="round"/>
<path d="M102.99 52.4178C102.262 53.1036 103.004 53.4012 103.466 53.4642C104.574 53.6155 106.605 52.7478 107.482 52.2949L107.006 51.2485C105.97 51.3525 103.717 51.7319 102.99 52.4178Z" fill="#FFF9E9" stroke="#76563F" stroke-width="0.1" stroke-linecap="round" stroke-linejoin="round"/>
<path d="M106.19 55.9755C106.273 56.9144 107.025 56.6877 107.391 56.4569C108.269 55.9032 108.916 54.0494 109.13 53.1917L107.928 52.7103C107.314 53.4075 106.107 55.0366 106.19 55.9755Z" fill="#FFF9E9" stroke="#76563F" stroke-width="0.1" stroke-linecap="round" stroke-linejoin="round"/>
<path d="M112.584 56.2943C112.509 57.2189 111.826 56.8916 111.493 56.6124C110.695 55.9424 110.105 54.0076 109.91 53.124L111 52.8058C111.559 53.5834 112.658 55.3696 112.584 56.2943Z" fill="#FFF9E9" stroke="#76563F" stroke-width="0.1" stroke-linecap="round" stroke-linejoin="round"/>
<path d="M116.134 53.0256C116.86 53.7522 116.122 53.9244 115.661 53.9196C114.557 53.9081 112.532 52.8384 111.658 52.305L112.131 51.411C113.163 51.6464 115.408 52.2989 116.134 53.0256Z" fill="#FFF9E9" stroke="#76563F" stroke-width="0.1" stroke-linecap="round" stroke-linejoin="round"/>
<path d="M115.831 48.5358C116.94 48.6871 116.611 49.2965 116.307 49.5823C115.58 50.2681 113.326 50.6475 112.291 50.7515L111.815 49.7051C112.691 49.2523 114.723 48.3845 115.831 48.5358Z" fill="#FFF9E9" stroke="#76563F" stroke-width="0.1" stroke-linecap="round" stroke-linejoin="round"/>
<path d="M111.906 45.5431C112.784 44.9893 113.072 45.6333 113.107 46.0245C113.19 46.9634 111.983 48.5925 111.369 49.2897L110.167 48.8083C110.381 47.9507 111.028 46.0969 111.906 45.5431Z" fill="#FFF9E9" stroke="#76563F" stroke-width="0.1" stroke-linecap="round" stroke-linejoin="round"/>
<ellipse cx="109.589" cy="50.9503" rx="2.48446" ry="2.09218" fill="#FCDC8A" stroke="#F5CF6C"/>
<path d="M84.1686 2.13549C83.6721 1.29921 83.1341 1.78704 82.9272 2.13549C82.4307 2.97177 82.7204 4.9231 82.9272 5.79422H84.1686C84.3755 4.9231 84.6651 2.97177 84.1686 2.13549Z" fill="#FCF4E1" stroke="#76563F" stroke-width="0.1" stroke-linecap="round" stroke-linejoin="round"/>
<path d="M79.1334 3.45881C78.0801 3.16314 78.1094 3.8284 78.2557 4.19799C78.6068 5.085 80.4501 6.29231 81.3279 6.7851L82.2056 6.04592C81.6205 5.30675 80.1868 3.75448 79.1334 3.45881Z" fill="#FCF4E1" stroke="#76563F" stroke-width="0.1" stroke-linecap="round" stroke-linejoin="round"/>
<path d="M76.6843 7.39272C75.6912 7.81086 76.2705 8.26384 76.6843 8.43807C77.6774 8.85621 79.9946 8.61229 81.0291 8.43806L81.0291 7.39272C79.9946 7.21849 77.6774 6.97458 76.6843 7.39272Z" fill="#FCF4E1" stroke="#76563F" stroke-width="0.1" stroke-linecap="round" stroke-linejoin="round"/>
<path d="M78.2558 11.6328C77.9047 12.5198 78.6947 12.4952 79.1336 12.372C80.1869 12.0763 81.6206 10.524 82.2058 9.78487L81.328 9.0457C80.4502 9.53849 78.6069 10.7458 78.2558 11.6328Z" fill="#FCF4E1" stroke="#76563F" stroke-width="0.1" stroke-linecap="round" stroke-linejoin="round"/>
<path d="M84.1686 13.6953C83.6721 14.5316 83.1341 14.0437 82.9272 13.6953C82.4307 12.859 82.7204 10.9077 82.9272 10.0366H84.1686C84.3755 10.9077 84.6651 12.859 84.1686 13.6953Z" fill="#FCF4E1" stroke="#76563F" stroke-width="0.1" stroke-linecap="round" stroke-linejoin="round"/>
<path d="M88.8402 11.6328C89.1913 12.5198 88.4013 12.4952 87.9624 12.372C86.9091 12.0763 85.4754 10.5241 84.8902 9.78487L85.768 9.0457C86.6457 9.53849 88.489 10.7458 88.8402 11.6328Z" fill="#FCF4E1" stroke="#76563F" stroke-width="0.1" stroke-linecap="round" stroke-linejoin="round"/>
<path d="M90.4116 7.39272C91.4047 7.81086 90.8254 8.26384 90.4116 8.43807C89.4185 8.85621 87.1013 8.61229 86.0669 8.43806L86.0669 7.39272C87.1013 7.21849 89.4185 6.97458 90.4116 7.39272Z" fill="#FCF4E1" stroke="#76563F" stroke-width="0.1" stroke-linecap="round" stroke-linejoin="round"/>
<path d="M87.9623 3.45881C89.0156 3.16314 88.9863 3.8284 88.84 4.19799C88.4889 5.085 86.6456 6.29231 85.7678 6.7851L84.8901 6.04592C85.4752 5.30675 86.9089 3.75448 87.9623 3.45881Z" fill="#FCF4E1" stroke="#76563F" stroke-width="0.1" stroke-linecap="round" stroke-linejoin="round"/>
<path d="M81.8034 2.38758C81.0054 1.7175 80.744 2.32051 80.7131 2.70577C80.6389 3.63041 81.7379 5.41666 82.2966 6.19421L83.3869 5.87602C83.1916 4.99241 82.6015 3.05766 81.8034 2.38758Z" fill="#FFF9E9" stroke="#76563F" stroke-width="0.1" stroke-linecap="round" stroke-linejoin="round"/>
<path d="M77.6355 5.08044C76.5311 5.06898 76.86 5.67166 77.1625 5.97444C77.8885 6.70109 80.1342 7.35362 81.1663 7.58905L81.6393 6.69506C80.7648 6.16162 78.7398 5.09189 77.6355 5.08044Z" fill="#FFF9E9" stroke="#76563F" stroke-width="0.1" stroke-linecap="round" stroke-linejoin="round"/>
<path d="M76.9895 9.41777C76.2619 10.1036 77.0038 10.4012 77.4657 10.4642C78.5743 10.6155 80.6054 9.74775 81.4823 9.29495L81.0061 8.24851C79.9704 8.3525 77.7171 8.73193 76.9895 9.41777Z" fill="#FFF9E9" stroke="#76563F" stroke-width="0.1" stroke-linecap="round" stroke-linejoin="round"/>
<path d="M80.1898 12.9755C80.2729 13.9144 81.0253 13.6877 81.3911 13.4569C82.269 12.9032 82.9159 11.0494 83.1296 10.1917L81.9283 9.71031C81.3141 10.4075 80.1066 12.0366 80.1898 12.9755Z" fill="#FFF9E9" stroke="#76563F" stroke-width="0.1" stroke-linecap="round" stroke-linejoin="round"/>
<path d="M86.5837 13.2943C86.5095 14.2189 85.8259 13.8916 85.4933 13.6124C84.6953 12.9424 84.1051 11.0076 83.9098 10.124L85.0001 9.80581C85.5589 10.5834 86.6578 12.3696 86.5837 13.2943Z" fill="#FFF9E9" stroke="#76563F" stroke-width="0.1" stroke-linecap="round" stroke-linejoin="round"/>
<path d="M90.1344 10.0256C90.8604 10.7522 90.1216 10.9244 89.6614 10.9196C88.5571 10.9081 86.5321 9.83839 85.6576 9.30495L86.1306 8.41096C87.1627 8.64639 89.4084 9.29892 90.1344 10.0256Z" fill="#FFF9E9" stroke="#76563F" stroke-width="0.1" stroke-linecap="round" stroke-linejoin="round"/>
<path d="M89.8311 5.53581C90.9397 5.68713 90.6105 6.29649 90.3073 6.58225C89.5797 7.26809 87.3264 7.64752 86.2907 7.7515L85.8145 6.70506C86.6915 6.25226 88.7226 5.38449 89.8311 5.53581Z" fill="#FFF9E9" stroke="#76563F" stroke-width="0.1" stroke-linecap="round" stroke-linejoin="round"/>
<path d="M85.9057 2.54312C86.7836 1.98934 87.0724 2.63331 87.1071 3.02452C87.1902 3.96342 85.9827 5.59254 85.3686 6.28974L84.1672 5.80834C84.3809 4.95067 85.0278 3.09689 85.9057 2.54312Z" fill="#FFF9E9" stroke="#76563F" stroke-width="0.1" stroke-linecap="round" stroke-linejoin="round"/>
<ellipse cx="83.5894" cy="7.95027" rx="2.48446" ry="2.09218" fill="#FCDC8A" stroke="#F5CF6C"/>
<path d="M114.169 80.1355C113.672 79.2992 113.134 79.7871 112.927 80.1355C112.431 80.9718 112.72 82.9231 112.927 83.7943H114.169C114.375 82.9231 114.665 80.9718 114.169 80.1355Z" fill="#FCF4E1" stroke="#76563F" stroke-width="0.1" stroke-linecap="round" stroke-linejoin="round"/>
<path d="M109.133 81.4588C108.08 81.1631 108.109 81.8284 108.256 82.198C108.607 83.085 110.45 84.2923 111.328 84.7851L112.206 84.0459C111.62 83.3067 110.187 81.7545 109.133 81.4588Z" fill="#FCF4E1" stroke="#76563F" stroke-width="0.1" stroke-linecap="round" stroke-linejoin="round"/>
<path d="M106.684 85.3927C105.691 85.8109 106.271 86.2638 106.684 86.4381C107.677 86.8562 109.995 86.6123 111.029 86.4381L111.029 85.3927C109.995 85.2185 107.677 84.9746 106.684 85.3927Z" fill="#FCF4E1" stroke="#76563F" stroke-width="0.1" stroke-linecap="round" stroke-linejoin="round"/>
<path d="M108.256 89.6328C107.905 90.5198 108.695 90.4952 109.134 90.372C110.187 90.0763 111.621 88.524 112.206 87.7849L111.328 87.0457C110.45 87.5385 108.607 88.7458 108.256 89.6328Z" fill="#FCF4E1" stroke="#76563F" stroke-width="0.1" stroke-linecap="round" stroke-linejoin="round"/>
<path d="M114.169 91.6954C113.672 92.5316 113.134 92.0438 112.927 91.6954C112.431 90.8591 112.72 88.9077 112.927 88.0366H114.169C114.375 88.9077 114.665 90.8591 114.169 91.6954Z" fill="#FCF4E1" stroke="#76563F" stroke-width="0.1" stroke-linecap="round" stroke-linejoin="round"/>
<path d="M118.84 89.6328C119.191 90.5198 118.401 90.4952 117.962 90.372C116.909 90.0763 115.475 88.5241 114.89 87.7849L115.768 87.0457C116.646 87.5385 118.489 88.7458 118.84 89.6328Z" fill="#FCF4E1" stroke="#76563F" stroke-width="0.1" stroke-linecap="round" stroke-linejoin="round"/>
<path d="M120.412 85.3927C121.405 85.8109 120.825 86.2638 120.412 86.4381C119.419 86.8562 117.101 86.6123 116.067 86.4381L116.067 85.3927C117.101 85.2185 119.419 84.9746 120.412 85.3927Z" fill="#FCF4E1" stroke="#76563F" stroke-width="0.1" stroke-linecap="round" stroke-linejoin="round"/>
<path d="M117.962 81.4588C119.016 81.1631 118.986 81.8284 118.84 82.198C118.489 83.085 116.646 84.2923 115.768 84.7851L114.89 84.0459C115.475 83.3067 116.909 81.7545 117.962 81.4588Z" fill="#FCF4E1" stroke="#76563F" stroke-width="0.1" stroke-linecap="round" stroke-linejoin="round"/>
<path d="M111.803 80.3875C111.005 79.7175 110.744 80.3205 110.713 80.7057C110.639 81.6304 111.738 83.4166 112.297 84.1942L113.387 83.876C113.192 82.9924 112.601 81.0576 111.803 80.3875Z" fill="#FFF9E9" stroke="#76563F" stroke-width="0.1" stroke-linecap="round" stroke-linejoin="round"/>
<path d="M107.635 83.0804C106.531 83.0689 106.86 83.6716 107.162 83.9744C107.888 84.7011 110.134 85.3536 111.166 85.589L111.639 84.695C110.765 84.1616 108.74 83.0919 107.635 83.0804Z" fill="#FFF9E9" stroke="#76563F" stroke-width="0.1" stroke-linecap="round" stroke-linejoin="round"/>
<path d="M106.99 87.4177C106.262 88.1035 107.004 88.4011 107.466 88.4642C108.574 88.6155 110.605 87.7477 111.482 87.2949L111.006 86.2484C109.97 86.3524 107.717 86.7319 106.99 87.4177Z" fill="#FFF9E9" stroke="#76563F" stroke-width="0.1" stroke-linecap="round" stroke-linejoin="round"/>
<path d="M110.19 90.9755C110.273 91.9144 111.025 91.6876 111.391 91.4569C112.269 90.9031 112.916 89.0493 113.13 88.1916L111.928 87.7102C111.314 88.4074 110.107 90.0366 110.19 90.9755Z" fill="#FFF9E9" stroke="#76563F" stroke-width="0.1" stroke-linecap="round" stroke-linejoin="round"/>
<path d="M116.584 91.2942C116.509 92.2188 115.826 91.8916 115.493 91.6124C114.695 90.9423 114.105 89.0076 113.91 88.1239L115 87.8058C115.559 88.5833 116.658 90.3696 116.584 91.2942Z" fill="#FFF9E9" stroke="#76563F" stroke-width="0.1" stroke-linecap="round" stroke-linejoin="round"/>
<path d="M120.134 88.0255C120.86 88.7522 120.122 88.9243 119.661 88.9195C118.557 88.9081 116.532 87.8383 115.658 87.3049L116.131 86.4109C117.163 86.6463 119.408 87.2989 120.134 88.0255Z" fill="#FFF9E9" stroke="#76563F" stroke-width="0.1" stroke-linecap="round" stroke-linejoin="round"/>
<path d="M119.831 83.5358C120.94 83.6871 120.611 84.2965 120.307 84.5822C119.58 85.2681 117.326 85.6475 116.291 85.7515L115.815 84.705C116.691 84.2522 118.723 83.3845 119.831 83.5358Z" fill="#FFF9E9" stroke="#76563F" stroke-width="0.1" stroke-linecap="round" stroke-linejoin="round"/>
<path d="M115.906 80.5431C116.784 79.9893 117.072 80.6333 117.107 81.0245C117.19 81.9634 115.983 83.5925 115.369 84.2897L114.167 83.8083C114.381 82.9506 115.028 81.0968 115.906 80.5431Z" fill="#FFF9E9" stroke="#76563F" stroke-width="0.1" stroke-linecap="round" stroke-linejoin="round"/>
<ellipse cx="113.589" cy="85.9503" rx="2.48446" ry="2.09218" fill="#FCDC8A" stroke="#F5CF6C"/>
<path d="M97.0741 82.5077C96.8109 81.5714 96.1651 81.9034 95.875 82.1864C95.179 82.8657 94.9537 84.8255 94.9281 85.7205L96.1272 86.0418C96.5525 85.2539 97.3373 83.444 97.0741 82.5077Z" fill="#FCF4E1" stroke="#76563F" stroke-width="0.1" stroke-linecap="round" stroke-linejoin="round"/>
<path d="M91.8683 82.4827C90.9274 81.9245 90.7834 82.5747 90.8291 82.9695C90.9387 83.9172 92.4067 85.5605 93.127 86.2636L94.1662 85.7768C93.7923 84.9114 92.8092 83.0409 91.8683 82.4827Z" fill="#FCF4E1" stroke="#76563F" stroke-width="0.1" stroke-linecap="round" stroke-linejoin="round"/>
<path d="M88.4842 85.6487C87.4168 85.7955 87.8591 86.383 88.2137 86.6584C89.0647 87.3193 91.3661 87.6835 92.4104 87.7829L92.6809 86.7732C91.7268 86.3372 89.5517 85.5018 88.4842 85.6487Z" fill="#FCF4E1" stroke="#76563F" stroke-width="0.1" stroke-linecap="round" stroke-linejoin="round"/>
<path d="M88.9048 90.151C88.3361 90.9169 89.1055 91.0976 89.5613 91.0922C90.6553 91.0792 92.4419 89.9509 93.1984 89.3884L92.5419 88.4472C91.5665 88.696 89.4735 89.3851 88.9048 90.151Z" fill="#FCF4E1" stroke="#76563F" stroke-width="0.1" stroke-linecap="round" stroke-linejoin="round"/>
<path d="M94.0824 93.6736C93.3863 94.3529 92.993 93.7424 92.8834 93.3523C92.6202 92.416 93.405 90.6061 93.8303 89.8182L95.0294 90.1395C95.0037 91.0345 94.7785 92.9943 94.0824 93.6736Z" fill="#FCF4E1" stroke="#76563F" stroke-width="0.1" stroke-linecap="round" stroke-linejoin="round"/>
<path d="M99.1286 92.8905C99.2381 93.8381 98.4814 93.6099 98.0894 93.3773C97.1485 92.819 96.1654 90.9486 95.7915 90.0832L96.8307 89.5964C97.551 90.2995 99.019 91.9428 99.1286 92.8905Z" fill="#FCF4E1" stroke="#76563F" stroke-width="0.1" stroke-linecap="round" stroke-linejoin="round"/>
<path d="M101.744 89.2016C102.595 89.8625 101.918 90.1501 101.473 90.2113C100.406 90.3582 98.2306 89.5228 97.2765 89.0868L97.5471 88.0771C98.5914 88.1765 100.893 88.5407 101.744 89.2016Z" fill="#FCF4E1" stroke="#76563F" stroke-width="0.1" stroke-linecap="round" stroke-linejoin="round"/>
<path d="M100.396 84.7678C101.49 84.7548 101.29 85.3898 101.053 85.7089C100.484 86.4749 98.391 87.164 97.4156 87.4128L96.759 86.4716C97.5156 85.9091 99.3022 84.7808 100.396 84.7678Z" fill="#FCF4E1" stroke="#76563F" stroke-width="0.1" stroke-linecap="round" stroke-linejoin="round"/>
<path d="M94.7244 82.1391C94.127 81.2853 93.7185 81.8001 93.5889 82.1642C93.278 83.0382 93.8771 85.048 94.2156 85.9437L95.3511 85.9185C95.3911 85.0144 95.3219 82.9929 94.7244 82.1391Z" fill="#FFF9E9" stroke="#76563F" stroke-width="0.1" stroke-linecap="round" stroke-linejoin="round"/>
<path d="M90.0014 83.6614C88.9377 83.3645 89.0994 84.0318 89.3132 84.4025C89.8263 85.2923 91.8266 86.5038 92.7626 86.9984L93.4509 86.2573C92.7443 85.5157 91.0652 83.9583 90.0014 83.6614Z" fill="#FFF9E9" stroke="#76563F" stroke-width="0.1" stroke-linecap="round" stroke-linejoin="round"/>
<path d="M88.2549 87.6837C87.3746 88.1579 88.0142 88.6373 88.4441 88.8178C89.4757 89.2509 91.6622 88.9383 92.6265 88.7279L92.4373 87.5939C91.41 87.4263 89.1352 87.2096 88.2549 87.6837Z" fill="#FFF9E9" stroke="#76563F" stroke-width="0.1" stroke-linecap="round" stroke-linejoin="round"/>
<path d="M90.4254 91.9486C90.2627 92.877 91.0481 92.8527 91.4612 92.7245C92.4525 92.4168 93.5571 90.7936 93.9855 90.0205L92.9497 89.2446C92.176 89.759 90.588 91.0201 90.4254 91.9486Z" fill="#FFF9E9" stroke="#76563F" stroke-width="0.1" stroke-linecap="round" stroke-linejoin="round"/>
<path d="M96.5189 93.9113C96.2079 94.7852 95.6323 94.2922 95.3834 93.9365C94.7859 93.0827 94.7166 91.0611 94.7567 90.157L95.8922 90.1319C96.2307 91.0276 96.8298 93.0374 96.5189 93.9113Z" fill="#FFF9E9" stroke="#76563F" stroke-width="0.1" stroke-linecap="round" stroke-linejoin="round"/>
<path d="M100.795 91.673C101.308 92.5628 100.55 92.5378 100.106 92.4141C99.0426 92.1172 97.3634 90.5598 96.6569 89.8182L97.3451 89.0771C98.2811 89.5717 100.281 90.7832 100.795 91.673Z" fill="#FFF9E9" stroke="#76563F" stroke-width="0.1" stroke-linecap="round" stroke-linejoin="round"/>
<path d="M101.664 87.2578C102.695 87.6908 102.22 88.1942 101.853 88.3918C100.972 88.8659 98.6977 88.6492 97.6704 88.4816L97.4812 87.3476C98.4455 87.1372 100.632 86.8247 101.664 87.2578Z" fill="#FFF9E9" stroke="#76563F" stroke-width="0.1" stroke-linecap="round" stroke-linejoin="round"/>
<path d="M98.6466 83.3511C99.6379 83.0434 99.7502 83.7401 99.6824 84.127C99.5197 85.0554 97.9317 86.3165 97.158 86.831L96.1222 86.0551C96.5506 85.2819 97.6552 83.6587 98.6466 83.3511Z" fill="#FFF9E9" stroke="#76563F" stroke-width="0.1" stroke-linecap="round" stroke-linejoin="round"/>
<ellipse cx="95.0099" cy="87.9745" rx="2.48446" ry="2.09218" transform="rotate(15 95.0099 87.9745)" fill="#FCDC8A" stroke="#F5CF6C"/>
</svg>
