<svg width="157" height="178" viewBox="0 0 157 178" fill="none" xmlns="http://www.w3.org/2000/svg">
<path d="M49 83.5V159M96.5 72.5L68 173.5M125 54.5L85 159M71.5 35L68 154.5M35 58L55.5 162" stroke="#55794F" stroke-linecap="round" stroke-linejoin="round"/>
<path d="M39.1131 34.9032C44.0086 44.0704 44.7261 48.36 43.6611 54.9087C42.6194 61.3138 37.9377 64.4998 34.9881 65.5069C27.331 66.6304 23.6511 62.4662 20.6908 58.374C19.2133 56.3034 15.9128 50.1579 14.5316 42.1402C15.667 42.2069 17.5235 42.3773 18.9172 42.721C18.904 41.1333 19.9848 39.4083 20.5268 38.7442C22.2786 38.6823 23.833 39.6887 24.3912 40.1997C25.1027 38.0676 26.299 36.2453 27.0695 35.3288C28.3994 35.6493 29.7368 36.513 30.9211 37.5298C31.4066 36.9819 33.2134 35.5363 34.3737 35.0707C34.7861 35.233 35.9095 35.8655 37.1038 37.097C37.8371 36.1546 38.5384 35.4136 39.1131 34.9032Z" fill="#C1495E"/>
<path d="M34.9881 65.5069C27.331 66.6304 23.6511 62.4662 20.6908 58.374C19.2133 56.3034 15.9128 50.1579 14.5316 42.1402C15.667 42.2069 17.5235 42.3773 18.9172 42.721M34.9881 65.5069C37.9377 64.4998 42.6194 61.3139 43.6611 54.9087C44.7261 48.36 44.0086 44.0704 39.1131 34.9032C38.5384 35.4136 37.8371 36.1546 37.1038 37.097M34.9881 65.5069C35.3596 59.867 34.197 55.4897 32.2097 52.1293M32.2097 52.1293C31.9906 48.0191 33.0222 44.364 34.4269 41.4371M32.2097 52.1293C30.0819 48.5312 27.0086 46.0991 23.8608 44.5313M34.4269 41.4371C33.762 40.4573 32.473 38.8621 30.9211 37.5298M34.4269 41.4371C35.2499 39.722 36.2011 38.257 37.1038 37.097M30.9211 37.5298C29.7368 36.513 28.3994 35.6493 27.0695 35.3288C26.299 36.2453 25.1027 38.0676 24.3912 40.1997M30.9211 37.5298C31.4066 36.9819 33.2134 35.5363 34.3737 35.0707C34.7861 35.233 35.9095 35.8655 37.1038 37.097M23.8608 44.5313C23.6772 43.065 23.9343 41.5685 24.3912 40.1997M23.8608 44.5313C22.1905 43.6995 20.4993 43.1111 18.9172 42.721M24.3912 40.1997C23.833 39.6887 22.2786 38.6823 20.5268 38.7442C19.9848 39.4083 18.904 41.1333 18.9172 42.721" stroke="#3B4B38" stroke-width="0.1" stroke-linecap="round" stroke-linejoin="round"/>
<path fill-rule="evenodd" clip-rule="evenodd" d="M43.6611 54.9087C44.7261 48.36 44.0086 44.0704 39.1131 34.9032C38.5384 35.4136 37.8371 36.1546 37.1038 37.097C36.2011 38.257 35.2499 39.722 34.4269 41.4371C33.0222 44.364 31.9906 48.0191 32.2097 52.1293C30.0819 48.5312 27.0086 46.0991 23.8608 44.5313C22.1905 43.6995 20.4993 43.1111 18.9172 42.721C17.5235 42.3773 15.667 42.2069 14.5316 42.1402C15.9128 50.1579 19.2133 56.3034 20.6908 58.374C23.6511 62.4662 27.331 66.6304 34.9881 65.5069C37.9377 64.4998 42.6194 61.3138 43.6611 54.9087Z" fill="#DC536C"/>
<path d="M34.9881 65.5069C27.331 66.6304 23.6511 62.4662 20.6908 58.374C19.2133 56.3034 15.9128 50.1579 14.5316 42.1402C15.667 42.2069 17.5235 42.3773 18.9172 42.721M34.9881 65.5069C37.9377 64.4998 42.6194 61.3139 43.6611 54.9087C44.7261 48.36 44.0086 44.0704 39.1131 34.9032C38.5384 35.4136 37.8371 36.1546 37.1038 37.097M34.9881 65.5069C35.3596 59.867 34.197 55.4897 32.2097 52.1293M32.2097 52.1293C31.9906 48.0191 33.0222 44.364 34.4269 41.4371M32.2097 52.1293C30.0819 48.5312 27.0086 46.0991 23.8608 44.5313M34.4269 41.4371C33.762 40.4573 32.473 38.8621 30.9211 37.5298M34.4269 41.4371C35.2499 39.722 36.2011 38.257 37.1038 37.097M30.9211 37.5298C29.7368 36.513 28.3994 35.6493 27.0695 35.3288C26.299 36.2453 25.1027 38.0676 24.3912 40.1997M30.9211 37.5298C31.4066 36.9819 33.2134 35.5363 34.3737 35.0707C34.7861 35.233 35.9095 35.8655 37.1038 37.097M23.8608 44.5313C23.6772 43.065 23.9343 41.5685 24.3912 40.1997M23.8608 44.5313C22.1905 43.6995 20.4993 43.1111 18.9172 42.721M24.3912 40.1997C23.833 39.6887 22.2786 38.6823 20.5268 38.7442C19.9848 39.4083 18.904 41.1333 18.9172 42.721" stroke="#3B4B38" stroke-width="0.5" stroke-linecap="round" stroke-linejoin="round"/>
<path d="M62.5889 62.2992C63.4496 72.6559 62.408 76.8786 58.8344 82.4687C55.3392 87.9362 49.7781 89.0054 46.6709 88.7608C39.1958 86.7571 37.4679 81.4754 36.3722 76.545C35.8364 74.0584 35.2423 67.108 37.1523 59.1996C38.1683 59.7109 39.8052 60.6032 40.9485 61.4712C41.5656 60.0083 43.2417 58.853 44.0026 58.4582C45.6354 59.0957 46.6635 60.6359 46.9734 61.3262C48.4718 59.6509 50.2924 58.452 51.3631 57.916C52.457 58.7374 53.3425 60.0605 54.0267 61.4634C54.6897 61.1528 56.9215 60.5418 58.1713 60.5743C58.4856 60.8868 59.2662 61.9128 59.8746 63.5168C60.9214 62.9423 61.859 62.5399 62.5889 62.2992Z" fill="#C1495E"/>
<path d="M46.6709 88.7608C39.1958 86.7571 37.4679 81.4754 36.3722 76.545C35.8364 74.0584 35.2423 67.108 37.1523 59.1996C38.1683 59.7109 39.8052 60.6032 40.9485 61.4712M46.6709 88.7608C49.7781 89.0054 55.3392 87.9362 58.8344 82.4687C62.408 76.8786 63.4496 72.6559 62.5889 62.2992C61.859 62.5399 60.9214 62.9423 59.8746 63.5168M46.6709 88.7608C49.2475 83.7302 49.9153 79.2506 49.4228 75.3778M49.4228 75.3778C50.8509 71.5174 53.2468 68.5706 55.6966 66.4403M49.4228 75.3778C48.8955 71.231 47.038 67.7799 44.7695 65.0928M55.6966 66.4403C55.4746 65.2772 54.9234 63.3018 54.0267 61.4634M55.6966 66.4403C57.132 65.192 58.586 64.224 59.8746 63.5168M54.0267 61.4634C53.3425 60.0605 52.457 58.7374 51.3631 57.916C50.2924 58.452 48.4718 59.6509 46.9734 61.3262M54.0267 61.4634C54.6897 61.1528 56.9215 60.5418 58.1713 60.5743C58.4856 60.8868 59.2662 61.9128 59.8746 63.5168M44.7695 65.0928C45.1822 63.6738 46.0114 62.4018 46.9734 61.3262M44.7695 65.0928C43.5658 63.6671 42.2464 62.4565 40.9485 61.4712M46.9734 61.3262C46.6635 60.6359 45.6354 59.0957 44.0026 58.4582C43.2417 58.853 41.5656 60.0083 40.9485 61.4712" stroke="#3B4B38" stroke-width="0.1" stroke-linecap="round" stroke-linejoin="round"/>
<path fill-rule="evenodd" clip-rule="evenodd" d="M58.8344 82.4687C62.408 76.8786 63.4496 72.6559 62.5889 62.2992C61.859 62.5399 60.9214 62.9423 59.8746 63.5168C58.586 64.224 57.132 65.192 55.6966 66.4403C53.2468 68.5706 50.8509 71.5174 49.4228 75.3778C48.8955 71.231 47.038 67.7799 44.7695 65.0928C43.5658 63.6671 42.2464 62.4565 40.9485 61.4712C39.8052 60.6032 38.1683 59.7109 37.1523 59.1996C35.2423 67.108 35.8364 74.0584 36.3722 76.545C37.4679 81.4754 39.1958 86.7571 46.6709 88.7608C49.7781 89.0054 55.3392 87.9362 58.8344 82.4687Z" fill="#DC536C"/>
<path d="M46.6709 88.7608C39.1958 86.7571 37.4679 81.4754 36.3722 76.545C35.8364 74.0584 35.2423 67.108 37.1523 59.1996C38.1683 59.7109 39.8052 60.6032 40.9485 61.4712M46.6709 88.7608C49.7781 89.0054 55.3392 87.9362 58.8344 82.4687C62.408 76.8786 63.4496 72.6559 62.5889 62.2992C61.859 62.5399 60.9214 62.9423 59.8746 63.5168M46.6709 88.7608C49.2475 83.7302 49.9153 79.2506 49.4228 75.3778M49.4228 75.3778C50.8509 71.5174 53.2468 68.5706 55.6966 66.4403M49.4228 75.3778C48.8955 71.231 47.038 67.7799 44.7695 65.0928M55.6966 66.4403C55.4746 65.2772 54.9234 63.3018 54.0267 61.4634M55.6966 66.4403C57.132 65.192 58.586 64.224 59.8746 63.5168M54.0267 61.4634C53.3425 60.0605 52.457 58.7374 51.3631 57.916C50.2924 58.452 48.4718 59.6509 46.9734 61.3262M54.0267 61.4634C54.6897 61.1528 56.9215 60.5418 58.1713 60.5743C58.4856 60.8868 59.2662 61.9128 59.8746 63.5168M44.7695 65.0928C45.1822 63.6738 46.0114 62.4018 46.9734 61.3262M44.7695 65.0928C43.5658 63.6671 42.2464 62.4565 40.9485 61.4712M46.9734 61.3262C46.6635 60.6359 45.6354 59.0957 44.0026 58.4582C43.2417 58.853 41.5656 60.0083 40.9485 61.4712" stroke="#3B4B38" stroke-width="0.5" stroke-linecap="round" stroke-linejoin="round"/>
<path d="M52.8535 16.7995C53.381 27.1785 54.9762 31.2247 59.2631 36.2885C63.4559 41.2413 69.1099 41.5597 72.1568 40.9031C79.2981 37.9209 80.3065 32.4559 80.7351 27.4235C80.9347 24.8876 80.597 17.9201 77.6498 10.3369C76.711 10.979 75.2077 12.0816 74.1903 13.0942C73.3837 11.7267 71.5686 10.8051 70.7619 10.5152C69.2286 11.3647 68.415 13.0282 68.1999 13.7537C66.4915 12.293 64.5273 11.3475 63.3948 10.959C62.4201 11.9189 61.7189 13.3482 61.2278 14.8298C60.5294 14.6104 58.236 14.3023 57.0017 14.5011C56.7319 14.8528 56.0949 15.9737 55.7058 17.6444C54.5918 17.2146 53.6089 16.9408 52.8535 16.7995Z" fill="#C1495E"/>
<path d="M72.1568 40.9031C79.2981 37.9209 80.3065 32.4559 80.7351 27.4235C80.9347 24.8876 80.597 17.9201 77.6498 10.3369C76.711 10.979 75.2077 12.0816 74.1903 13.0942M72.1568 40.9031C69.1099 41.5597 63.4559 41.2413 59.2631 36.2885C54.9762 31.2247 53.381 27.1785 52.8535 16.7995C53.6089 16.9408 54.5918 17.2146 55.7058 17.6444M72.1568 40.9031C68.9325 36.2608 67.6736 31.9102 67.6454 28.0063M67.6454 28.0063C65.7155 24.3708 62.9482 21.7697 60.2363 19.9849M67.6454 28.0063C67.6152 23.8262 68.9961 20.1583 70.8862 17.1928M60.2363 19.9849C60.3012 18.8026 60.5841 16.7713 61.2278 14.8298M60.2363 19.9849C58.6472 18.9391 57.0772 18.1735 55.7058 17.6444M61.2278 14.8298C61.7189 13.3482 62.4201 11.9189 63.3948 10.959C64.5273 11.3475 66.4915 12.293 68.1999 13.7537M61.2278 14.8298C60.5294 14.6104 58.236 14.3023 57.0017 14.5011C56.7319 14.8528 56.0949 15.9737 55.7058 17.6444M70.8862 17.1928C70.288 15.8415 69.2966 14.6914 68.1999 13.7537M70.8862 17.1928C71.8891 15.6194 73.0354 14.2437 74.1903 13.0942M68.1999 13.7537C68.415 13.0282 69.2286 11.3647 70.7619 10.5152C71.5686 10.8051 73.3837 11.7267 74.1903 13.0942" stroke="#3B4B38" stroke-width="0.1" stroke-linecap="round" stroke-linejoin="round"/>
<path fill-rule="evenodd" clip-rule="evenodd" d="M59.2631 36.2885C54.9762 31.2247 53.381 27.1785 52.8535 16.7995C53.6089 16.9408 54.5918 17.2146 55.7058 17.6444C57.0772 18.1735 58.6472 18.9391 60.2363 19.9849C62.9482 21.7697 65.7155 24.3708 67.6454 28.0063C67.6152 23.8262 68.9961 20.1583 70.8862 17.1928C71.8891 15.6194 73.0354 14.2437 74.1903 13.0942C75.2077 12.0816 76.711 10.979 77.6498 10.3369C80.597 17.9201 80.9347 24.8876 80.7351 27.4235C80.3065 32.4559 79.2981 37.9209 72.1568 40.9031C69.1099 41.5597 63.4559 41.2413 59.2631 36.2885Z" fill="#DC536C"/>
<path d="M72.1568 40.9031C79.2981 37.9209 80.3065 32.4559 80.7351 27.4235C80.9347 24.8876 80.597 17.9201 77.6498 10.3369C76.711 10.979 75.2077 12.0816 74.1903 13.0942M72.1568 40.9031C69.1099 41.5597 63.4559 41.2413 59.2631 36.2885C54.9762 31.2247 53.381 27.1785 52.8535 16.7995C53.6089 16.9408 54.5918 17.2146 55.7058 17.6444M72.1568 40.9031C68.9325 36.2608 67.6736 31.9102 67.6454 28.0063M67.6454 28.0063C65.7155 24.3708 62.9482 21.7697 60.2363 19.9849M67.6454 28.0063C67.6152 23.8262 68.9961 20.1583 70.8862 17.1928M60.2363 19.9849C60.3012 18.8026 60.5841 16.7713 61.2278 14.8298M60.2363 19.9849C58.6472 18.9391 57.0772 18.1735 55.7058 17.6444M61.2278 14.8298C61.7189 13.3482 62.4201 11.9189 63.3948 10.959C64.5273 11.3475 66.4915 12.293 68.1999 13.7537M61.2278 14.8298C60.5294 14.6104 58.236 14.3023 57.0017 14.5011C56.7319 14.8528 56.0949 15.9737 55.7058 17.6444M70.8862 17.1928C70.288 15.8415 69.2966 14.6914 68.1999 13.7537M70.8862 17.1928C71.8891 15.6194 73.0354 14.2437 74.1903 13.0942M68.1999 13.7537C68.415 13.0282 69.2286 11.3647 70.7619 10.5152C71.5686 10.8051 73.3837 11.7267 74.1903 13.0942" stroke="#3B4B38" stroke-width="0.5" stroke-linecap="round" stroke-linejoin="round"/>
<path d="M89.6234 46.2091C85.5622 55.7751 85.2289 60.1116 86.8718 66.5397C88.4788 72.8268 93.4251 75.584 96.4526 76.3249C104.179 76.7633 107.474 72.2884 110.059 67.9493C111.347 65.7556 114.088 59.341 114.751 51.2323C113.626 51.3996 111.792 51.7343 110.434 52.2005C110.306 50.618 109.077 48.9959 108.478 48.3826C106.727 48.4767 105.268 49.6173 104.758 50.1759C103.86 48.1155 102.506 46.4067 101.657 45.5624C100.361 45.9998 99.1057 46.979 98.0165 48.097C97.4842 47.5945 95.5561 46.3151 94.359 45.9546C93.9626 46.1529 92.8999 46.8828 91.8198 48.2155C91.0056 47.3421 90.2412 46.6663 89.6234 46.2091Z" fill="#C1495E"/>
<path d="M96.4526 76.3249C104.179 76.7633 107.474 72.2884 110.059 67.9493C111.347 65.7556 114.088 59.341 114.751 51.2323C113.626 51.3996 111.792 51.7343 110.434 52.2005M96.4526 76.3249C93.4251 75.584 88.4788 72.8268 86.8718 66.5397C85.2289 60.1116 85.5622 55.7751 89.6234 46.2091C90.2412 46.6663 91.0056 47.3421 91.8198 48.2155M96.4526 76.3249C95.5813 70.7404 96.3501 66.277 98.0308 62.7533M98.0308 62.7533C97.8836 58.6399 96.5312 55.091 94.8719 52.3005M98.0308 62.7533C99.8304 58.9803 102.675 56.2846 105.671 54.4432M94.8719 52.3005C95.447 51.2655 96.5892 49.562 98.0165 48.097M94.8719 52.3005C93.8997 50.6654 92.822 49.2907 91.8198 48.2155M98.0165 48.097C99.1057 46.979 100.361 45.9998 101.657 45.5624C102.506 46.4067 103.86 48.1155 104.758 50.1759M98.0165 48.097C97.4842 47.5945 95.5561 46.3151 94.359 45.9546C93.9626 46.1529 92.8999 46.8828 91.8198 48.2155M105.671 54.4432C105.724 52.9663 105.335 51.4987 104.758 50.1759M105.671 54.4432C107.261 53.4662 108.893 52.7298 110.434 52.2005M104.758 50.1759C105.268 49.6173 106.727 48.4767 108.478 48.3826C109.077 48.9959 110.306 50.618 110.434 52.2005" stroke="#3B4B38" stroke-width="0.1" stroke-linecap="round" stroke-linejoin="round"/>
<path fill-rule="evenodd" clip-rule="evenodd" d="M86.8718 66.5397C85.2289 60.1116 85.5622 55.7751 89.6234 46.2091C90.2412 46.6663 91.0056 47.3421 91.8198 48.2155C92.822 49.2907 93.8997 50.6654 94.8719 52.3005C96.5312 55.091 97.8836 58.6399 98.0308 62.7533C99.8304 58.9803 102.675 56.2846 105.671 54.4432C107.261 53.4662 108.893 52.7298 110.434 52.2005C111.792 51.7343 113.626 51.3996 114.751 51.2323C114.088 59.341 111.347 65.7556 110.059 67.9493C107.474 72.2884 104.179 76.7633 96.4526 76.3249C93.4251 75.584 88.4788 72.8268 86.8718 66.5397Z" fill="#DC536C"/>
<path d="M96.4526 76.3249C104.179 76.7633 107.474 72.2884 110.059 67.9493C111.347 65.7556 114.088 59.341 114.751 51.2323C113.626 51.3996 111.792 51.7343 110.434 52.2005M96.4526 76.3249C93.4251 75.584 88.4788 72.8268 86.8718 66.5397C85.2289 60.1116 85.5622 55.7751 89.6234 46.2091C90.2412 46.6663 91.0056 47.3421 91.8198 48.2155M96.4526 76.3249C95.5813 70.7404 96.3501 66.277 98.0308 62.7533M98.0308 62.7533C97.8836 58.6399 96.5312 55.091 94.8719 52.3005M98.0308 62.7533C99.8304 58.9803 102.675 56.2846 105.671 54.4432M94.8719 52.3005C95.447 51.2655 96.5892 49.562 98.0165 48.097M94.8719 52.3005C93.8997 50.6654 92.822 49.2907 91.8198 48.2155M98.0165 48.097C99.1057 46.979 100.361 45.9998 101.657 45.5624C102.506 46.4067 103.86 48.1155 104.758 50.1759M98.0165 48.097C97.4842 47.5945 95.5561 46.3151 94.359 45.9546C93.9626 46.1529 92.8999 46.8828 91.8198 48.2155M105.671 54.4432C105.724 52.9663 105.335 51.4987 104.758 50.1759M105.671 54.4432C107.261 53.4662 108.893 52.7298 110.434 52.2005M104.758 50.1759C105.268 49.6173 106.727 48.4767 108.478 48.3826C109.077 48.9959 110.306 50.618 110.434 52.2005" stroke="#3B4B38" stroke-width="0.5" stroke-linecap="round" stroke-linejoin="round"/>
<path d="M146.283 37.6211C144.23 47.8087 142.055 51.5752 137.068 55.9511C132.19 60.231 126.551 59.7117 123.634 58.6127C117.011 54.6094 116.82 49.0555 117.139 44.0149C117.316 41.4773 118.678 34.6359 122.711 27.5705C123.545 28.3441 124.869 29.6565 125.726 30.8081C126.726 29.5746 128.657 28.9309 129.498 28.7632C130.889 29.8297 131.448 31.5949 131.554 32.3443C133.459 31.1516 135.541 30.5063 136.719 30.2892C137.541 31.3824 138.024 32.8995 138.291 34.4373C139.014 34.3234 141.328 34.357 142.519 34.7358C142.734 35.1234 143.199 36.326 143.337 38.0359C144.502 37.7752 145.515 37.6494 146.283 37.6211Z" fill="#C1495E"/>
<path d="M123.634 58.6127C117.011 54.6094 116.82 49.0555 117.139 44.0149C117.316 41.4773 118.678 34.6359 122.711 27.5705C123.545 28.3441 124.869 29.6565 125.726 30.8081M123.634 58.6127C126.551 59.7117 132.19 60.231 137.068 55.9511C142.055 51.5752 144.23 47.8087 146.283 37.6211C145.515 37.6494 144.502 37.7752 143.337 38.0359M123.634 58.6127C127.508 54.497 129.395 50.3797 129.999 46.5227M129.999 46.5227C132.445 43.2117 135.565 41.0474 138.511 39.6823M129.999 46.5227C130.646 42.3928 129.821 38.5613 128.389 35.3494M138.511 39.6823C138.621 38.5033 138.641 36.4526 138.291 34.4373M138.511 39.6823C140.237 38.8824 141.903 38.3569 143.337 38.0359M138.291 34.4373C138.024 32.8995 137.541 31.3824 136.719 30.2892C135.541 30.5063 133.459 31.1516 131.554 32.3443M138.291 34.4373C139.014 34.3234 141.328 34.357 142.519 34.7358C142.734 35.1234 143.199 36.326 143.337 38.0359M128.389 35.3494C129.181 34.1012 130.331 33.1099 131.554 32.3443M128.389 35.3494C127.63 33.6452 126.699 32.1155 125.726 30.8081M131.554 32.3443C131.448 31.5949 130.889 29.8297 129.498 28.7632C128.657 28.9309 126.726 29.5746 125.726 30.8081" stroke="#3B4B38" stroke-width="0.1" stroke-linecap="round" stroke-linejoin="round"/>
<path fill-rule="evenodd" clip-rule="evenodd" d="M137.068 55.9511C142.055 51.5752 144.23 47.8087 146.283 37.6211C145.515 37.6494 144.502 37.7752 143.337 38.0359C141.903 38.3569 140.237 38.8824 138.511 39.6823C135.565 41.0474 132.445 43.2117 129.999 46.5227C130.646 42.3929 129.821 38.5613 128.389 35.3494C127.63 33.6452 126.699 32.1155 125.726 30.8081C124.869 29.6565 123.545 28.3441 122.711 27.5705C118.678 34.6359 117.316 41.4773 117.139 44.0149C116.82 49.0555 117.011 54.6094 123.634 58.6127C126.551 59.7117 132.19 60.231 137.068 55.9511Z" fill="#DC536C"/>
<path d="M123.634 58.6127C117.011 54.6094 116.82 49.0555 117.139 44.0149C117.316 41.4773 118.678 34.6359 122.711 27.5705C123.545 28.3441 124.869 29.6565 125.726 30.8081M123.634 58.6127C126.551 59.7117 132.19 60.231 137.068 55.9511C142.055 51.5752 144.23 47.8087 146.283 37.6211C145.515 37.6494 144.502 37.7752 143.337 38.0359M123.634 58.6127C127.508 54.497 129.395 50.3797 129.999 46.5227M129.999 46.5227C132.445 43.2117 135.565 41.0474 138.511 39.6823M129.999 46.5227C130.646 42.3928 129.821 38.5613 128.389 35.3494M138.511 39.6823C138.621 38.5033 138.641 36.4526 138.291 34.4373M138.511 39.6823C140.237 38.8824 141.903 38.3569 143.337 38.0359M138.291 34.4373C138.024 32.8995 137.541 31.3824 136.719 30.2892C135.541 30.5063 133.459 31.1516 131.554 32.3443M138.291 34.4373C139.014 34.3234 141.328 34.357 142.519 34.7358C142.734 35.1234 143.199 36.326 143.337 38.0359M128.389 35.3494C129.181 34.1012 130.331 33.1099 131.554 32.3443M128.389 35.3494C127.63 33.6452 126.699 32.1155 125.726 30.8081M131.554 32.3443C131.448 31.5949 130.889 29.8297 129.498 28.7632C128.657 28.9309 126.726 29.5746 125.726 30.8081" stroke="#3B4B38" stroke-width="0.5" stroke-linecap="round" stroke-linejoin="round"/>
</svg>
