<svg width="158" height="143" viewBox="0 0 158 143" fill="none" xmlns="http://www.w3.org/2000/svg">
<path d="M21 50.0904L50.5 129.09M10.5 40.0904L54 124.09M45 59.0904L54 142.09M41.5 26.0904L56.583 134.59M57 137.59L56.583 134.59M73 84.5904L56.583 134.59M81 24.0904L57.48 122.09M57 124.09L57.48 122.09M74 11.5904L57.48 122.09M112.5 71.0904L62 134.59M117.5 54.5904L60.5 132.09M145.5 50.0904L68 134.59M116 20.5904L68 124.09" stroke="#8BB185" stroke-width="0.5" stroke-linecap="round" stroke-linejoin="round"/>
<path d="M16.0197 43.3583C16.0197 45.108 18.4123 47.0774 19.6087 48.3791C19.8401 48.5651 20.4033 48.8254 20.805 48.3791C22.0014 47.0774 24.394 45.4597 24.394 43.3583C24.394 42.2425 22.0014 40.011 20.2068 43.3583C18.4123 40.011 16.0197 42.2425 16.0197 43.3583Z" fill="#8F4FC2" stroke="#583276" stroke-width="0.1" stroke-linecap="round" stroke-linejoin="round"/>
<path d="M16.3632 46.6062C16.9405 47.6908 19.0736 48.3545 20.2447 48.8829C20.4495 48.9443 20.8845 48.9745 20.9863 48.6043C21.2984 47.5188 22.2479 45.9589 21.5545 44.6561C21.1864 43.9645 18.9669 43.1383 18.9589 45.6311C16.742 43.974 15.9951 45.9145 16.3632 46.6062Z" fill="#AC68E1" stroke="#583276" stroke-width="0.1" stroke-linecap="round" stroke-linejoin="round"/>
<path d="M14.1044 52.0024C16.1872 52.0024 18.5315 49.9924 20.081 48.9874C20.3024 48.793 20.6123 48.3198 20.081 47.9823C18.5315 46.9773 16.6059 44.9673 14.1044 44.9673C12.7762 44.9673 10.12 46.9773 14.1044 48.4849C10.12 49.9924 12.7762 52.0024 14.1044 52.0024Z" fill="#8F4FC2" stroke="#583276" stroke-width="0.1" stroke-linecap="round" stroke-linejoin="round"/>
<path d="M17.9705 52.537C19.2617 52.052 20.0517 50.26 20.6807 49.2762C20.7538 49.1041 20.7898 48.7387 20.3491 48.6532C19.0569 48.391 17.2 47.5933 15.6493 48.1758C14.826 48.4851 13.8425 50.3497 16.8099 50.3564C14.8374 52.2187 17.1472 52.8462 17.9705 52.537Z" fill="#AC68E1" stroke="#583276" stroke-width="0.1" stroke-linecap="round" stroke-linejoin="round"/>
<path d="M16.0197 53.8225C16.0197 52.0728 18.4123 50.1034 19.6087 48.8016C19.8401 48.6157 20.4033 48.3553 20.805 48.8016C22.0014 50.1034 24.394 51.721 24.394 53.8225C24.394 54.9383 22.0014 57.1698 20.2068 53.8225C18.4123 57.1698 16.0197 54.9383 16.0197 53.8225Z" fill="#8F4FC2" stroke="#583276" stroke-width="0.1" stroke-linecap="round" stroke-linejoin="round"/>
<path d="M19.8391 53.1366C19.2617 52.052 20.0952 50.274 20.4073 49.1884C20.4894 49.0193 20.7526 48.7267 21.1489 48.9099C22.32 49.4382 24.337 49.8839 25.0304 51.1866C25.3985 51.8783 24.6516 53.8187 22.4347 52.1616C22.4267 54.6545 20.2072 53.8283 19.8391 53.1366Z" fill="#AC68E1" stroke="#583276" stroke-width="0.1" stroke-linecap="round" stroke-linejoin="round"/>
<path d="M26.8956 52.0025C24.8128 52.0025 22.4685 49.9924 20.919 48.9874C20.6976 48.793 20.3877 48.3198 20.919 47.9824C22.4685 46.9773 24.3941 44.9673 26.8956 44.9673C28.2238 44.9673 30.88 46.9773 26.8956 48.4849C30.88 49.9924 28.2238 52.0025 26.8956 52.0025Z" fill="#8F4FC2" stroke="#583276" stroke-width="0.1" stroke-linecap="round" stroke-linejoin="round"/>
<path d="M25.7442 49.617C24.453 50.102 22.3366 49.4018 21.0444 49.1396C20.843 49.0707 20.4948 48.8495 20.7128 48.5166C21.3417 47.5328 21.8722 45.8383 23.423 45.2558C24.2463 44.9466 26.5561 45.5741 24.5836 47.4364C27.5509 47.4431 26.5675 49.3077 25.7442 49.617Z" fill="#AC68E1" stroke="#583276" stroke-width="0.1" stroke-linecap="round" stroke-linejoin="round"/>
<path d="M20.7128 48.5166C20.4948 48.8495 20.843 49.0706 21.0444 49.1396C21.4633 49.2246 21.969 49.3557 22.505 49.4774C21.9398 49.1316 20.913 48.233 21.3271 47.4059C21.1076 47.8092 20.9153 48.1997 20.7128 48.5166Z" fill="#F5CF6C" stroke="#F5CF6C" stroke-width="0.1" stroke-linecap="round" stroke-linejoin="round"/>
<path d="M20.349 48.6532C20.7897 48.7387 20.7537 49.1042 20.6806 49.2762C20.4767 49.5952 20.2559 49.9991 20.0065 50.416C20.0764 49.8315 19.9639 48.5895 18.954 48.2972C19.4582 48.4288 19.9329 48.5687 20.349 48.6532Z" fill="#F5CF6C" stroke="#F5CF6C" stroke-width="0.1" stroke-linecap="round" stroke-linejoin="round"/>
<path d="M21.1087 48.9249C20.7186 48.7395 20.464 49.0288 20.3854 49.1966C20.2902 49.5463 20.142 49.9681 20.005 50.4155C20.403 49.9459 21.4412 49.0951 22.4093 49.4492C21.937 49.2618 21.4799 49.0973 21.1087 48.9249Z" fill="#F5CF6C" stroke="#F5CF6C" stroke-width="0.1" stroke-linecap="round" stroke-linejoin="round"/>
<path d="M20.9344 48.6238C20.8502 48.9874 20.4398 48.9479 20.2451 48.8827C19.8823 48.705 19.424 48.5111 18.9504 48.2931C19.6071 48.3665 20.9956 48.3058 21.2965 47.475C21.1624 47.8901 21.0181 48.2806 20.9344 48.6238Z" fill="#F5CF6C" stroke="#F5CF6C" stroke-width="0.1" stroke-linecap="round" stroke-linejoin="round"/>
<ellipse cx="20.7094" cy="48.907" rx="0.418719" ry="0.351759" fill="#55794F"/>
<path d="M43.0922 18.162C41.855 19.3992 42.1542 22.4837 42.0797 24.2501C42.1119 24.5452 42.326 25.1276 42.9257 25.096C44.6921 25.0215 47.5278 25.5695 49.0138 24.0835C49.8028 23.2946 49.6888 20.0248 46.053 21.1228C47.151 17.487 43.8812 17.373 43.0922 18.162Z" fill="#8F4FC2" stroke="#583276" stroke-width="0.1" stroke-linecap="round" stroke-linejoin="round"/>
<path d="M41.0385 20.7015C40.6798 21.8767 41.7188 23.8543 42.1732 25.056C42.2747 25.2443 42.5609 25.5733 42.8946 25.3834C43.8829 24.8366 45.6574 24.4049 46.0882 22.9935C46.317 22.2441 45.3318 20.0904 43.5634 21.8475C43.1676 19.1082 41.2673 19.9521 41.0385 20.7015Z" fill="#AC68E1" stroke="#583276" stroke-width="0.1" stroke-linecap="round" stroke-linejoin="round"/>
<path d="M35.6256 22.92C37.0984 24.3928 40.1774 24.6292 41.9837 25.0142C42.2777 25.0333 42.8314 24.9178 42.6944 24.3035C42.3094 22.4972 42.3691 19.7143 40.6002 17.9454C39.6611 17.0063 36.3615 16.5493 38.1129 20.4327C34.2295 18.6813 34.6865 21.9809 35.6256 22.92Z" fill="#8F4FC2" stroke="#583276" stroke-width="0.1" stroke-linecap="round" stroke-linejoin="round"/>
<path d="M37.9815 26.0318C39.2374 26.6018 41.0631 25.8934 42.2035 25.6424C42.3769 25.5725 42.6607 25.3395 42.4096 24.9674C41.6813 23.8683 40.9323 21.9913 39.4239 21.3066C38.623 20.9431 36.6092 21.5662 38.7027 23.6692C35.991 23.5913 37.1806 25.6683 37.9815 26.0318Z" fill="#AC68E1" stroke="#583276" stroke-width="0.1" stroke-linecap="round" stroke-linejoin="round"/>
<path d="M35.6929 25.5613C36.9302 24.3241 40.0147 24.6234 41.7811 24.5489C42.0762 24.581 42.6585 24.7952 42.627 25.3948C42.5525 27.1612 43.1005 29.9969 41.6145 31.4829C40.8256 32.2719 37.5558 32.1579 38.6537 28.5221C35.018 29.6201 34.904 26.3503 35.6929 25.5613Z" fill="#8F4FC2" stroke="#583276" stroke-width="0.1" stroke-linecap="round" stroke-linejoin="round"/>
<path d="M38.8786 27.7771C39.2373 26.6019 41.0839 25.9339 42.0722 25.3871C42.2498 25.3255 42.6428 25.3048 42.7936 25.7145C43.2481 26.9162 44.3591 28.6576 43.9283 30.069C43.6995 30.8184 41.7992 31.6623 41.4034 28.923C39.6351 30.6801 38.6498 28.5265 38.8786 27.7771Z" fill="#AC68E1" stroke="#583276" stroke-width="0.1" stroke-linecap="round" stroke-linejoin="round"/>
<path d="M44.6703 31.9648C43.1975 30.4921 42.9611 27.413 42.5761 25.6067C42.5571 25.3127 42.6725 24.759 43.2868 24.896C45.0931 25.2811 47.8761 25.2214 49.6449 26.9902C50.5841 27.9293 51.041 31.2289 47.1576 29.4775C48.909 33.3609 45.6094 32.904 44.6703 31.9648Z" fill="#8F4FC2" stroke="#583276" stroke-width="0.1" stroke-linecap="round" stroke-linejoin="round"/>
<path d="M45.543 29.4639C44.287 28.8938 43.2855 26.9022 42.5573 25.8031C42.4636 25.6119 42.3738 25.2093 42.7633 25.128C43.9037 24.8771 45.477 24.0541 46.9854 24.7387C47.7863 25.1022 48.9759 27.1792 46.2642 27.1013C48.3577 29.2043 46.3438 29.8273 45.543 29.4639Z" fill="#AC68E1" stroke="#583276" stroke-width="0.1" stroke-linecap="round" stroke-linejoin="round"/>
<path d="M42.7633 25.128C42.3738 25.2093 42.4636 25.6119 42.5573 25.803C42.7934 26.1594 43.0583 26.6096 43.3512 27.0747C43.1961 26.4305 43.1055 25.0691 43.9832 24.777C43.5427 24.907 43.1306 25.0472 42.7633 25.128Z" fill="#F5CF6C" stroke="#F5CF6C" stroke-width="0.1" stroke-linecap="round" stroke-linejoin="round"/>
<path d="M42.4096 24.9675C42.6608 25.3395 42.3769 25.5725 42.2035 25.6425C41.8338 25.7238 41.392 25.8533 40.9209 25.9717C41.3837 25.6079 42.1823 24.6501 41.6749 23.7293C41.9384 24.1789 42.1751 24.6135 42.4096 24.9675Z" fill="#F5CF6C" stroke="#F5CF6C" stroke-width="0.1" stroke-linecap="round" stroke-linejoin="round"/>
<path d="M42.7546 25.6968C42.6099 25.2898 42.2253 25.3143 42.051 25.3774C41.7364 25.5574 41.3334 25.7509 40.9202 25.9703C41.5337 25.9197 42.8693 26.0522 43.3035 26.9871C43.1021 26.5207 42.8952 26.0812 42.7546 25.6968Z" fill="#F5CF6C" stroke="#F5CF6C" stroke-width="0.1" stroke-linecap="round" stroke-linejoin="round"/>
<path d="M42.8442 25.3605C42.5275 25.5581 42.2652 25.2399 42.1737 25.0562C42.0428 24.674 41.8559 24.2127 41.6752 23.7238C42.0876 24.24 43.1124 25.1789 43.9125 24.8042C43.5242 25.0029 43.146 25.1769 42.8442 25.3605Z" fill="#F5CF6C" stroke="#F5CF6C" stroke-width="0.1" stroke-linecap="round" stroke-linejoin="round"/>
<ellipse cx="42.4848" cy="25.4017" rx="0.418719" ry="0.351759" transform="rotate(45 42.4848 25.4017)" fill="#55794F"/>
<path d="M46.613 50.6828C45.3757 51.92 45.675 55.0045 45.6005 56.7709C45.6326 57.066 45.8468 57.6484 46.4464 57.6168C48.2128 57.5423 51.0486 58.0903 52.5346 56.6044C53.3235 55.8154 53.2095 52.5456 49.5738 53.6436C50.6717 50.0078 47.4019 49.8938 46.613 50.6828Z" fill="#8F4FC2" stroke="#583276" stroke-width="0.1" stroke-linecap="round" stroke-linejoin="round"/>
<path d="M44.5593 53.2223C44.2005 54.3975 45.2395 56.3751 45.694 57.5768C45.7954 57.7651 46.0817 58.0941 46.4154 57.9043C47.4037 57.3574 49.1781 56.9257 49.609 55.5143C49.8377 54.7649 48.8525 52.6113 47.0841 54.3683C46.6883 51.629 44.788 52.4729 44.5593 53.2223Z" fill="#AC68E1" stroke="#583276" stroke-width="0.1" stroke-linecap="round" stroke-linejoin="round"/>
<path d="M39.1464 55.4408C40.6191 56.9136 43.6981 57.15 45.5045 57.535C45.7985 57.5541 46.3522 57.4386 46.2151 56.8243C45.8301 55.018 45.8898 52.2351 44.121 50.4662C43.1818 49.5271 39.8822 49.0701 41.6337 52.9535C37.7503 51.2021 38.2072 54.5017 39.1464 55.4408Z" fill="#8F4FC2" stroke="#583276" stroke-width="0.1" stroke-linecap="round" stroke-linejoin="round"/>
<path d="M41.5022 58.5526C42.7581 59.1226 44.5839 58.4142 45.7243 58.1633C45.8976 58.0933 46.1815 57.8603 45.9303 57.4882C45.2021 56.3891 44.453 54.5121 42.9446 53.8274C42.1438 53.464 40.1299 54.087 42.2234 56.19C39.5117 56.1121 40.7013 58.1891 41.5022 58.5526Z" fill="#AC68E1" stroke="#583276" stroke-width="0.1" stroke-linecap="round" stroke-linejoin="round"/>
<path d="M39.2137 58.0821C40.4509 56.8449 43.5354 57.1442 45.3018 57.0697C45.5969 57.1018 46.1793 57.316 46.1478 57.9156C46.0732 59.682 46.6212 62.5178 45.1353 64.0037C44.3463 64.7927 41.0765 64.6787 42.1745 61.0429C38.5387 62.1409 38.4247 58.8711 39.2137 58.0821Z" fill="#8F4FC2" stroke="#583276" stroke-width="0.1" stroke-linecap="round" stroke-linejoin="round"/>
<path d="M42.3993 60.2979C42.7581 59.1227 44.6047 58.4548 45.5929 57.9079C45.7706 57.8463 46.1636 57.8256 46.3143 58.2353C46.7688 59.437 47.8799 61.1784 47.449 62.5898C47.2203 63.3392 45.32 64.1832 44.9242 61.4439C43.1558 63.2009 42.1706 61.0473 42.3993 60.2979Z" fill="#AC68E1" stroke="#583276" stroke-width="0.1" stroke-linecap="round" stroke-linejoin="round"/>
<path d="M48.191 64.4856C46.7183 63.0129 46.4819 59.9338 46.0969 58.1275C46.0778 57.8335 46.1933 57.2798 46.8076 57.4169C48.6139 57.8019 51.3968 57.7422 53.1657 59.511C54.1048 60.4502 54.5618 63.7498 50.6784 61.9983C52.4298 65.8817 49.1302 65.4248 48.191 64.4856Z" fill="#8F4FC2" stroke="#583276" stroke-width="0.1" stroke-linecap="round" stroke-linejoin="round"/>
<path d="M49.0637 61.9847C47.8078 61.4146 46.8063 59.423 46.078 58.3239C45.9844 58.1327 45.8945 57.7301 46.2841 57.6489C47.4245 57.3979 48.9977 56.5749 50.5061 57.2595C51.307 57.623 52.4966 59.7 49.7849 59.6221C51.8784 61.7251 49.8646 62.3482 49.0637 61.9847Z" fill="#AC68E1" stroke="#583276" stroke-width="0.1" stroke-linecap="round" stroke-linejoin="round"/>
<path d="M46.2841 57.6488C45.8945 57.7301 45.9844 58.1327 46.078 58.3238C46.3142 58.6802 46.579 59.1304 46.8719 59.5956C46.7169 58.9513 46.6262 57.5899 47.5039 57.2978C47.0635 57.4279 46.6513 57.568 46.2841 57.6488Z" fill="#F5CF6C" stroke="#F5CF6C" stroke-width="0.1" stroke-linecap="round" stroke-linejoin="round"/>
<path d="M45.9304 57.4883C46.1815 57.8603 45.8976 58.0933 45.7243 58.1633C45.3545 58.2447 44.9127 58.3741 44.4417 58.4925C44.9044 58.1287 45.7031 57.1709 45.1956 56.2502C45.4591 56.6997 45.6958 57.1343 45.9304 57.4883Z" fill="#F5CF6C" stroke="#F5CF6C" stroke-width="0.1" stroke-linecap="round" stroke-linejoin="round"/>
<path d="M46.2753 58.2176C46.1306 57.8106 45.746 57.8351 45.5718 57.8983C45.2571 58.0782 44.8541 58.2717 44.4409 58.4911C45.0545 58.4405 46.3901 58.573 46.8243 59.5079C46.6228 59.0415 46.416 58.602 46.2753 58.2176Z" fill="#F5CF6C" stroke="#F5CF6C" stroke-width="0.1" stroke-linecap="round" stroke-linejoin="round"/>
<path d="M46.3649 57.8813C46.0483 58.0789 45.786 57.7608 45.6944 57.577C45.5636 57.1948 45.3766 56.7336 45.1959 56.2446C45.6083 56.7608 46.6331 57.6997 47.4333 57.325C47.0449 57.5238 46.6668 57.6978 46.3649 57.8813Z" fill="#F5CF6C" stroke="#F5CF6C" stroke-width="0.1" stroke-linecap="round" stroke-linejoin="round"/>
<ellipse cx="46.0056" cy="57.9225" rx="0.418719" ry="0.351759" transform="rotate(45 46.0056 57.9225)" fill="#55794F"/>
<path d="M74.613 75.6828C73.3757 76.92 73.675 80.0045 73.6005 81.7709C73.6326 82.0661 73.8468 82.6484 74.4464 82.6169C76.2128 82.5424 79.0486 83.0904 80.5346 81.6044C81.3235 80.8154 81.2095 77.5456 77.5738 78.6436C78.6717 75.0078 75.4019 74.8939 74.613 75.6828Z" fill="#8F4FC2" stroke="#583276" stroke-width="0.1" stroke-linecap="round" stroke-linejoin="round"/>
<path d="M72.5593 78.2224C72.2005 79.3975 73.2395 81.3752 73.694 82.5769C73.7954 82.7651 74.0817 83.0941 74.4154 82.9043C75.4037 82.3574 77.1781 81.9257 77.609 80.5143C77.8377 79.7649 76.8525 77.6113 75.0841 79.3683C74.6883 76.629 72.788 77.473 72.5593 78.2224Z" fill="#AC68E1" stroke="#583276" stroke-width="0.1" stroke-linecap="round" stroke-linejoin="round"/>
<path d="M67.1464 80.4408C68.6191 81.9136 71.6981 82.15 73.5045 82.535C73.7985 82.5541 74.3522 82.4386 74.2151 81.8243C73.8301 80.018 73.8898 77.2351 72.121 75.4662C71.1818 74.5271 67.8822 74.0701 69.6337 77.9535C65.7503 76.2021 66.2072 79.5017 67.1464 80.4408Z" fill="#8F4FC2" stroke="#583276" stroke-width="0.1" stroke-linecap="round" stroke-linejoin="round"/>
<path d="M69.5022 83.5526C70.7581 84.1226 72.5839 83.4142 73.7243 83.1632C73.8976 83.0932 74.1815 82.8603 73.9303 82.4882C73.2021 81.3891 72.453 79.512 70.9446 78.8274C70.1438 78.4639 68.1299 79.087 70.2234 81.19C67.5117 81.112 68.7013 83.1891 69.5022 83.5526Z" fill="#AC68E1" stroke="#583276" stroke-width="0.1" stroke-linecap="round" stroke-linejoin="round"/>
<path d="M67.2137 83.0821C68.4509 81.8449 71.5354 82.1442 73.3018 82.0697C73.5969 82.1018 74.1793 82.316 74.1478 82.9156C74.0732 84.682 74.6212 87.5178 73.1353 89.0037C72.3463 89.7927 69.0765 89.6787 70.1745 86.0429C66.5387 87.1409 66.4247 83.8711 67.2137 83.0821Z" fill="#8F4FC2" stroke="#583276" stroke-width="0.1" stroke-linecap="round" stroke-linejoin="round"/>
<path d="M70.3993 85.2979C70.7581 84.1227 72.6047 83.4548 73.5929 82.9079C73.7706 82.8463 74.1636 82.8256 74.3143 83.2353C74.7688 84.437 75.8799 86.1784 75.449 87.5899C75.2203 88.3392 73.32 89.1832 72.9242 86.4439C71.1558 88.2009 70.1706 86.0473 70.3993 85.2979Z" fill="#AC68E1" stroke="#583276" stroke-width="0.1" stroke-linecap="round" stroke-linejoin="round"/>
<path d="M76.191 89.4857C74.7183 88.0129 74.4819 84.9339 74.0969 83.1275C74.0778 82.8336 74.1933 82.2799 74.8076 82.4169C76.6139 82.8019 79.3968 82.7422 81.1657 84.511C82.1048 85.4502 82.5618 88.7498 78.6784 86.9984C80.4298 90.8818 77.1302 90.4248 76.191 89.4857Z" fill="#8F4FC2" stroke="#583276" stroke-width="0.1" stroke-linecap="round" stroke-linejoin="round"/>
<path d="M77.0637 86.9847C75.8078 86.4146 74.8063 84.423 74.078 83.3239C73.9844 83.1327 73.8945 82.7301 74.2841 82.6489C75.4245 82.3979 76.9977 81.5749 78.5061 82.2595C79.307 82.623 80.4966 84.7 77.7849 84.6221C79.8784 86.7251 77.8646 87.3482 77.0637 86.9847Z" fill="#AC68E1" stroke="#583276" stroke-width="0.1" stroke-linecap="round" stroke-linejoin="round"/>
<path d="M74.2841 82.6488C73.8945 82.7301 73.9844 83.1327 74.078 83.3239C74.3142 83.6802 74.579 84.1304 74.8719 84.5956C74.7169 83.9514 74.6262 82.5899 75.5039 82.2979C75.0635 82.4279 74.6513 82.568 74.2841 82.6488Z" fill="#F5CF6C" stroke="#F5CF6C" stroke-width="0.1" stroke-linecap="round" stroke-linejoin="round"/>
<path d="M73.9304 82.4883C74.1815 82.8603 73.8976 83.0933 73.7243 83.1633C73.3545 83.2447 72.9127 83.3741 72.4417 83.4925C72.9044 83.1287 73.7031 82.1709 73.1956 81.2502C73.4591 81.6997 73.6958 82.1343 73.9304 82.4883Z" fill="#F5CF6C" stroke="#F5CF6C" stroke-width="0.1" stroke-linecap="round" stroke-linejoin="round"/>
<path d="M74.2753 83.2176C74.1306 82.8106 73.746 82.8351 73.5718 82.8983C73.2571 83.0782 72.8541 83.2717 72.4409 83.4911C73.0545 83.4405 74.3901 83.573 74.8243 84.5079C74.6228 84.0415 74.416 83.602 74.2753 83.2176Z" fill="#F5CF6C" stroke="#F5CF6C" stroke-width="0.1" stroke-linecap="round" stroke-linejoin="round"/>
<path d="M74.3649 82.8813C74.0483 83.0789 73.786 82.7608 73.6944 82.577C73.5636 82.1948 73.3766 81.7336 73.1959 81.2446C73.6083 81.7608 74.6331 82.6997 75.4333 82.325C75.0449 82.5238 74.6668 82.6978 74.3649 82.8813Z" fill="#F5CF6C" stroke="#F5CF6C" stroke-width="0.1" stroke-linecap="round" stroke-linejoin="round"/>
<ellipse cx="74.0056" cy="82.9224" rx="0.418719" ry="0.351759" transform="rotate(45 74.0056 82.9224)" fill="#55794F"/>
<path d="M119.613 46.6828C118.376 47.92 118.675 51.0045 118.6 52.7709C118.633 53.066 118.847 53.6484 119.446 53.6168C121.213 53.5423 124.049 54.0903 125.535 52.6044C126.324 51.8154 126.21 48.5456 122.574 49.6436C123.672 46.0078 120.402 45.8938 119.613 46.6828Z" fill="#8F4FC2" stroke="#583276" stroke-width="0.1" stroke-linecap="round" stroke-linejoin="round"/>
<path d="M117.559 49.2223C117.201 50.3975 118.24 52.3751 118.694 53.5768C118.796 53.7651 119.082 54.0941 119.416 53.9043C120.404 53.3574 122.178 52.9257 122.609 51.5143C122.838 50.7649 121.853 48.6113 120.084 50.3683C119.688 47.629 117.788 48.4729 117.559 49.2223Z" fill="#AC68E1" stroke="#583276" stroke-width="0.1" stroke-linecap="round" stroke-linejoin="round"/>
<path d="M112.146 51.4408C113.619 52.9136 116.698 53.15 118.504 53.535C118.798 53.5541 119.352 53.4386 119.215 52.8243C118.83 51.018 118.89 48.2351 117.121 46.4662C116.182 45.5271 112.882 45.0701 114.634 48.9535C110.75 47.2021 111.207 50.5017 112.146 51.4408Z" fill="#8F4FC2" stroke="#583276" stroke-width="0.1" stroke-linecap="round" stroke-linejoin="round"/>
<path d="M114.502 54.5526C115.758 55.1226 117.584 54.4142 118.724 54.1633C118.897 54.0933 119.181 53.8603 118.93 53.4882C118.202 52.3891 117.453 50.5121 115.945 49.8274C115.144 49.464 113.13 50.087 115.223 52.19C112.512 52.1121 113.701 54.1891 114.502 54.5526Z" fill="#AC68E1" stroke="#583276" stroke-width="0.1" stroke-linecap="round" stroke-linejoin="round"/>
<path d="M112.214 54.0821C113.451 52.8449 116.535 53.1442 118.302 53.0697C118.597 53.1018 119.179 53.316 119.148 53.9156C119.073 55.682 119.621 58.5178 118.135 60.0037C117.346 60.7927 114.077 60.6787 115.174 57.0429C111.539 58.1409 111.425 54.8711 112.214 54.0821Z" fill="#8F4FC2" stroke="#583276" stroke-width="0.1" stroke-linecap="round" stroke-linejoin="round"/>
<path d="M115.399 56.2979C115.758 55.1227 117.605 54.4548 118.593 53.9079C118.771 53.8463 119.164 53.8256 119.314 54.2353C119.769 55.437 120.88 57.1784 120.449 58.5898C120.22 59.3392 118.32 60.1832 117.924 57.4439C116.156 59.2009 115.171 57.0473 115.399 56.2979Z" fill="#AC68E1" stroke="#583276" stroke-width="0.1" stroke-linecap="round" stroke-linejoin="round"/>
<path d="M121.191 60.4856C119.718 59.0129 119.482 55.9338 119.097 54.1275C119.078 53.8335 119.193 53.2798 119.808 53.4169C121.614 53.8019 124.397 53.7422 126.166 55.511C127.105 56.4502 127.562 59.7498 123.678 57.9983C125.43 61.8817 122.13 61.4248 121.191 60.4856Z" fill="#8F4FC2" stroke="#583276" stroke-width="0.1" stroke-linecap="round" stroke-linejoin="round"/>
<path d="M122.064 57.9847C120.808 57.4146 119.806 55.423 119.078 54.3239C118.984 54.1327 118.894 53.7301 119.284 53.6489C120.424 53.3979 121.998 52.5749 123.506 53.2595C124.307 53.623 125.496 55.7 122.785 55.6221C124.878 57.7251 122.864 58.3482 122.064 57.9847Z" fill="#AC68E1" stroke="#583276" stroke-width="0.1" stroke-linecap="round" stroke-linejoin="round"/>
<path d="M119.284 53.6488C118.894 53.7301 118.984 54.1327 119.078 54.3238C119.314 54.6802 119.579 55.1304 119.872 55.5956C119.717 54.9513 119.626 53.5899 120.504 53.2978C120.063 53.4279 119.651 53.568 119.284 53.6488Z" fill="#F5CF6C" stroke="#F5CF6C" stroke-width="0.1" stroke-linecap="round" stroke-linejoin="round"/>
<path d="M118.93 53.4883C119.181 53.8603 118.897 54.0933 118.724 54.1633C118.354 54.2447 117.912 54.3741 117.441 54.4925C117.904 54.1287 118.703 53.1709 118.195 52.2502C118.459 52.6997 118.696 53.1343 118.93 53.4883Z" fill="#F5CF6C" stroke="#F5CF6C" stroke-width="0.1" stroke-linecap="round" stroke-linejoin="round"/>
<path d="M119.275 54.2176C119.131 53.8106 118.746 53.8351 118.572 53.8983C118.257 54.0782 117.854 54.2717 117.441 54.4911C118.054 54.4405 119.39 54.573 119.824 55.5079C119.623 55.0415 119.416 54.602 119.275 54.2176Z" fill="#F5CF6C" stroke="#F5CF6C" stroke-width="0.1" stroke-linecap="round" stroke-linejoin="round"/>
<path d="M119.365 53.8813C119.048 54.0789 118.786 53.7608 118.694 53.577C118.563 53.1948 118.376 52.7336 118.196 52.2446C118.608 52.7608 119.633 53.6997 120.433 53.325C120.045 53.5238 119.667 53.6978 119.365 53.8813Z" fill="#F5CF6C" stroke="#F5CF6C" stroke-width="0.1" stroke-linecap="round" stroke-linejoin="round"/>
<ellipse cx="119.006" cy="53.9225" rx="0.418719" ry="0.351759" transform="rotate(45 119.006 53.9225)" fill="#55794F"/>
<path d="M73.5068 3.54084C72.632 5.05615 73.7194 7.95808 74.1046 9.68357C74.212 9.96031 74.5696 10.4674 75.1406 10.2817C76.8275 9.75259 79.7085 9.54797 80.7592 7.72803C81.3171 6.76176 80.3607 3.63288 77.133 5.63444C77.2526 1.83837 74.0647 2.57457 73.5068 3.54084Z" fill="#8F4FC2" stroke="#583276" stroke-width="0.1" stroke-linecap="round" stroke-linejoin="round"/>
<path d="M72.1805 6.52537C72.1381 7.75337 73.6535 9.3947 74.4035 10.4378C74.5502 10.5934 74.9119 10.8371 75.1851 10.5674C75.9982 9.78336 77.6004 8.90714 77.6513 7.43226C77.6783 6.6492 76.1692 4.82396 74.9159 6.97882C73.8246 4.43529 72.2075 5.74231 72.1805 6.52537Z" fill="#AC68E1" stroke="#583276" stroke-width="0.1" stroke-linecap="round" stroke-linejoin="round"/>
<path d="M67.5261 10.0693C69.3298 11.1107 72.3651 10.5421 74.2095 10.4465C74.4984 10.3888 75.0034 10.134 74.7121 9.5761C73.8727 7.93098 73.21 5.22741 71.0437 3.97665C69.8934 3.31257 66.588 3.72518 69.2849 7.02297C65.0805 6.33631 66.3759 9.40521 67.5261 10.0693Z" fill="#8F4FC2" stroke="#583276" stroke-width="0.1" stroke-linecap="round" stroke-linejoin="round"/>
<path d="M70.6071 12.4653C71.9677 12.6908 73.5479 11.534 74.5845 10.9964C74.7338 10.884 74.9477 10.5854 74.6088 10.2911C73.6209 9.41792 72.4116 7.79868 70.7774 7.52779C69.9097 7.38396 68.1258 8.507 70.6922 9.99652C68.0528 10.6231 69.7394 12.3214 70.6071 12.4653Z" fill="#AC68E1" stroke="#583276" stroke-width="0.1" stroke-linecap="round" stroke-linejoin="round"/>
<path d="M68.2747 12.6032C69.1495 11.0879 72.2064 10.5786 73.8933 10.0495C74.1867 10.0041 74.8046 10.0603 74.9294 10.6476C75.3146 12.3731 76.5778 14.9704 75.5271 16.7904C74.9692 17.7566 71.7814 18.4928 71.9009 14.6968C68.6732 16.6983 67.7168 13.5694 68.2747 12.6032Z" fill="#8F4FC2" stroke="#583276" stroke-width="0.1" stroke-linecap="round" stroke-linejoin="round"/>
<path d="M71.9254 13.9189C71.9677 12.6909 73.5785 11.5678 74.3916 10.7837C74.5472 10.6783 74.9215 10.5566 75.1731 10.9133C75.9231 11.9564 77.4471 13.3509 77.3962 14.8258C77.3692 15.6088 75.7521 16.9158 74.6608 14.3723C73.4074 16.5272 71.8984 14.7019 71.9254 13.9189Z" fill="#AC68E1" stroke="#583276" stroke-width="0.1" stroke-linecap="round" stroke-linejoin="round"/>
<path d="M78.6036 16.4649C76.7998 15.4235 75.7746 12.5106 74.9352 10.8655C74.8407 10.5864 74.8089 10.0217 75.4377 9.99509C77.2821 9.89946 79.9548 9.12152 82.1212 10.3723C83.2714 11.0364 84.5668 14.1053 80.3624 13.4186C83.0592 16.7164 79.7538 17.129 78.6036 16.4649Z" fill="#8F4FC2" stroke="#583276" stroke-width="0.1" stroke-linecap="round" stroke-linejoin="round"/>
<path d="M78.7992 13.8233C77.4385 13.5978 75.9557 11.9332 74.9677 11.06C74.8278 10.8996 74.6368 10.534 74.9921 10.3547C76.0287 9.81712 77.3353 8.61495 78.9695 8.88584C79.8372 9.02967 81.5238 10.728 78.8844 11.3546C81.4508 12.8441 79.6668 13.9671 78.7992 13.8233Z" fill="#AC68E1" stroke="#583276" stroke-width="0.1" stroke-linecap="round" stroke-linejoin="round"/>
<path d="M74.992 10.3547C74.6368 10.534 74.8278 10.8996 74.9677 11.06C75.288 11.3431 75.6604 11.7094 76.0637 12.0829C75.7472 11.5008 75.3073 10.2092 76.0795 9.69993C75.6877 9.93951 75.3259 10.1815 74.992 10.3547Z" fill="#F5CF6C" stroke="#F5CF6C" stroke-width="0.1" stroke-linecap="round" stroke-linejoin="round"/>
<path d="M74.6088 10.2911C74.9477 10.5855 74.7338 10.884 74.5845 10.9965C74.2484 11.1708 73.8552 11.4102 73.4308 11.6465C73.7836 11.1753 74.3072 10.0434 73.5787 9.28538C73.9496 9.65138 74.2907 10.0099 74.6088 10.2911Z" fill="#F5CF6C" stroke="#F5CF6C" stroke-width="0.1" stroke-linecap="round" stroke-linejoin="round"/>
<path d="M75.1308 10.9063C74.8857 10.5506 74.5205 10.6739 74.3686 10.7799C74.1112 11.0352 73.772 11.3264 73.4297 11.6453C74.0092 11.4376 75.3336 11.2199 75.995 12.0106C75.6797 11.6122 75.3661 11.2412 75.1308 10.9063Z" fill="#F5CF6C" stroke="#F5CF6C" stroke-width="0.1" stroke-linecap="round" stroke-linejoin="round"/>
<path d="M75.1303 10.5583C74.8756 10.8311 74.5399 10.5917 74.4039 10.4379C74.1786 10.1027 73.8786 9.70547 73.5775 9.27991C74.1095 9.67186 75.3423 10.3135 76.0183 9.7445C75.6946 10.0369 75.3744 10.3029 75.1303 10.5583Z" fill="#F5CF6C" stroke="#F5CF6C" stroke-width="0.1" stroke-linecap="round" stroke-linejoin="round"/>
<ellipse cx="74.7939" cy="10.6911" rx="0.418719" ry="0.351759" transform="rotate(30 74.7939 10.6911)" fill="#55794F"/>
<path d="M145.097 42.1312C144.222 43.6465 145.31 46.5485 145.695 48.274C145.802 48.5507 146.16 49.0578 146.731 48.8721C148.418 48.343 151.299 48.1384 152.35 46.3184C152.908 45.3522 151.951 42.2233 148.723 44.2248C148.843 40.4288 145.655 41.165 145.097 42.1312Z" fill="#8F4FC2" stroke="#583276" stroke-width="0.1" stroke-linecap="round" stroke-linejoin="round"/>
<path d="M143.771 45.1158C143.728 46.3438 145.244 47.9851 145.994 49.0282C146.14 49.1838 146.502 49.4275 146.775 49.1578C147.588 48.3738 149.191 47.4975 149.242 46.0227C149.269 45.2396 147.759 43.4143 146.506 45.5692C145.415 43.0257 143.798 44.3327 143.771 45.1158Z" fill="#AC68E1" stroke="#583276" stroke-width="0.1" stroke-linecap="round" stroke-linejoin="round"/>
<path d="M139.116 48.6597C140.92 49.7011 143.955 49.1325 145.8 49.0369C146.089 48.9792 146.594 48.7244 146.302 48.1665C145.463 46.5214 144.8 43.8178 142.634 42.567C141.484 41.903 138.178 42.3156 140.875 45.6134C136.671 44.9267 137.966 47.9956 139.116 48.6597Z" fill="#8F4FC2" stroke="#583276" stroke-width="0.1" stroke-linecap="round" stroke-linejoin="round"/>
<path d="M142.197 51.0556C143.558 51.2812 145.138 50.1244 146.175 49.5868C146.324 49.4744 146.538 49.1758 146.199 48.8815C145.211 48.0083 144.002 46.3891 142.368 46.1182C141.5 45.9743 139.716 47.0974 142.282 48.5869C139.643 49.2135 141.33 50.9118 142.197 51.0556Z" fill="#AC68E1" stroke="#583276" stroke-width="0.1" stroke-linecap="round" stroke-linejoin="round"/>
<path d="M139.865 51.1936C140.74 49.6783 143.797 49.169 145.484 48.6399C145.777 48.5945 146.395 48.6507 146.52 49.238C146.905 50.9635 148.168 53.5608 147.118 55.3808C146.56 56.347 143.372 57.0832 143.491 53.2872C140.264 55.2887 139.307 52.1598 139.865 51.1936Z" fill="#8F4FC2" stroke="#583276" stroke-width="0.1" stroke-linecap="round" stroke-linejoin="round"/>
<path d="M143.516 52.5093C143.558 51.2813 145.169 50.1582 145.982 49.3741C146.138 49.2687 146.512 49.147 146.763 49.5037C147.513 50.5468 149.037 51.9413 148.987 53.4162C148.96 54.1992 147.342 55.5062 146.251 52.9627C144.998 55.1176 143.489 53.2923 143.516 52.5093Z" fill="#AC68E1" stroke="#583276" stroke-width="0.1" stroke-linecap="round" stroke-linejoin="round"/>
<path d="M150.194 55.0553C148.39 54.0139 147.365 51.101 146.526 49.4559C146.431 49.1768 146.399 48.6121 147.028 48.5855C148.872 48.4899 151.545 47.7119 153.711 48.9627C154.862 49.6268 156.157 52.6956 151.953 52.009C154.65 55.3068 151.344 55.7194 150.194 55.0553Z" fill="#8F4FC2" stroke="#583276" stroke-width="0.1" stroke-linecap="round" stroke-linejoin="round"/>
<path d="M150.389 52.4137C149.029 52.1882 147.546 50.5236 146.558 49.6504C146.418 49.49 146.227 49.1244 146.582 48.9451C147.619 48.4075 148.926 47.2053 150.56 47.4762C151.427 47.6201 153.114 49.3184 150.475 49.945C153.041 51.4345 151.257 52.5575 150.389 52.4137Z" fill="#AC68E1" stroke="#583276" stroke-width="0.1" stroke-linecap="round" stroke-linejoin="round"/>
<path d="M146.583 48.9451C146.227 49.1244 146.418 49.49 146.558 49.6504C146.879 49.9335 147.251 50.2998 147.654 50.6733C147.338 50.0912 146.898 48.7996 147.67 48.2903C147.278 48.5299 146.916 48.7719 146.583 48.9451Z" fill="#F5CF6C" stroke="#F5CF6C" stroke-width="0.1" stroke-linecap="round" stroke-linejoin="round"/>
<path d="M146.199 48.8815C146.538 49.1759 146.324 49.4744 146.175 49.5869C145.839 49.7612 145.446 50.0006 145.021 50.2368C145.374 49.7657 145.898 48.6338 145.169 47.8758C145.54 48.2418 145.881 48.6003 146.199 48.8815Z" fill="#F5CF6C" stroke="#F5CF6C" stroke-width="0.1" stroke-linecap="round" stroke-linejoin="round"/>
<path d="M146.721 49.4967C146.476 49.141 146.111 49.2643 145.959 49.3703C145.702 49.6256 145.363 49.9168 145.02 50.2357C145.6 50.028 146.924 49.8103 147.586 50.601C147.27 50.2026 146.957 49.8316 146.721 49.4967Z" fill="#F5CF6C" stroke="#F5CF6C" stroke-width="0.1" stroke-linecap="round" stroke-linejoin="round"/>
<path d="M146.721 49.1487C146.466 49.4215 146.13 49.1821 145.994 49.0283C145.769 48.693 145.469 48.2959 145.168 47.8703C145.7 48.2623 146.933 48.9039 147.609 48.3349C147.285 48.6273 146.965 48.8933 146.721 49.1487Z" fill="#F5CF6C" stroke="#F5CF6C" stroke-width="0.1" stroke-linecap="round" stroke-linejoin="round"/>
<ellipse cx="146.384" cy="49.2814" rx="0.418719" ry="0.351759" transform="rotate(30 146.384 49.2814)" fill="#55794F"/>
<path d="M73.365 20.6116C74.2399 22.1269 77.2967 22.6361 78.9836 23.1653C79.277 23.2106 79.895 23.1545 80.0197 22.5671C80.4049 20.8416 81.6682 18.2443 80.6174 16.4244C80.0596 15.4581 76.8717 14.7219 76.9912 18.518C73.7635 16.5164 72.8071 19.6453 73.365 20.6116Z" fill="#8F4FC2" stroke="#583276" stroke-width="0.1" stroke-linecap="round" stroke-linejoin="round"/>
<path d="M75.2865 23.2526C76.3288 23.9032 78.5079 23.4115 79.7863 23.2835C79.9944 23.2343 80.3863 23.043 80.2893 22.6715C80.0169 21.5753 80.0592 19.7496 78.8073 18.9681C78.1427 18.5532 75.8074 18.9475 77.0469 21.1103C74.2985 20.7837 74.6219 22.8376 75.2865 23.2526Z" fill="#AC68E1" stroke="#583276" stroke-width="0.1" stroke-linecap="round" stroke-linejoin="round"/>
<path d="M76.0285 29.0553C77.8323 28.0139 78.8575 25.101 79.6969 23.4558C79.7914 23.1768 79.8232 22.6121 79.1944 22.5854C77.35 22.4898 74.6773 21.7119 72.5109 22.9626C71.3607 23.6267 70.0653 26.6956 74.2697 26.009C71.5729 29.3068 74.8783 29.7194 76.0285 29.0553Z" fill="#8F4FC2" stroke="#583276" stroke-width="0.1" stroke-linecap="round" stroke-linejoin="round"/>
<path d="M79.6439 27.5851C80.5196 26.5195 80.3078 24.5726 80.3606 23.4061C80.3378 23.2206 80.1863 22.8861 79.7619 23.0324C78.5117 23.4514 76.5048 23.6891 75.4531 24.9689C74.8947 25.6484 74.9753 27.7549 77.5485 26.277C76.7714 28.8761 79.0855 28.2646 79.6439 27.5851Z" fill="#AC68E1" stroke="#583276" stroke-width="0.1" stroke-linecap="round" stroke-linejoin="round"/>
<path d="M78.5971 29.6739C77.7223 28.1586 78.8097 25.2567 79.1949 23.5312C79.3023 23.2544 79.6599 22.7474 80.2309 22.933C81.9179 23.4622 84.7988 23.6668 85.8496 25.4867C86.4075 26.453 85.4511 29.5819 82.2234 27.5803C82.3429 31.3764 79.155 30.6402 78.5971 29.6739Z" fill="#8F4FC2" stroke="#583276" stroke-width="0.1" stroke-linecap="round" stroke-linejoin="round"/>
<path d="M81.562 27.1702C80.5197 26.5195 80.3525 24.563 80.08 23.4669C80.0665 23.2793 80.1482 22.8943 80.583 22.8548C81.8614 22.7268 83.831 22.1043 85.0828 22.8858C85.7475 23.3007 86.0708 25.3547 83.3224 25.028C84.5619 27.1909 82.2267 27.5851 81.562 27.1702Z" fill="#AC68E1" stroke="#583276" stroke-width="0.1" stroke-linecap="round" stroke-linejoin="round"/>
<path d="M87.106 22.6597C85.3023 23.7011 82.267 23.1325 80.4225 23.0369C80.1336 22.9792 79.6287 22.7244 79.92 22.1665C80.7594 20.5214 81.422 17.8178 83.5884 16.5671C84.7386 15.903 88.0441 16.3156 85.3472 19.6134C89.5516 18.9267 88.2562 21.9956 87.106 22.6597Z" fill="#8F4FC2" stroke="#583276" stroke-width="0.1" stroke-linecap="round" stroke-linejoin="round"/>
<path d="M84.9162 21.1695C84.0405 22.2351 81.8575 22.687 80.6074 23.106C80.3985 23.147 79.9863 23.1296 80.0087 22.7323C80.0614 21.5658 79.6736 19.8331 80.7253 18.5533C81.2837 17.8738 83.5979 17.2623 82.8208 19.8614C85.3939 18.3835 85.4745 20.49 84.9162 21.1695Z" fill="#AC68E1" stroke="#583276" stroke-width="0.1" stroke-linecap="round" stroke-linejoin="round"/>
<path d="M80.0087 22.7322C79.9864 23.1295 80.3985 23.1469 80.6074 23.106C81.0127 22.9701 81.5161 22.8308 82.0413 22.6682C81.3789 22.6513 80.0403 22.3865 79.9854 21.4631C79.997 21.9222 80.0257 22.3566 80.0087 22.7322Z" fill="#F5CF6C" stroke="#F5CF6C" stroke-width="0.1" stroke-linecap="round" stroke-linejoin="round"/>
<path d="M79.762 23.0324C80.1864 22.8861 80.3379 23.2206 80.3607 23.4061C80.3436 23.7844 80.3543 24.2446 80.3467 24.7303C80.115 24.1891 79.3966 23.1698 78.3759 23.4216C78.8783 23.2835 79.3594 23.1673 79.762 23.0324Z" fill="#F5CF6C" stroke="#F5CF6C" stroke-width="0.1" stroke-linecap="round" stroke-linejoin="round"/>
<path d="M80.5558 22.8879C80.1252 22.9223 80.0493 23.3002 80.0652 23.4848C80.1576 23.8353 80.2402 24.2747 80.3452 24.7306C80.4551 24.1248 80.9288 22.869 81.9442 22.6916C81.4415 22.7655 80.9634 22.8515 80.5558 22.8879Z" fill="#F5CF6C" stroke="#F5CF6C" stroke-width="0.1" stroke-linecap="round" stroke-linejoin="round"/>
<path d="M80.2541 22.7143C80.363 23.0713 79.9878 23.2423 79.7866 23.2832C79.3837 23.3107 78.8897 23.3719 78.3706 23.4199C78.976 23.1552 80.1481 22.4083 79.9933 21.5384C80.0848 21.965 80.155 22.3752 80.2541 22.7143Z" fill="#F5CF6C" stroke="#F5CF6C" stroke-width="0.1" stroke-linecap="round" stroke-linejoin="round"/>
<ellipse cx="80.2009" cy="23.072" rx="0.418719" ry="0.351759" transform="rotate(-30 80.2009 23.072)" fill="#55794F"/>
<path d="M108.365 16.6116C109.24 18.1269 112.297 18.6361 113.984 19.1653C114.277 19.2106 114.895 19.1545 115.02 18.5671C115.405 16.8416 116.668 14.2443 115.617 12.4244C115.06 11.4581 111.872 10.7219 111.991 14.518C108.764 12.5164 107.807 15.6453 108.365 16.6116Z" fill="#8F4FC2" stroke="#583276" stroke-width="0.1" stroke-linecap="round" stroke-linejoin="round"/>
<path d="M110.287 19.2526C111.329 19.9032 113.508 19.4115 114.786 19.2835C114.994 19.2343 115.386 19.043 115.289 18.6715C115.017 17.5753 115.059 15.7496 113.807 14.9681C113.143 14.5532 110.807 14.9475 112.047 17.1103C109.299 16.7837 109.622 18.8376 110.287 19.2526Z" fill="#AC68E1" stroke="#583276" stroke-width="0.1" stroke-linecap="round" stroke-linejoin="round"/>
<path d="M111.029 25.0553C112.832 24.0139 113.858 21.101 114.697 19.4558C114.791 19.1768 114.823 18.6121 114.194 18.5854C112.35 18.4898 109.677 17.7119 107.511 18.9626C106.361 19.6267 105.065 22.6956 109.27 22.009C106.573 25.3068 109.878 25.7194 111.029 25.0553Z" fill="#8F4FC2" stroke="#583276" stroke-width="0.1" stroke-linecap="round" stroke-linejoin="round"/>
<path d="M114.644 23.5851C115.52 22.5195 115.308 20.5726 115.361 19.4061C115.338 19.2206 115.186 18.8861 114.762 19.0324C113.512 19.4514 111.505 19.6891 110.453 20.9689C109.895 21.6484 109.975 23.7549 112.549 22.277C111.771 24.8761 114.086 24.2646 114.644 23.5851Z" fill="#AC68E1" stroke="#583276" stroke-width="0.1" stroke-linecap="round" stroke-linejoin="round"/>
<path d="M113.597 25.6739C112.722 24.1586 113.81 21.2567 114.195 19.5312C114.302 19.2544 114.66 18.7474 115.231 18.933C116.918 19.4622 119.799 19.6668 120.85 21.4867C121.408 22.453 120.451 25.5819 117.223 23.5803C117.343 27.3764 114.155 26.6402 113.597 25.6739Z" fill="#8F4FC2" stroke="#583276" stroke-width="0.1" stroke-linecap="round" stroke-linejoin="round"/>
<path d="M116.562 23.1702C115.52 22.5195 115.352 20.563 115.08 19.4669C115.066 19.2793 115.148 18.8943 115.583 18.8548C116.861 18.7268 118.831 18.1043 120.083 18.8858C120.747 19.3007 121.071 21.3547 118.322 21.028C119.562 23.1909 117.227 23.5851 116.562 23.1702Z" fill="#AC68E1" stroke="#583276" stroke-width="0.1" stroke-linecap="round" stroke-linejoin="round"/>
<path d="M122.106 18.6597C120.302 19.7011 117.267 19.1325 115.423 19.0369C115.134 18.9792 114.629 18.7244 114.92 18.1665C115.759 16.5214 116.422 13.8178 118.588 12.5671C119.739 11.903 123.044 12.3156 120.347 15.6134C124.552 14.9267 123.256 17.9956 122.106 18.6597Z" fill="#8F4FC2" stroke="#583276" stroke-width="0.1" stroke-linecap="round" stroke-linejoin="round"/>
<path d="M119.916 17.1695C119.04 18.2351 116.857 18.687 115.607 19.106C115.398 19.147 114.986 19.1296 115.009 18.7323C115.061 17.5658 114.674 15.8331 115.725 14.5533C116.284 13.8738 118.598 13.2623 117.821 15.8614C120.394 14.3835 120.474 16.49 119.916 17.1695Z" fill="#AC68E1" stroke="#583276" stroke-width="0.1" stroke-linecap="round" stroke-linejoin="round"/>
<path d="M115.008 18.7322C114.986 19.1295 115.398 19.1469 115.607 19.106C116.012 18.9701 116.516 18.8308 117.041 18.6682C116.379 18.6513 115.04 18.3865 114.985 17.4631C114.997 17.9222 115.025 18.3566 115.008 18.7322Z" fill="#F5CF6C" stroke="#F5CF6C" stroke-width="0.1" stroke-linecap="round" stroke-linejoin="round"/>
<path d="M114.762 19.0324C115.186 18.8861 115.338 19.2206 115.361 19.4061C115.344 19.7844 115.354 20.2446 115.347 20.7303C115.115 20.1891 114.397 19.1698 113.376 19.4216C113.878 19.2835 114.359 19.1673 114.762 19.0324Z" fill="#F5CF6C" stroke="#F5CF6C" stroke-width="0.1" stroke-linecap="round" stroke-linejoin="round"/>
<path d="M115.556 18.8879C115.125 18.9223 115.049 19.3002 115.065 19.4848C115.158 19.8353 115.24 20.2747 115.345 20.7306C115.455 20.1248 115.929 18.869 116.944 18.6916C116.442 18.7655 115.963 18.8515 115.556 18.8879Z" fill="#F5CF6C" stroke="#F5CF6C" stroke-width="0.1" stroke-linecap="round" stroke-linejoin="round"/>
<path d="M115.254 18.7143C115.363 19.0713 114.988 19.2423 114.787 19.2832C114.384 19.3107 113.89 19.3719 113.371 19.4199C113.976 19.1552 115.148 18.4083 114.993 17.5384C115.085 17.965 115.155 18.3752 115.254 18.7143Z" fill="#F5CF6C" stroke="#F5CF6C" stroke-width="0.1" stroke-linecap="round" stroke-linejoin="round"/>
<ellipse cx="115.201" cy="19.072" rx="0.418719" ry="0.351759" transform="rotate(-30 115.201 19.072)" fill="#55794F"/>
<path d="M4.95029 34.4267C5.27768 36.1455 7.99661 37.6325 9.41538 38.6874C9.67749 38.8268 10.2795 38.9771 10.5906 38.4635C11.5222 36.961 13.57 34.9242 13.1768 32.8598C12.968 31.7637 10.2 30.0193 9.06353 33.6432C6.67441 30.6909 4.74152 33.3307 4.95029 34.4267Z" fill="#8F4FC2" stroke="#583276" stroke-width="0.1" stroke-linecap="round" stroke-linejoin="round"/>
<path d="M5.89548 37.553C6.66555 38.5104 8.88512 38.7633 10.1344 39.0632C10.3471 39.0852 10.7801 39.0335 10.8108 38.6508C10.9143 37.5261 11.5551 35.816 10.6303 34.666C10.1392 34.0555 7.80431 33.6592 8.26287 36.1095C5.77512 34.8964 5.40443 36.9424 5.89548 37.553Z" fill="#AC68E1" stroke="#583276" stroke-width="0.1" stroke-linecap="round" stroke-linejoin="round"/>
<path d="M4.68637 43.2766C6.73238 42.8869 8.65923 40.4737 9.99332 39.1965C10.1744 38.9641 10.3903 38.4413 9.80527 38.2092C8.09509 37.5118 5.82736 35.8976 3.37002 36.3656C2.06533 36.6141 -0.167948 39.0857 4.02819 39.8211C0.3962 42.0475 3.38168 43.5251 4.68637 43.2766Z" fill="#8F4FC2" stroke="#583276" stroke-width="0.1" stroke-linecap="round" stroke-linejoin="round"/>
<path d="M8.58421 43.0783C9.76179 42.3602 10.2026 40.4521 10.6364 39.368C10.676 39.1853 10.6429 38.8195 10.194 38.818C8.87566 38.8022 6.90229 38.3661 5.48796 39.2285C4.73704 39.6863 4.11985 41.702 7.03608 41.1534C5.44681 43.3519 7.83329 43.5361 8.58421 43.0783Z" fill="#AC68E1" stroke="#583276" stroke-width="0.1" stroke-linecap="round" stroke-linejoin="round"/>
<path d="M6.90835 44.7062C6.58096 42.9873 8.56288 40.605 9.49454 39.1024C9.68706 38.8764 10.1916 38.5153 10.6697 38.8786C12.0885 39.9334 14.7416 41.0749 15.1348 43.1392C15.3436 44.2353 13.4107 46.8751 11.0216 43.9227C9.88508 47.5466 7.11712 45.8022 6.90835 44.7062Z" fill="#8F4FC2" stroke="#583276" stroke-width="0.1" stroke-linecap="round" stroke-linejoin="round"/>
<path d="M10.5319 43.3177C9.76181 42.3603 10.2478 40.4577 10.3513 39.333C10.4003 39.1514 10.6042 38.8148 11.0277 38.9205C12.277 39.2204 14.3418 39.2808 15.2667 40.4308C15.7577 41.0414 15.387 43.0873 12.8993 41.8743C13.3578 44.3246 11.0229 43.9283 10.5319 43.3177Z" fill="#AC68E1" stroke="#583276" stroke-width="0.1" stroke-linecap="round" stroke-linejoin="round"/>
<path d="M17.2516 40.8833C15.2056 41.273 12.5266 39.7371 10.8164 39.0397C10.5625 38.8902 10.1696 38.4833 10.6283 38.0524C11.9624 36.7752 13.4779 34.4404 15.9353 33.9723C17.24 33.7238 20.2254 35.2014 16.5934 37.4278C20.7896 38.1632 18.5563 40.6347 17.2516 40.8833Z" fill="#8F4FC2" stroke="#583276" stroke-width="0.1" stroke-linecap="round" stroke-linejoin="round"/>
<path d="M15.6742 38.7553C14.4966 39.4733 12.2865 39.1816 10.9681 39.1658C10.7574 39.1357 10.374 38.9836 10.5258 38.6158C10.9596 37.5317 11.1636 35.7679 12.578 34.9055C13.3289 34.4477 15.7154 34.6319 14.1261 36.8304C17.0423 36.2818 16.4251 38.2975 15.6742 38.7553Z" fill="#AC68E1" stroke="#583276" stroke-width="0.1" stroke-linecap="round" stroke-linejoin="round"/>
<path d="M10.5258 38.6158C10.374 38.9836 10.7574 39.1357 10.9681 39.1658C11.3956 39.1709 11.9168 39.205 12.4662 39.2243C11.8463 38.9903 10.6695 38.2997 10.9215 37.4097C10.7814 37.847 10.6655 38.2666 10.5258 38.6158Z" fill="#F5CF6C" stroke="#F5CF6C" stroke-width="0.1" stroke-linecap="round" stroke-linejoin="round"/>
<path d="M10.1941 38.818C10.643 38.8196 10.676 39.1853 10.6364 39.368C10.4958 39.7195 10.3544 40.1577 10.1874 40.6138C10.1468 40.0265 9.80384 38.8275 8.7571 38.7294C9.27699 38.7643 9.76949 38.8129 10.1941 38.818Z" fill="#F5CF6C" stroke="#F5CF6C" stroke-width="0.1" stroke-linecap="round" stroke-linejoin="round"/>
<path d="M10.9912 38.9428C10.5733 38.8337 10.3773 39.1655 10.3315 39.3451C10.3034 39.7064 10.2368 40.1485 10.1859 40.6136C10.489 40.0778 11.3496 39.0478 12.3669 39.2144C11.8679 39.1188 11.3882 39.0427 10.9912 38.9428Z" fill="#F5CF6C" stroke="#F5CF6C" stroke-width="0.1" stroke-linecap="round" stroke-linejoin="round"/>
<path d="M10.7635 38.6797C10.7488 39.0526 10.3383 39.0906 10.1348 39.063C9.74522 38.9563 9.25865 38.8515 8.75269 38.726C9.41149 38.6753 10.7641 38.3558 10.9042 37.4834C10.8502 37.9163 10.7814 38.3268 10.7635 38.6797Z" fill="#F5CF6C" stroke="#F5CF6C" stroke-width="0.1" stroke-linecap="round" stroke-linejoin="round"/>
<ellipse cx="10.5954" cy="39" rx="0.418719" ry="0.351759" transform="rotate(-10.7841 10.5954 39)" fill="#55794F"/>
<path d="M106.279 64.7558C106.607 66.4746 109.326 67.9616 110.744 69.0164C111.007 69.1558 111.609 69.3062 111.92 68.7926C112.851 67.29 114.899 65.2532 114.506 63.1889C114.297 62.0928 111.529 60.3484 110.393 63.9723C108.004 61.0199 106.071 63.6597 106.279 64.7558Z" fill="#8F4FC2" stroke="#583276" stroke-width="0.1" stroke-linecap="round" stroke-linejoin="round"/>
<path d="M107.225 67.882C107.995 68.8395 110.214 69.0924 111.464 69.3923C111.676 69.4143 112.109 69.3626 112.14 68.9799C112.243 67.8551 112.884 66.1451 111.959 64.9951C111.468 64.3845 109.133 63.9882 109.592 66.4386C107.104 65.2255 106.734 67.2715 107.225 67.882Z" fill="#AC68E1" stroke="#583276" stroke-width="0.1" stroke-linecap="round" stroke-linejoin="round"/>
<path d="M106.015 73.6056C108.061 73.2159 109.988 70.8027 111.322 69.5255C111.503 69.2931 111.719 68.7703 111.134 68.5382C109.424 67.8409 107.156 66.2267 104.699 66.6947C103.394 66.9432 101.161 69.4148 105.357 70.1502C101.725 72.3766 104.711 73.8541 106.015 73.6056Z" fill="#8F4FC2" stroke="#583276" stroke-width="0.1" stroke-linecap="round" stroke-linejoin="round"/>
<path d="M109.913 73.4073C111.091 72.6893 111.532 70.7812 111.965 69.697C112.005 69.5143 111.972 69.1486 111.523 69.1471C110.205 69.1313 108.231 68.6951 106.817 69.5575C106.066 70.0154 105.449 72.031 108.365 71.4824C106.776 73.6809 109.162 73.8652 109.913 73.4073Z" fill="#AC68E1" stroke="#583276" stroke-width="0.1" stroke-linecap="round" stroke-linejoin="round"/>
<path d="M108.237 75.0352C107.91 73.3164 109.892 70.934 110.824 69.4315C111.016 69.2055 111.521 68.8444 111.999 69.2076C113.418 70.2625 116.071 71.4039 116.464 73.4683C116.673 74.5643 114.74 77.2041 112.351 74.2517C111.214 77.8757 108.446 76.1313 108.237 75.0352Z" fill="#8F4FC2" stroke="#583276" stroke-width="0.1" stroke-linecap="round" stroke-linejoin="round"/>
<path d="M111.861 73.6468C111.091 72.6894 111.577 70.7868 111.681 69.6621C111.73 69.4805 111.933 69.1439 112.357 69.2496C113.606 69.5495 115.671 69.6099 116.596 70.7599C117.087 71.3705 116.716 73.4164 114.228 72.2034C114.687 74.6537 112.352 74.2574 111.861 73.6468Z" fill="#AC68E1" stroke="#583276" stroke-width="0.1" stroke-linecap="round" stroke-linejoin="round"/>
<path d="M118.581 71.2124C116.535 71.6021 113.856 70.0662 112.145 69.3688C111.892 69.2193 111.499 68.8124 111.957 68.3815C113.292 67.1043 114.807 64.7695 117.264 64.3014C118.569 64.0529 121.555 65.5305 117.923 67.7569C122.119 68.4923 119.885 70.9638 118.581 71.2124Z" fill="#8F4FC2" stroke="#583276" stroke-width="0.1" stroke-linecap="round" stroke-linejoin="round"/>
<path d="M117.003 69.0844C115.826 69.8024 113.616 69.5106 112.297 69.4948C112.087 69.4648 111.703 69.3127 111.855 68.9449C112.289 67.8607 112.493 66.097 113.907 65.2346C114.658 64.7768 117.044 64.961 115.455 67.1595C118.371 66.6109 117.754 68.6265 117.003 69.0844Z" fill="#AC68E1" stroke="#583276" stroke-width="0.1" stroke-linecap="round" stroke-linejoin="round"/>
<path d="M111.855 68.9449C111.703 69.3127 112.086 69.4648 112.297 69.4948C112.725 69.4999 113.246 69.5341 113.795 69.5534C113.175 69.3194 111.998 68.6288 112.25 67.7388C112.11 68.1761 111.994 68.5957 111.855 68.9449Z" fill="#F5CF6C" stroke="#F5CF6C" stroke-width="0.1" stroke-linecap="round" stroke-linejoin="round"/>
<path d="M111.523 69.1471C111.972 69.1486 112.005 69.5144 111.965 69.697C111.825 70.0486 111.683 70.4867 111.516 70.9428C111.476 70.3556 111.133 69.1566 110.086 69.0584C110.606 69.0933 111.098 69.142 111.523 69.1471Z" fill="#F5CF6C" stroke="#F5CF6C" stroke-width="0.1" stroke-linecap="round" stroke-linejoin="round"/>
<path d="M112.32 69.2719C111.902 69.1627 111.706 69.4945 111.661 69.6741C111.632 70.0355 111.566 70.4775 111.515 70.9426C111.818 70.4068 112.679 69.3768 113.696 69.5435C113.197 69.4478 112.717 69.3717 112.32 69.2719Z" fill="#F5CF6C" stroke="#F5CF6C" stroke-width="0.1" stroke-linecap="round" stroke-linejoin="round"/>
<path d="M112.093 69.0088C112.078 69.3817 111.667 69.4197 111.464 69.3921C111.074 69.2854 110.588 69.1806 110.082 69.0551C110.741 69.0044 112.093 68.6849 112.233 67.8125C112.179 68.2454 112.111 68.6559 112.093 69.0088Z" fill="#F5CF6C" stroke="#F5CF6C" stroke-width="0.1" stroke-linecap="round" stroke-linejoin="round"/>
<ellipse cx="111.925" cy="69.329" rx="0.418719" ry="0.351759" transform="rotate(-10.7841 111.925 69.329)" fill="#55794F"/>
</svg>
