<svg width="168" height="208" viewBox="0 0 168 208" fill="none" xmlns="http://www.w3.org/2000/svg">
<path d="M63.0721 151.419C63.0721 151.419 157.806 136.138 167.279 20C132.543 20 110.439 35.2813 73.715 68.9001C50.441 90.2063 31.4942 96.4064 6.23198 102.519C11.1956 114.529 31.4943 145.306 47.2832 151.419C49.4346 152.198 55.6042 153.288 63.0721 151.419Z" fill="#ECB8D7"/>
<path d="M3.0742 20C-0.0835843 68.9001 -0.0835662 87.2376 6.23198 102.519C31.4942 96.4064 50.441 90.2063 73.715 68.9001C59.4933 68.9001 20.6954 36.3 3.0742 20Z" fill="#ECB8D7"/>
<path fill-rule="evenodd" clip-rule="evenodd" d="M47.2832 151.419C40.9676 164.663 31.1574 185.165 16 192.5C-2.94671 201.669 82.0188 212.544 85.1766 200.319C88.3344 188.094 63.0721 151.419 63.0721 151.419C63.0721 151.419 157.806 136.138 167.279 20C132.543 20 110.439 35.2813 73.715 68.9001C59.4933 68.9001 20.6954 36.3 3.0742 20C-0.0835843 68.9001 -0.0835662 87.2376 6.23198 102.519C11.1956 114.529 31.4943 145.306 47.2832 151.419Z" fill="#ECB8D7"/>
<path d="M47.2832 151.419C31.4943 145.306 11.1956 114.529 6.23198 102.519M47.2832 151.419C49.4346 152.198 55.6042 153.288 63.0721 151.419M47.2832 151.419C40.9676 164.663 31.1574 185.165 16 192.5C-2.94671 201.669 82.0188 212.544 85.1766 200.319C88.3344 188.094 63.0721 151.419 63.0721 151.419M47.2832 151.419C49.9346 152.049 56.8042 152.931 63.0721 151.419M63.0721 151.419C63.0721 151.419 157.806 136.138 167.279 20C132.543 20 110.439 35.2813 73.715 68.9001M6.23198 102.519C-0.0835662 87.2376 -0.0835843 68.9001 3.0742 20C20.6954 36.3 59.4933 68.9001 73.715 68.9001M6.23198 102.519C31.4942 96.4064 50.441 90.2063 73.715 68.9001" stroke="#A56A8D" stroke-linecap="round" stroke-linejoin="round"/>
</svg>
