<svg width="166" height="230" viewBox="0 0 166 230" fill="none" xmlns="http://www.w3.org/2000/svg">
<path d="M65.9756 172.776C69.0761 173.366 72.0205 174.739 71.2915 178.4C70.9734 179.998 69.4439 180.504 67.6611 180.472C65.3569 180.432 62.6296 179.494 61.5475 178.855C55.7891 175.453 62.8752 172.187 65.9756 172.776Z" fill="#E0CEC1"/>
<path d="M61.5475 178.855C55.7891 175.453 62.8752 172.187 65.9756 172.776C69.0761 173.366 72.0205 174.739 71.2915 178.4C70.9734 179.998 69.4439 180.504 67.6611 180.472M61.5475 178.855C55.0524 184.54 39.0502 194.878 27.0024 190.742M61.5475 178.855C62.6296 179.494 65.3569 180.432 67.6611 180.472M67.6611 180.472C68.8721 185.164 75.5461 195.818 92.5547 200.897M59.3195 174.538C55.3322 167.629 45.3204 154.345 37.1712 156.487C26.9847 159.164 21.2288 171.91 26.9872 175.312C32.7456 178.713 54.8914 180.617 59.3195 174.538ZM71.7214 176.896C78.069 171.951 92.4474 163.305 99.1804 168.276C107.597 174.489 108.042 188.415 101.398 189.459C94.7548 190.502 73.4941 184.154 71.7214 176.896Z" stroke="#A78268" stroke-width="0.5" stroke-linecap="round" stroke-linejoin="round"/>
</svg>
