<svg width="166" height="230" viewBox="0 0 166 230" fill="none" xmlns="http://www.w3.org/2000/svg">
<path d="M66.655 175.914C59.2798 173.501 43.1545 171.183 37.6544 181.215C32.1542 191.246 54.6964 181.861 66.655 175.914ZM66.655 175.914C74.1916 174.066 90.4461 172.976 95.1712 183.395C99.8963 193.814 78.1292 182.749 66.655 175.914ZM66.655 175.914C60.214 187.355 44.6461 209.254 33.902 205.323M66.655 175.914C66.5686 186.634 69.0098 208.42 79.4655 209.808" stroke="#B1A2C0" stroke-width="0.1" stroke-linecap="round" stroke-linejoin="round"/>
<path d="M66.4596 176.35C59.4035 173.121 43.6422 169 37.0463 178.348C30.4503 187.695 53.9068 180.911 66.4596 176.35ZM66.4596 176.35C74.1565 175.364 90.4303 176.113 93.9507 186.998C97.4711 197.883 77.0901 184.435 66.4596 176.35ZM66.4596 176.35C58.7699 186.992 40.8325 206.996 30.5999 201.88M66.4596 176.35C65.1653 186.992 65.1348 208.915 75.3674 211.473" stroke="#42364E" stroke-width="0.5" stroke-linecap="round" stroke-linejoin="round"/>
</svg>
