<svg width="166" height="230" viewBox="0 0 166 230" fill="none" xmlns="http://www.w3.org/2000/svg">
<path d="M57.0303 167.473L69.3045 169.001C69.3045 169.001 103.362 148.819 107.708 160.894C110.499 168.648 102.286 178.903 102.286 178.903C102.286 178.903 105.064 194.733 96.0032 199.076C89.1639 202.355 82.0848 197.012 76.7708 190.953C83.0266 202.391 83.2099 211.243 82.1466 214.932L64.5801 214.736C70.1385 209.674 65.164 187.974 61.982 177.756C63.2172 189.197 47.8334 206.993 39.9871 214.46L25.816 204.696C37.0271 202.259 50.5065 185.211 55.8449 176.992C55.8449 176.992 24.6335 201.603 18.593 188.604C14.5274 179.855 21.8704 169.428 21.8704 169.428C21.8704 169.428 17.1806 157.027 21.788 150.195C28.9628 139.554 57.0303 167.473 57.0303 167.473Z" fill="#ECB8D7"/>
<path d="M68.1191 178.52L69.3045 169.001M68.1191 178.52L61.982 177.756M68.1191 178.52C68.1191 178.52 71.6138 185.074 76.7708 190.953M55.8449 176.992L57.0303 167.473M55.8449 176.992C55.8449 176.992 24.6335 201.603 18.593 188.604C14.5274 179.855 21.8704 169.428 21.8704 169.428C21.8704 169.428 17.1806 157.027 21.788 150.195C28.9628 139.554 57.0303 167.473 57.0303 167.473M55.8449 176.992C50.5065 185.211 37.0271 202.259 25.816 204.696L39.9871 214.46C47.8334 206.993 63.2172 189.197 61.982 177.756M55.8449 176.992L61.982 177.756M57.0303 167.473L69.3045 169.001M69.3045 169.001C69.3045 169.001 103.362 148.819 107.708 160.894C110.499 168.648 102.286 178.903 102.286 178.903C102.286 178.903 105.064 194.733 96.0032 199.076C89.1639 202.355 82.0848 197.012 76.7708 190.953M61.982 177.756C65.164 187.974 70.1385 209.674 64.5801 214.736L82.1466 214.932C83.2099 211.243 83.0266 202.391 76.7708 190.953" stroke="#A56A8D" stroke-linecap="round" stroke-linejoin="round"/>
<path d="M57.5667 165.365L68.7966 166.059C68.7966 166.059 98.0304 149.982 101.364 160.271C103.505 166.878 95.3761 176.22 95.3761 176.22C95.3761 176.22 97.2865 189.629 89.5371 193.042C83.6873 195.618 77.8694 190.926 73.5577 185.678C78.5169 195.482 78.4312 202.943 77.4356 206.022L62.6445 205.38C67.4636 201.267 63.862 182.854 61.4588 174.161C62.189 183.832 48.7485 198.404 41.937 204.481L30.2653 195.872C39.7746 194.124 51.5907 180.13 56.3101 173.351C56.3101 173.351 29.3531 193.235 24.6176 182.122C21.4303 174.642 27.8982 166.059 27.8982 166.059C27.8982 166.059 24.2841 155.486 28.3502 149.856C34.6821 141.088 57.5667 165.365 57.5667 165.365Z" fill="#CF83B1"/>
<path d="M66.6074 174.971L68.7966 166.059M66.6074 174.971L61.4588 174.161M66.6074 174.971C66.6074 174.971 69.3733 180.586 73.5577 185.678M56.3101 173.351L57.5667 165.365M56.3101 173.351C56.3101 173.351 29.3531 193.235 24.6176 182.122C21.4303 174.642 27.8982 166.059 27.8982 166.059C27.8982 166.059 24.2841 155.486 28.3502 149.856C34.6821 141.088 57.5667 165.365 57.5667 165.365M56.3101 173.351C51.5907 180.13 39.7746 194.124 30.2653 195.872L41.937 204.481C48.7485 198.404 62.189 183.832 61.4588 174.161M56.3101 173.351L61.4588 174.161M57.5667 165.365L68.7966 166.059M68.7966 166.059C68.7966 166.059 98.0304 149.982 101.364 160.271C103.505 166.878 95.3761 176.22 95.3761 176.22C95.3761 176.22 97.2865 189.629 89.5371 193.042C83.6873 195.618 77.8694 190.926 73.5577 185.678M61.4588 174.161C63.862 182.854 67.4636 201.267 62.6445 205.38L77.4356 206.022C78.4312 202.943 78.5169 195.482 73.5577 185.678" stroke="#A56A8D" stroke-linecap="round" stroke-linejoin="round"/>
</svg>
